<?xml version="1.0" encoding="utf-8"?>
<!-- Generator: Adobe Illustrator 22.0.1, SVG Export Plug-In . SVG Version: 6.00 Build 0)  -->
<svg version="1.1" id="レイヤー_1" xmlns="http://www.w3.org/2000/svg" xmlns:xlink="http://www.w3.org/1999/xlink" x="0px"
	 y="0px" viewBox="0 0 20 21" style="enable-background:new 0 0 20 21;" xml:space="preserve">
<style type="text/css">
	.st0{fill:#FFFFFF;}
</style>
<path class="st0" d="M10,0C4.5,0,0,4.5,0,10s4.5,10,10,10s10-4.5,10-10S15.5,0,10,0z M10,3c1.4,0,2.7,0.4,3.8,1.1l-9.7,9.7
	C3.4,12.7,3,11.4,3,10C3,6.1,6.1,3,10,3z M10,17c-1.4,0-2.7-0.4-3.8-1.1l9.7-9.7C16.6,7.3,17,8.6,17,10C17,13.9,13.9,17,10,17z"/>
</svg>
