<?xml version="1.0" encoding="utf-8"?>
<!-- Generator: Adobe Illustrator 22.0.1, SVG Export Plug-In . SVG Version: 6.00 Build 0)  -->
<svg version="1.1" id="レイヤー_1" xmlns="http://www.w3.org/2000/svg" xmlns:xlink="http://www.w3.org/1999/xlink" x="0px"
	 y="0px" viewBox="0 0 20 21" style="enable-background:new 0 0 20 21;" xml:space="preserve">
<style type="text/css">
	.st0{fill:#FFFFFF;}
</style>
<path class="st0" d="M10,0C4.5,0,0,4.5,0,10s4.5,10,10,10s10-4.5,10-10S15.5,0,10,0z M11.8,2.8l-0.1,2.8L11,12.2H9L8.3,5.6L8.3,2.8
	H11.8z M10,17.2c-1.1,0-2-0.8-2-1.9c0-1.1,0.9-1.9,2-1.9c1.1,0,2,0.8,2,1.9C12,16.5,11.1,17.2,10,17.2z"/>
</svg>
