<?xml version="1.0" encoding="utf-8"?>
<!-- Generator: Adobe Illustrator 22.1.0, SVG Export Plug-In . SVG Version: 6.00 Build 0)  -->
<svg version="1.1" id="Capa_1" xmlns="http://www.w3.org/2000/svg" xmlns:xlink="http://www.w3.org/1999/xlink" x="0px" y="0px"
	 viewBox="0 0 430.3 430.3" style="enable-background:new 0 0 430.3 430.3;" xml:space="preserve">
<style type="text/css">
	.st0{fill:#C8141E;}
</style>
<g>
	<g>
		<path class="st0" d="M388.4,199c-3.5-6-9.3-10.3-16.1-11.9V150C372.3,67.4,301.7,0,215,0S57.7,67.4,57.7,150v37.1
			c-6.8,1.7-12.6,6.1-16,12.2c-2.6,5.1-3.9,10.8-3.8,16.5v81.7c-0.2,5.7,1.1,11.3,3.8,16.4c5.4,9.2,15.6,14.5,26.2,13.5h12.4
			c0.5,8.5,7.5,15.1,16,15h14.1c8.8,0,16-7.2,16-16V185.3c0-8.8-7.2-16-16-16H95.9c-8.8,0-16,7.2-16,16v0.6h-6.5V150
			c0-73.9,63.4-134,141.3-134S356,76.1,356,150v35.9h-6.5v-0.6c0-8.8-7.2-16-16-16H320c-8.8,0-16,7.2-16,16V327
			c0.2,8,6.3,14.6,14.2,15.5c-1.5,10.2-6,19.7-13,27.3c-12.6,13.9-33,21.9-60.6,24v-3.5c-0.4-9.2-8.2-16.4-17.4-16h-34.3
			c-9.2-0.4-17,6.8-17.4,16v24c0.4,9.2,8.2,16.4,17.4,16h34.6c9.2,0.4,17-6.8,17.4-16v-4.5c32.4-2.2,56.9-11.9,72.5-29.1
			c9.7-10.6,15.9-24,17.5-38.2c8.1-0.5,14.5-6.9,15-15h12.4c10.6,1,20.8-4.3,26.2-13.5c2.6-5.1,3.9-10.7,3.8-16.4v-81.8
			C392.5,210,391.1,204.2,388.4,199z M96.3,312.1V201.6c0.1-0.9,0.1-1.9,0-2.8v-13.2l13.4-0.4v141.4H96.3V312.1z M80.3,201.2v110.2
			H67.9c-9.3,0-11.4-3.9-12.2-5.3c-1.3-2.7-1.9-5.7-1.8-8.7v-81.6c-0.2-3,0.4-6.1,1.7-8.8c0.7-1.3,2.9-5.3,12.2-5.3L80.3,201.2z
			 M229.3,402v11c-0.4,0.7-1,1.1-1.8,1.1h-34.6c-0.4,0-0.9,0-1.3,0v-23.4c0.4-0.4,1-0.5,1.6-0.5h34.6c0.9,0,1.4,0,1.4,0L229.3,402
			L229.3,402z M333.8,201.6v125h-6.3h-1h-0.6h-5.6V185.3H334L333.8,201.6z M374.3,306.3c-0.7,1.3-2.9,5.3-12.2,5.3h-12.3V201.9h12.3
			c9.3,0,11.4,3.9,12.2,5.3c1.3,2.7,1.9,5.7,1.8,8.7v81.7C376.2,300.6,375.6,303.6,374.3,306.3z"/>
	</g>
</g>
</svg>
