<?xml version="1.0" encoding="utf-8"?>
<!-- Generator: Adobe Illustrator 22.1.0, SVG Export Plug-In . SVG Version: 6.00 Build 0)  -->
<svg version="1.1" id="レイヤー_1" xmlns="http://www.w3.org/2000/svg" xmlns:xlink="http://www.w3.org/1999/xlink" x="0px"
	 y="0px" viewBox="0 0 9.1 12.2" style="enable-background:new 0 0 9.1 12.2;" xml:space="preserve">
<style type="text/css">
	.st0{fill:url(#SVGID_1_);}
</style>
<g>
	<g>
		<linearGradient id="SVGID_1_" gradientUnits="userSpaceOnUse" x1="1.0682" y1="11.662" x2="7.4509" y2="0.6067">
			<stop  offset="0" style="stop-color:#FFFFFF"/>
			<stop  offset="1" style="stop-color:#000000"/>
		</linearGradient>
		<path class="st0" d="M9.1,2.7L7.3,1.8L6.4,0L4.5,0.6L2.7,0L1.8,1.8L0,2.7l0.6,1.9L0,6.4l1.8,0.9L2,7.8v4.4l2.5-1.3L7,12.2V7.8
			l0.2-0.5L9,6.4L8.4,4.6L9.1,2.7z M6.2,10.8L4.5,10l-1.7,0.8V9l1.7-0.5L6.2,9V10.8z M6.7,6.7L6,8.1L4.5,7.6L3.1,8.1L2.4,6.7L1,6
			l0.5-1.5L1,3.1l1.4-0.7L3.1,1l1.4,0.5L6,1l0.7,1.4L8,3.1L7.6,4.6L8,6L6.7,6.7z M4.5,2.2c-1.3,0-2.3,1-2.3,2.3s1,2.3,2.3,2.3
			s2.3-1,2.3-2.3C6.8,3.3,5.8,2.2,4.5,2.2z M4.5,6C3.7,6,3.1,5.4,3.1,4.6s0.7-1.5,1.5-1.5C5.3,3.1,6,3.7,6,4.6C6,5.4,5.3,6,4.5,6z"
			/>
	</g>
</g>
</svg>
