<?xml version="1.0" encoding="utf-8"?>
<!-- Generator: Adobe Illustrator 15.0.0, SVG Export Plug-In . SVG Version: 6.00 Build 0)  -->
<!DOCTYPE svg PUBLIC "-//W3C//DTD SVG 1.1//EN" "http://www.w3.org/Graphics/SVG/1.1/DTD/svg11.dtd">
<svg version="1.1" id="レイヤー_1" xmlns="http://www.w3.org/2000/svg" xmlns:xlink="http://www.w3.org/1999/xlink" x="0px"
	 y="0px" width="200px" height="152.5px" viewBox="0 0 200 152.5" enable-background="new 0 0 200 152.5" xml:space="preserve">
<g>
	<g>
		<path fill="#BC1B21" d="M94.463,20.405L40.185,3.283c-0.417-0.131-0.846-0.23-1.275-0.295c-4.007-0.596-7.947,1.865-9.167,5.729
			L19.88,39.983c-3.184,10.092-3.447,19.9-0.761,28.367c2.656,8.373,8.105,15.041,15.83,19.408l-13.741,37.887
			c-0.194,0.615-0.323,1.113-0.549,1.16c-4.994,1.024-9.778-4.225-14.795-2.552c-2.396,0.799-4.14,2.281-4.911,4.729
			c-1.393,4.416,1.063,8.328,6.256,9.967l31.62,12.504c0.696,0.221,1.389,0.383,2.056,0.482c4.237,0.631,7.604-1.306,8.785-5.054
			c1.954-6.194-4.061-8.814-6.037-9.675c-2.327-1.013-5.642-2.789-6.666-5.259c-1.222-2.946,0.993-5.892,2.096-8.495
			c1.356-3.204,2.403-6.571,3.589-9.841c1.281-3.532,2.562-7.063,3.843-10.595c0.36-0.991,3.374-10.465,3.782-10.425
			c8.904,0.863,17.258-1.516,24.268-6.938c6.976-5.394,12.331-13.534,15.488-23.541l9.863-31.268
			C101.275,26.47,98.839,21.786,94.463,20.405z M94.518,29.149l-9.864,31.268c-5.882,18.645-19.489,28.746-35.508,26.356
			c0,0-2.788-0.503-3.015,0.217c-3.56,11.376-14.94,41.688-14.94,41.688c-0.771,2.443-0.951,5.65,1.416,7.22
			c2.818,1.87,5.345,3.947,8.226,5.651c1.075,0.635,4.045,1.775,3.46,3.636c-0.176,0.556-0.47,1.487-2.578,1.172
			c-0.375-0.055-0.776-0.15-1.191-0.281L8.905,133.571c-1.164-0.367-2.848-1.055-2.667-2.541c0.168-1.384,1.943-1.971,3.152-1.705
			c1.504,0.331,3.241,0.844,4.627,1.499c1.985,0.938,4.794,1.823,7.001,1.341c2.927-0.641,4.684-2.029,5.566-4.822
			c0,0,11.279-29.82,14.938-41.682c0.301-0.978-1.946-1.839-1.946-1.839c-14.772-7.165-20.258-23.312-14.319-42.14l9.864-31.268
			c0.435-1.378,1.969-2.191,3.367-1.752l54.276,17.123C94.177,26.229,94.963,27.739,94.518,29.149z"/>
		<path fill="#BC1B21" d="M80.357,44.295c-5.93-1.87-25.445,6.693-40.154,2.053c-2.341-0.739-9.049-4.351-10.41-0.037
			C24.528,63,28.79,75.82,45.481,81.086c16.69,5.267,29.694-5.512,34.959-22.2l2.83-8.994
			C84.008,47.551,82.698,45.034,80.357,44.295z"/>
	</g>
</g>
<g>
	<g>
		<path fill="#BC1B21" d="M99.82,29.016l9.865,31.268c3.158,10.007,8.513,18.147,15.488,23.539c7.01,5.42,15.363,7.799,24.268,6.936
			c0.408-0.041,3.422,9.434,3.782,10.424c1.28,3.531,2.562,7.062,3.843,10.596c1.186,3.27,2.232,6.637,3.589,9.84
			c1.103,2.604,3.317,5.549,2.096,8.496c-1.024,2.469-4.339,4.246-6.666,5.258c-1.977,0.861-7.991,3.48-6.037,9.676
			c1.182,3.748,4.548,5.684,8.785,5.053c0.667-0.1,1.36-0.262,2.056-0.482l31.621-12.504c5.193-1.639,7.648-5.551,6.256-9.967
			c-0.771-2.447-2.516-3.93-4.912-4.729c-5.018-1.672-9.801,3.576-14.795,2.553c-0.227-0.047-0.355-0.545-0.549-1.16l-13.741-37.887
			c7.725-4.364,13.173-11.031,15.829-19.404c2.687-8.466,2.424-18.275-0.761-28.367l-9.863-31.267
			c-1.22-3.863-5.159-6.325-9.167-5.729c-0.429,0.064-0.857,0.164-1.274,0.295l-54.278,17.123
			C100.876,19.957,98.439,24.64,99.82,29.016z M106.953,23.956l54.275-17.123c1.398-0.439,2.934,0.374,3.367,1.752l9.864,31.268
			c5.939,18.829,0.454,34.975-14.319,42.139c0,0-2.247,0.861-1.945,1.838c3.658,11.858,14.938,41.679,14.938,41.679
			c0.881,2.793,2.639,4.182,5.565,4.822c2.208,0.482,5.017-0.402,7.001-1.34c1.387-0.656,3.124-1.168,4.628-1.5
			c1.208-0.266,2.983,0.322,3.151,1.705c0.182,1.486-1.502,2.174-2.666,2.541l-31.619,12.506c-0.414,0.131-0.816,0.227-1.191,0.281
			c-2.107,0.314-2.402-0.617-2.578-1.172c-0.584-1.861,2.387-3.002,3.461-3.637c2.881-1.703,5.407-3.781,8.226-5.65
			c2.366-1.57,2.187-4.777,1.415-7.221c0,0-11.379-30.312-14.939-41.688c-0.227-0.72-3.015-0.217-3.015-0.217
			c-16.02,2.389-29.626-7.708-35.509-26.352l-9.863-31.268C104.754,25.909,105.541,24.399,106.953,23.956z"/>
		<path fill="#BC1B21" d="M116.446,48.062l2.83,8.994c5.266,16.688,18.27,27.462,34.96,22.2
			c16.691-5.266,20.953-18.085,15.688-34.775c-1.36-4.313-8.068-0.702-10.41,0.037c-14.709,4.64-34.224-3.923-40.154-2.053
			C117.02,43.204,115.709,45.722,116.446,48.062z"/>
	</g>
</g>
</svg>
