<?xml version="1.0" encoding="utf-8"?>
<!-- Generator: Adobe Illustrator 22.0.1, SVG Export Plug-In . SVG Version: 6.00 Build 0)  -->
<svg version="1.1" id="レイヤー_1" xmlns="http://www.w3.org/2000/svg" xmlns:xlink="http://www.w3.org/1999/xlink" x="0px"
	 y="0px" viewBox="0 0 39 33" style="enable-background:new 0 0 39 33;" xml:space="preserve">
<style type="text/css">
	.st0{fill:#FFFFFF;}
</style>
<g>
	<path class="st0" d="M35.8,6.5h-5.5L27.7,0H11.2L8.6,6.5H7.8V3.2H3.9v3.2H3.1C1.4,6.5,0,7.9,0,9.6v19c0,1.7,1.4,3.1,3.1,3.1h32.6
		c1.7,0,3.1-1.4,3.1-3.1v-19C38.9,7.9,37.5,6.5,35.8,6.5L35.8,6.5z M5.2,4.5h1.3v1.9H5.2V4.5z M37.6,28.6c0,1-0.8,1.8-1.8,1.8H3.1
		c-1,0-1.8-0.8-1.8-1.8v-19c0-1,0.8-1.8,1.8-1.8h6.4l2.6-6.5h14.7l2.6,6.5h6.4c1,0,1.8,0.8,1.8,1.8V28.6z M37.6,28.6"/>
	<path class="st0" d="M19.5,5.8C13,5.8,7.8,11.1,7.8,17.5S13,29.2,19.5,29.2s11.7-5.2,11.7-11.7S25.9,5.8,19.5,5.8L19.5,5.8z
		 M19.5,27.9c-5.7,0-10.4-4.7-10.4-10.4S13.7,7.1,19.5,7.1s10.4,4.7,10.4,10.4S25.2,27.9,19.5,27.9L19.5,27.9z M19.5,27.9"/>
	<path class="st0" d="M19.5,9.7c-4.3,0-7.8,3.5-7.8,7.8c0,4.3,3.5,7.8,7.8,7.8c4.3,0,7.8-3.5,7.8-7.8C27.2,13.2,23.7,9.7,19.5,9.7
		L19.5,9.7z M19.5,24c-3.6,0-6.5-2.9-6.5-6.5s2.9-6.5,6.5-6.5s6.5,2.9,6.5,6.5S23,24,19.5,24L19.5,24z M19.5,24"/>
	<path class="st0" d="M33.7,9.1c-1.4,0-2.6,1.2-2.6,2.6c0,1.4,1.2,2.6,2.6,2.6c1.4,0,2.6-1.2,2.6-2.6C36.3,10.2,35.2,9.1,33.7,9.1
		L33.7,9.1z M33.7,13c-0.7,0-1.3-0.6-1.3-1.3c0-0.7,0.6-1.3,1.3-1.3c0.7,0,1.3,0.6,1.3,1.3C35,12.4,34.4,13,33.7,13L33.7,13z
		 M33.7,13"/>
</g>
</svg>
