<?xml version="1.0" encoding="utf-8"?>
<!-- Generator: Adobe Illustrator 22.0.1, SVG Export Plug-In . SVG Version: 6.00 Build 0)  -->
<svg version="1.1" id="レイヤー_1" xmlns="http://www.w3.org/2000/svg" xmlns:xlink="http://www.w3.org/1999/xlink" x="0px"
	 y="0px" viewBox="0 0 38 31" style="enable-background:new 0 0 38 31;" xml:space="preserve">
<style type="text/css">
	.st0{fill:#FFFFFF;}
</style>
<g>
	<path class="st0" d="M37,0H0.6C0.3,0,0,0.3,0,0.6v28.5c0,0.4,0.3,0.6,0.6,0.6H37c0.4,0,0.6-0.3,0.6-0.6V0.6C37.6,0.3,37.3,0,37,0
		L37,0z M36.3,28.5h-35V1.3h35V28.5z M36.3,28.5"/>
	<path class="st0" d="M10.4,14.4c2,0,3.6-1.6,3.6-3.6c0-2-1.6-3.6-3.6-3.6c-2,0-3.6,1.6-3.6,3.6C6.8,12.7,8.4,14.4,10.4,14.4
		L10.4,14.4z M10.4,8.4c1.3,0,2.3,1,2.3,2.3c0,1.3-1,2.3-2.3,2.3s-2.3-1-2.3-2.3C8.1,9.5,9.1,8.4,10.4,8.4L10.4,8.4z M10.4,8.4"/>
	<path class="st0" d="M4.5,25.9c0.2,0,0.3-0.1,0.4-0.2l10.6-9.3l6.7,6.7c0.3,0.3,0.7,0.3,0.9,0c0.3-0.3,0.3-0.7,0-0.9L20,19.1l6-6.5
		l7.3,6.7c0.3,0.2,0.7,0.2,0.9,0c0.2-0.3,0.2-0.7,0-0.9l-7.8-7.1c-0.1-0.1-0.3-0.2-0.5-0.2c-0.2,0-0.3,0.1-0.4,0.2l-6.4,7L16,15.1
		c-0.2-0.2-0.6-0.3-0.9,0l-11,9.7c-0.3,0.2-0.3,0.6-0.1,0.9C4.2,25.9,4.4,25.9,4.5,25.9L4.5,25.9z M4.5,25.9"/>
</g>
</svg>
