<?xml version="1.0" encoding="utf-8"?>
<!-- Generator: Adobe Illustrator 22.0.1, SVG Export Plug-In . SVG Version: 6.00 Build 0)  -->
<svg version="1.1" id="レイヤー_1" xmlns="http://www.w3.org/2000/svg" xmlns:xlink="http://www.w3.org/1999/xlink" x="0px"
	 y="0px" viewBox="0 0 35 35" style="enable-background:new 0 0 35 35;" xml:space="preserve">
<style type="text/css">
	.st0{fill:#131313;}
</style>
<g>
	<path class="st0" d="M25.2,12.9c0,1.1-0.9,2-2,2c-1.1,0-2-0.9-2-2c0-1.1,0.9-2,2-2C24.3,10.9,25.2,11.8,25.2,12.9L25.2,12.9z
		 M25.2,12.9"/>
	<path class="st0" d="M13.6,12.9c0,1.1-0.9,2-2,2c-1.1,0-2-0.9-2-2c0-1.1,0.9-2,2-2C12.7,10.9,13.6,11.8,13.6,12.9L13.6,12.9z
		 M13.6,12.9"/>
	<g>
		<path class="st0" d="M19,27.7h-2.8c-3.5,0-6.4-2.8-6.4-6.3c0-0.5,0.4-0.8,0.8-0.8c0.5,0,0.8,0.4,0.8,0.8c0,2.6,2.1,4.7,4.8,4.7H19
			c2.7,0,4.8-2,4.8-4.6c0-0.5,0.4-0.8,0.8-0.8c0.5,0,0.8,0.4,0.8,0.8C25.4,25,22.6,27.7,19,27.7L19,27.7z M19,27.7"/>
		<path class="st0" d="M17.4,34.9C7.8,34.9,0,27,0,17.4C0,7.8,7.8,0,17.4,0C27,0,34.9,7.8,34.9,17.4C34.9,27,27,34.9,17.4,34.9
			L17.4,34.9z M17.4,1.7C8.7,1.7,1.7,8.7,1.7,17.4c0,8.7,7.1,15.8,15.8,15.8c8.7,0,15.8-7.1,15.8-15.8C33.2,8.7,26.1,1.7,17.4,1.7
			L17.4,1.7z M17.4,1.7"/>
	</g>
</g>
</svg>
