<?xml version="1.0" encoding="utf-8"?>
<!-- Generator: Adobe Illustrator 22.0.1, SVG Export Plug-In . SVG Version: 6.00 Build 0)  -->
<svg version="1.1" id="レイヤー_1" xmlns="http://www.w3.org/2000/svg" xmlns:xlink="http://www.w3.org/1999/xlink" x="0px"
	 y="0px" viewBox="0 0 36 36" style="enable-background:new 0 0 36 36;" xml:space="preserve">
<style type="text/css">
	.st0{fill:#FFFFFF;}
</style>
<g>
	<path class="st0" d="M33.2,13.8l-2.5-0.4c-0.3-0.8-0.6-1.6-1-2.4l1.4-2c0.6-0.9,0.5-2-0.2-2.8L28.8,4c-0.4-0.4-1-0.6-1.5-0.6
		c-0.5,0-0.9,0.1-1.3,0.4l-2,1.4c-0.8-0.4-1.6-0.8-2.5-1l-0.4-2.4C20.9,0.8,20,0,19,0h-3.1c-1.1,0-2,0.8-2.1,1.8l-0.4,2.5
		c-0.8,0.3-1.6,0.6-2.4,1l-2-1.4C8.6,3.6,8.1,3.4,7.7,3.4c-0.6,0-1.1,0.2-1.5,0.6L4,6.3C3.2,7,3.1,8.2,3.7,9l1.5,2.1
		c-0.4,0.8-0.7,1.6-1,2.4l-2.4,0.4C0.8,14.1,0,15,0,16v3.1c0,1.1,0.8,2,1.8,2.1l2.5,0.4c0.3,0.8,0.6,1.6,1,2.4l-1.4,2
		c-0.6,0.9-0.5,2,0.2,2.8L6.3,31c0.4,0.4,1,0.6,1.5,0.6c0.5,0,0.9-0.1,1.3-0.4l2.1-1.5c0.7,0.4,1.5,0.7,2.3,1l0.4,2.5
		c0.2,1,1.1,1.8,2.1,1.8H19c1.1,0,2-0.8,2.1-1.8l0.4-2.5c0.8-0.3,1.6-0.6,2.4-1l2,1.4c0.4,0.3,0.8,0.4,1.3,0.4
		c0.6,0,1.1-0.2,1.5-0.6l2.2-2.2c0.7-0.7,0.8-1.9,0.2-2.8l-1.4-2c0.4-0.8,0.7-1.6,1-2.4l2.5-0.4c1-0.2,1.8-1.1,1.8-2.1V16
		C35,14.9,34.3,14,33.2,13.8z M33,19L33,19c0,0.1-0.1,0.2-0.2,0.2l-3.1,0.5c-0.4,0.1-0.7,0.4-0.8,0.7c-0.3,1.1-0.7,2.1-1.3,3.1
		c-0.2,0.3-0.2,0.8,0,1.1l1.8,2.5c0.1,0.1,0,0.2,0,0.2l-2.2,2.2c-0.1,0.1-0.1,0.1-0.1,0.1c0,0-0.1,0-0.1,0l-2.5-1.8
		c-0.3-0.2-0.7-0.2-1.1,0c-1,0.6-2,1-3.1,1.3c-0.4,0.1-0.7,0.4-0.7,0.8l-0.5,3.1c0,0.1-0.1,0.2-0.2,0.2H16c-0.1,0-0.2-0.1-0.2-0.2
		l-0.5-3.1c-0.1-0.4-0.4-0.7-0.7-0.8c-1-0.3-2.1-0.7-3-1.2c-0.2-0.1-0.3-0.1-0.5-0.1c-0.2,0-0.4,0.1-0.6,0.2l-2.6,1.8
		c0,0-0.1,0-0.1,0c0,0-0.1,0-0.1-0.1l-2.2-2.2c-0.1-0.1-0.1-0.2,0-0.2l1.8-2.5c0.2-0.3,0.2-0.7,0-1.1c-0.6-1-1-2-1.3-3.1
		c-0.1-0.4-0.4-0.7-0.8-0.7l-3.1-0.5C2,19.3,2,19.2,2,19.1V16c0-0.1,0.1-0.2,0.2-0.2l3-0.5C5.6,15.3,5.9,15,6,14.6
		c0.3-1.1,0.7-2.1,1.3-3.1c0.2-0.3,0.2-0.8-0.1-1.1L5.4,7.9c-0.1-0.1,0-0.2,0-0.2l2.2-2.2c0.1-0.1,0.1-0.1,0.1-0.1c0,0,0.1,0,0.1,0
		l2.5,1.8c0.3,0.2,0.7,0.2,1.1,0c1-0.6,2-1,3.1-1.3c0.4-0.1,0.7-0.4,0.7-0.8l0.5-3.1C15.7,2,15.8,2,15.9,2H19c0.1,0,0.2,0.1,0.2,0.2
		l0.5,3C19.8,5.6,20,5.9,20.4,6c1.1,0.3,2.2,0.7,3.1,1.3c0.3,0.2,0.8,0.2,1.1,0l2.5-1.8c0,0,0.1,0,0.1,0c0,0,0.1,0,0.1,0.1l2.2,2.2
		c0.1,0.1,0.1,0.2,0,0.2l-1.8,2.5c-0.2,0.3-0.2,0.7,0,1.1c0.6,1,1,2,1.3,3.1c0.1,0.4,0.4,0.7,0.8,0.7l3.1,0.5c0.1,0,0.2,0.1,0.2,0.2
		V19z"/>
	<path class="st0" d="M17.5,9.9c-4.2,0-7.6,3.4-7.6,7.6c0,4.2,3.4,7.6,7.6,7.6c4.2,0,7.6-3.4,7.6-7.6C25.1,13.3,21.7,9.9,17.5,9.9z
		 M17.5,23.1c-3.1,0-5.6-2.5-5.6-5.6c0-3.1,2.5-5.6,5.6-5.6c3.1,0,5.6,2.5,5.6,5.6C23.1,20.6,20.6,23.1,17.5,23.1z"/>
</g>
</svg>
