<?xml version="1.0" encoding="utf-8"?>
<!-- Generator: Adobe Illustrator 22.0.1, SVG Export Plug-In . SVG Version: 6.00 Build 0)  -->
<svg version="1.1" id="レイヤー_1" xmlns="http://www.w3.org/2000/svg" xmlns:xlink="http://www.w3.org/1999/xlink" x="0px"
	 y="0px" viewBox="0 0 59 59" style="enable-background:new 0 0 59 59;" xml:space="preserve">
<style type="text/css">
	.st0{fill:#FFFFFF;}
</style>
<g>
	<g>
		<path class="st0" d="M29,0C13,0,0,13,0,29c0,16,13,29,29,29c16,0,29-13,29-29C58.1,13,45.1,0,29,0z M36.3,30.1h-4.7
			c0,7.5,0,16.8,0,16.8h-7c0,0,0-9.2,0-16.8h-3.3v-6h3.3v-3.8c0-2.8,1.3-7.1,7.1-7.1l5.2,0V19c0,0-3.2,0-3.8,0
			c-0.6,0-1.5,0.3-1.5,1.6v3.5h5.3L36.3,30.1z"/>
	</g>
</g>
</svg>
