<?xml version="1.0" encoding="utf-8"?>
<!-- Generator: Adobe Illustrator 22.1.0, SVG Export Plug-In . SVG Version: 6.00 Build 0)  -->
<svg version="1.1" id="レイヤー_1" xmlns="http://www.w3.org/2000/svg" xmlns:xlink="http://www.w3.org/1999/xlink" x="0px"
	 y="0px" viewBox="0 0 60 59" style="enable-background:new 0 0 60 59;" xml:space="preserve">
<style type="text/css">
	.st0{fill:#FFFFFF;}
</style>
<path class="st0" d="M29,0C13,0,0,13,0,29s13,29,29,29s29-13,29-29C58.1,13,45.1,0,29,0z M47.7,31.6c0,3.9-3.2,7.1-7.1,7.1
	c-3.9,0-7.1-3.2-7.1-7.1V29c0-2.5-2.1-4.6-4.6-4.6c-2.5,0-4.6,2-4.6,4.6c0,2.5,2.1,4.6,4.6,4.6c0.3,0,0.6,0,0.9-0.1
	c1.4-0.3,2.7,0.6,3,2c0.3,1.4-0.6,2.7-2,3c-0.6,0.1-1.3,0.2-1.9,0.2c-5.3,0-9.7-4.3-9.7-9.7c0-5.3,4.3-9.7,9.7-9.7
	c5.3,0,9.7,4.3,9.7,9.7v2.6c0,1.1,0.9,2,2,2c1.1,0,2-0.9,2-2V29c0-7.5-6.1-13.6-13.6-13.6c-7.5,0-13.6,6.1-13.6,13.6
	c0,7.5,6.1,13.6,13.6,13.6c1.9,0,3.6-0.4,5.2-1v0c1.3-0.5,2.8,0.1,3.3,1.4c0.5,1.3-0.1,2.8-1.4,3.3c-2.2,0.9-4.6,1.4-7.2,1.4
	c0,0,0,0,0,0c-10.3,0-18.7-8.4-18.7-18.7c0-10.3,8.4-18.7,18.7-18.7c10.3,0,18.7,8.4,18.7,18.7V31.6z"/>
</svg>
