<?xml version="1.0" encoding="utf-8"?>
<!-- Generator: Adobe Illustrator 22.1.0, SVG Export Plug-In . SVG Version: 6.00 Build 0)  -->
<svg version="1.1" id="レイヤー_1" xmlns="http://www.w3.org/2000/svg" xmlns:xlink="http://www.w3.org/1999/xlink" x="0px"
	 y="0px" viewBox="0 0 60 59" style="enable-background:new 0 0 60 59;" xml:space="preserve">
<style type="text/css">
	.st0{fill:#FFFFFF;}
</style>
<g>
	<path class="st0" d="M33.9,23.3c-0.6,0-1.1,0.5-1.1,1.1v5l-4.2-5.7c-0.2-0.3-0.5-0.4-0.9-0.4c-0.1,0-0.2,0-0.3,0.1
		c-0.4,0.1-0.7,0.6-0.7,1v8.1c0,0.6,0.5,1.1,1.1,1.1c0.6,0,1.1-0.5,1.1-1.1v-5l4.2,5.7c0.2,0.3,0.5,0.4,0.9,0.4c0.1,0,0.2,0,0.3-0.1
		c0.4-0.1,0.7-0.6,0.7-1v-8.1C35,23.8,34.5,23.3,33.9,23.3z"/>
	<path class="st0" d="M21,31.4h-3v-7c0-0.6-0.5-1.1-1.1-1.1c-0.6,0-1.1,0.5-1.1,1.1v8.1c0,0.6,0.5,1.1,1.1,1.1H21
		c0.6,0,1.1-0.5,1.1-1.1C22.1,31.9,21.6,31.4,21,31.4z"/>
	<path class="st0" d="M24.1,23.3c-0.6,0-1.1,0.5-1.1,1.1v8.1c0,0.6,0.5,1.1,1.1,1.1c0.6,0,1.1-0.5,1.1-1.1v-8.1
		C25.2,23.8,24.7,23.3,24.1,23.3z"/>
	<path class="st0" d="M41.5,25.4c0.6,0,1.1-0.5,1.1-1.1c0-0.6-0.5-1.1-1.1-1.1h-4.1c-0.6,0-1.1,0.5-1.1,1.1v4.1c0,0,0,0,0,0
		c0,0,0,0,0,0v4.1c0,0.6,0.5,1.1,1.1,1.1h4.1c0.6,0,1.1-0.5,1.1-1.1c0-0.6-0.5-1.1-1.1-1.1h-3v-1.9h3c0.6,0,1.1-0.5,1.1-1.1
		c0-0.6-0.5-1.1-1.1-1.1h-3v-1.9H41.5z"/>
	<path class="st0" d="M29,0C13,0,0,13,0,29s13,29,29,29s29-13,29-29C58.1,13,45.1,0,29,0z M45,38.3c-4.3,4.9-13.9,10.9-16,11.8
		c-2.2,0.9-1.9-0.6-1.8-1.1c0.1-0.3,0.3-1.7,0.3-1.7c0.1-0.5,0.1-1.3-0.1-1.8c-0.2-0.6-1.1-0.9-1.8-1c-9.8-1.3-17.1-8.2-17.1-16.3
		c0-9.1,9.2-16.6,20.4-16.6c11.2,0,20.4,7.4,20.4,16.6C49.4,31.8,48,35.1,45,38.3L45,38.3z"/>
</g>
</svg>
