<?xml version="1.0" encoding="utf-8"?>
<!-- Generator: Adobe Illustrator 22.0.1, SVG Export Plug-In . SVG Version: 6.00 Build 0)  -->
<svg version="1.1" id="レイヤー_1" xmlns="http://www.w3.org/2000/svg" xmlns:xlink="http://www.w3.org/1999/xlink" x="0px"
	 y="0px" viewBox="0 0 257 48" style="enable-background:new 0 0 257 48;" xml:space="preserve">
<style type="text/css">
	.st0{fill:#FFFFFF;}
</style>
<g>
	<path class="st0" d="M26.7,27.2c0-0.5-0.2-0.8-0.5-0.8c-0.3-0.1-0.7-0.1-1.2-0.1H1.3v-0.9c1,0,1.5-0.3,1.5-0.9V1.8
		c0-0.6-0.5-0.9-1.5-0.9V0h8.6v0.9C9,0.9,8.5,1.2,8.5,1.8v19.8H25c0.5,0,0.9-0.1,1.2-0.3c0.3-0.2,0.5-0.5,0.5-0.9h0.9v6.8H26.7z"/>
	<path class="st0" d="M81.1,5.2c-0.5,0-0.9,0.4-1.2,1.1l-7.3,16.1c-0.4,0.9-0.6,1.4-0.8,1.7c-0.2,0.3-0.3,0.5-0.3,0.7
		c0,0.2,0.3,0.3,0.9,0.4v0.9h-7.5v-0.9c0.2-0.1,0.3-0.1,0.5-0.2c0.2-0.1,0.2-0.2,0.2-0.4c0-0.2-0.1-0.4-0.3-0.8
		c-0.2-0.4-0.5-0.9-0.8-1.5L56.9,6.1c-0.1-0.3-0.3-0.5-0.5-0.7c-0.2-0.2-0.4-0.2-0.6-0.2V4.3h7v0.9c-0.4,0-0.6,0.2-0.6,0.6
		c0,0.2,0.1,0.6,0.3,1c0.2,0.4,0.4,0.9,0.6,1.4l5.7,12.4l5.4-12.1c0.4-0.8,0.6-1.4,0.8-1.8c0.2-0.4,0.3-0.7,0.2-0.9
		c0-0.4-0.3-0.6-0.7-0.6V4.3h6.5V5.2z"/>
	<path class="st0" d="M81.1,5.2c-0.5,0-0.9,0.4-1.2,1.1l-7.3,16.1c-0.4,0.9-0.6,1.4-0.8,1.7c-0.2,0.3-0.3,0.5-0.3,0.7
		c0,0.2,0.3,0.3,0.9,0.4v0.9h-7.5v-0.9c0.2-0.1,0.3-0.1,0.5-0.2c0.2-0.1,1.7-0.6,1.7-0.6l7.2-16c0.4-0.8,0.6-1.4,0.8-1.8
		c0.2-0.4,0.3-0.7,0.2-0.9c0-0.4-0.3-0.6-0.7-0.6V4.3h6.5V5.2z"/>
	<path class="st0" d="M174.2,26.2h-6.5v-0.9c0.5,0,0.7-0.2,0.7-0.6c0-0.2,0-0.5-0.2-0.9c-0.2-0.4-0.5-1-0.8-1.8l-5.4-12.1l-5.7,12.4
		c-0.2,0.5-0.4,1-0.6,1.4c-0.2,0.4-0.3,0.7-0.3,1c0,0.4,0.2,0.6,0.6,0.6v0.9h-7v-0.9c0.2,0,0.4-0.1,0.6-0.2c0.2-0.2,0.4-0.4,0.5-0.7
		l7.6-16.3c0.3-0.6,0.6-1.1,0.8-1.5c0.2-0.4,0.3-0.6,0.3-0.8c0-0.2-0.1-0.3-0.2-0.4c-0.1-0.1-0.3-0.2-0.5-0.2V4.3h7.5v0.9
		c-0.6,0.1-0.9,0.2-0.9,0.4c0,0.2,0.1,0.4,0.3,0.7c0.2,0.3,0.5,0.9,0.8,1.7l7.3,16.1c0.4,0.8,0.8,1.1,1.2,1.1V26.2z"/>
	<path class="st0" d="M174.2,26.2h-6.5v-0.9c0.5,0,0.7-0.2,0.7-0.6c0-0.2,0-0.5-0.2-0.9c-0.2-0.4-0.5-1-0.8-1.8l-7.2-16
		c0,0-1.5-0.5-1.7-0.6c-0.1-0.1-0.3-0.2-0.5-0.2V4.3h7.5v0.9c-0.6,0.1-0.9,0.2-0.9,0.4c0,0.2,0.1,0.4,0.3,0.7
		c0.2,0.3,0.5,0.9,0.8,1.7l7.3,16.1c0.4,0.8,0.8,1.1,1.2,1.1V26.2z"/>
	<path class="st0" d="M104.1,8.9c0-0.6-0.5-0.9-1.5-0.9H90.4v5h7.7c0.6,0,1,0,1.2-0.1c0.3-0.1,0.4-0.3,0.4-0.7h0.9v5.3h-1
		c0.1-0.4,0-0.6-0.4-0.7c-0.4-0.1-0.9-0.1-1.5-0.1h-7.3v5.9h12.8c0.4,0,0.7-0.1,1-0.3c0.3-0.2,0.4-0.4,0.4-0.7h0.9v5.2h-0.9
		c0-0.3-0.1-0.5-0.4-0.5c-0.3,0-0.6,0-1,0H84.9v-0.9c0.2,0,0.3-0.1,0.5-0.2c0.2-0.1,0.2-0.3,0.2-0.6V5.9c0-0.3-0.1-0.5-0.2-0.6
		c-0.2-0.1-0.3-0.2-0.5-0.2V4.3h17.7c1,0,1.5-0.3,1.5-0.9h0.9v5.5H104.1z"/>
	<path class="st0" d="M135.1,0c1.8,0,3.5,0.3,5.1,0.8c1.6,0.5,2.9,1.3,4.1,2.4c1.2,1.1,2.1,2.4,2.7,4.1c0.7,1.6,1,3.6,1,5.8
		c0,2.2-0.3,4.2-1,5.8c-0.7,1.6-1.6,3-2.7,4.1c-1.2,1.1-2.5,1.9-4.1,2.4c-1.6,0.5-3.3,0.8-5.1,0.8h-16.5v-0.9c0.8,0,1.1-0.3,1.1-0.9
		V1.8c0-0.6-0.4-0.9-1.1-0.9V0H135.1z M133.1,21.9c1.6,0,2.9-0.1,4.1-0.4c1.2-0.3,2.1-0.7,2.9-1.4c0.8-0.7,1.3-1.6,1.7-2.7
		c0.4-1.1,0.6-2.6,0.6-4.3c0-1.7-0.2-3.2-0.6-4.3c-0.4-1.1-1-2-1.7-2.7c-0.8-0.7-1.7-1.2-2.9-1.4c-1.2-0.3-2.5-0.4-4.1-0.4h-7.7
		v17.6H133.1z"/>
	<path class="st0" d="M178.9,25.3c0.8,0,1.1-0.2,1.1-0.7V5.9c0-0.5-0.4-0.7-1.1-0.7V4.3h13.9c2,0,3.6,0.3,5,0.9
		c1.4,0.6,2.5,1.5,3.4,2.5c0.9,1,1.5,2.2,1.9,3.5c0.4,1.3,0.6,2.7,0.6,4.1c0,1.4-0.2,2.7-0.6,4.1c-0.4,1.3-1,2.5-1.9,3.5
		c-0.9,1-2,1.8-3.3,2.5c-1.4,0.6-3,0.9-5,0.9h-14.1V25.3z M191.3,22.5c1,0,2-0.1,2.9-0.2c0.9-0.1,1.7-0.5,2.4-1
		c0.7-0.5,1.3-1.3,1.7-2.2c0.4-1,0.6-2.3,0.6-4c0-1.7-0.2-3-0.6-3.9c-0.4-0.9-1-1.7-1.7-2.1c-0.7-0.5-1.5-0.8-2.4-0.9
		C193.3,8,192.3,8,191.3,8h-6.5v14.5H191.3z"/>
	<path class="st0" d="M206.4,25.3c0.8,0,1.1-0.2,1.1-0.7V5.9c0-0.5-0.4-0.7-1.1-0.7V4.3h13.9c2,0,3.6,0.3,5,0.9
		c1.4,0.6,2.5,1.5,3.4,2.5c0.9,1,1.5,2.2,1.9,3.5c0.4,1.3,0.6,2.7,0.6,4.1c0,1.4-0.2,2.7-0.6,4.1c-0.4,1.3-1,2.5-1.9,3.5
		c-0.9,1-2,1.8-3.3,2.5c-1.4,0.6-3,0.9-5,0.9h-14.1V25.3z M218.8,22.5c1,0,2-0.1,2.9-0.2c0.9-0.1,1.7-0.5,2.4-1
		c0.7-0.5,1.3-1.3,1.7-2.2c0.4-1,0.6-2.3,0.6-4c0-1.7-0.2-3-0.6-3.9c-0.4-0.9-1-1.7-1.7-2.1c-0.7-0.5-1.5-0.8-2.4-0.9
		C220.8,8,219.8,8,218.8,8h-6.5v14.5H218.8z"/>
	<path class="st0" d="M233.5,6c-0.2-0.3-0.5-0.5-0.8-0.6c-0.3-0.1-0.6-0.2-0.9-0.2V4.3h8.2v0.9c-0.2,0-0.3,0.1-0.5,0.2
		c-0.2,0.1-0.3,0.3-0.3,0.5c0,0.2,0.1,0.4,0.2,0.5c0.1,0.2,0.3,0.4,0.4,0.6l5,6.6l4.4-6.2c0.3-0.4,0.5-0.8,0.7-1
		c0.1-0.2,0.2-0.4,0.2-0.6c0-0.3-0.1-0.4-0.2-0.5c-0.2-0.1-0.3-0.1-0.5-0.1V4.3h7.6v0.9c-0.4,0-0.8,0.2-1.3,0.7s-0.9,0.9-1.3,1.4
		l-7.6,9.9v7.5c0,0.5,0.3,0.7,0.9,0.7v0.9h-6.6v-0.9c0.6,0,0.9-0.2,0.9-0.7v-7.7L233.5,6z"/>
	<path class="st0" d="M42.4,8.5c3.6,0,6.6,3,6.6,6.6s-3,6.6-6.6,6.6c-3.6,0-6.6-3-6.6-6.6S38.8,8.5,42.4,8.5 M42.4,4
		c-6.1,0-11,4.9-11,11s4.9,11,11,11s11-4.9,11-11S48.5,4,42.4,4L42.4,4z"/>
	<g>
		<path class="st0" d="M5.4,38.1c0,2.4,0.3,3.5,1.1,4.9c0.7,1.3,2.1,2.5,3.6,3.3l-0.6,0.8c-2.3-1.4-4-3.5-4.5-5.5
			c-0.5,2.7-1.9,4.4-4.4,5.8L0,46.6c3.3-1.5,4.6-3.9,4.6-8.4v-0.8h0.9V38.1z"/>
		<path class="st0" d="M20.3,39.7V37h0.8v2.7h3.9v0.7h-3.9v2.4h3.4v0.7h-3.4v2.7h4.6V47H15.7v-0.7h4.7v-2.7h-3.3v-0.7h3.3v-2.4h-2.8
			c-0.3,0.7-0.7,1.3-1.2,1.9l-0.7-0.5c1-1.1,1.5-2.2,2-4l0.8,0.2c-0.2,0.7-0.3,1.1-0.5,1.7H20.3z"/>
		<path class="st0" d="M32.3,38.8c0.7,0.1,1.2,0.1,1.9,0.1c0.1,0,0.3,0,0.5,0c0.3-0.6,0.4-1.1,0.7-1.9l0.8,0.2
			c-0.2,0.5-0.5,1.3-0.6,1.6c1.1-0.1,1.8-0.2,2.8-0.4l0.1,0.8c-1.1,0.2-1.9,0.3-3.2,0.4c-0.3,0.7-0.7,1.3-1,1.8
			c0.6-0.4,1.1-0.7,1.7-0.7c0.8,0,1.3,0.5,1.6,1.5c0.7-0.3,1.8-0.7,2.8-1.1l0.4,0.7c-1.2,0.4-2.3,0.8-3.1,1.1
			c0.1,0.5,0.1,1.1,0.1,1.9l-0.8,0v-0.3c0-0.5,0-0.9,0-1.2c-1.5,0.8-2.3,1.4-2.3,2.1c0,0.7,0.8,1,2.5,1c0.9,0,1.8-0.1,2.9-0.2L40,47
			c-0.9,0.1-1.7,0.2-2.4,0.2c-2.6,0-3.8-0.6-3.8-1.7c0-1.1,0.8-1.9,3-2.9c-0.2-0.8-0.5-1.1-1.1-1.1c-0.5,0-1.1,0.3-1.6,0.7
			c-0.5,0.5-0.9,0.9-1.7,1.9l-0.7-0.5c1-1.2,1.9-2.6,2.5-4c-0.2,0-0.4,0-0.5,0c-0.6,0-0.8,0-1.6-0.1L32.3,38.8z"/>
		<path class="st0" d="M46.6,41.8c0.9-0.6,1.6-1.4,2-2.2l0.7,0.3c-0.4,0.9-1.2,1.9-2.1,2.5L46.6,41.8z M46.6,46.9
			c1.9-0.2,3.6-0.7,4.7-1.3c-0.5-0.3-1.1-0.8-1.5-1.3c-0.6,0.5-1.3,1-2.1,1.4l-0.5-0.6c1.5-0.7,2.7-1.7,3.4-2.8l0.7,0.3
			c-0.1,0.3-0.2,0.4-0.4,0.7h3.7l0.4,0.4c-0.5,0.7-1.3,1.5-2.1,2c1.2,0.5,2.4,0.8,4.2,1l-0.5,0.7c-1.7-0.3-3.2-0.7-4.4-1.3
			c-1.3,0.7-3,1.2-5,1.5L46.6,46.9z M53.4,41.9c0,0.5-0.2,0.7-0.8,0.7c-0.4,0-0.8,0-1.1,0l-0.1-0.7c0.3,0,0.7,0.1,0.9,0.1
			c0.3,0,0.4-0.1,0.4-0.4v-2.4h-1.5c0,2-0.7,3.2-2.4,4.1l-0.6-0.5c1.5-0.8,2.1-1.7,2.2-3.6h-3.7v-0.7h4.7V37h0.8v1.4H57v0.7h-3.7
			V41.9z M50.3,43.9c0.5,0.5,1.1,1,1.8,1.3c0.7-0.4,1.3-0.9,1.7-1.4L50.3,43.9L50.3,43.9z M56.1,42.2c-0.8-0.9-1.5-1.6-2.2-2.2
			l0.6-0.5c0.7,0.6,1.5,1.3,2.3,2.2L56.1,42.2z"/>
		<path class="st0" d="M64,40.5c1.7-0.1,3.3-0.3,4.9-0.6l0.6,0.6L69,41l-0.5,0.6l-0.9,1L67.2,43l-0.5,0.5c0.4-0.2,0.7-0.2,1-0.2
			c0.6,0,1,0.4,1,1.2l0,1.1c0,0.5,0.2,0.7,0.8,0.7c0.6,0,1.4-0.1,2.3-0.2l0.1,0.9c-0.7,0.1-1.5,0.2-2.2,0.2c-1.3,0-1.8-0.3-1.8-1.2
			l0-1.2c0-0.4-0.2-0.7-0.6-0.7c-0.3,0-0.8,0.2-1.3,0.6c-0.6,0.5-1.1,0.9-2.6,2.7l-0.6-0.6c2.1-2.1,3.9-4.1,5.4-5.8
			c-1.2,0.3-2.6,0.5-3.9,0.6L64,40.5z M68.4,39.2c-0.9-0.5-2-1-3.1-1.4l0.4-0.7c1.1,0.4,2.1,0.8,3.2,1.3L68.4,39.2z"/>
		<path class="st0" d="M82.9,47.1c-1.5-0.1-2.4-0.6-2.4-1.6c0-0.7,0.6-1.3,1.6-1.3c1,0,1.9,0.8,2.3,2c1.3-0.4,1.9-1.1,1.9-2.2
			c0-1.2-1-2-2.4-2c-0.9,0-1.8,0.2-2.6,0.6c-0.6,0.3-1,0.6-2,1.6l-0.6-0.6c1.6-1.4,3.7-3.5,5.3-5.2c-1.3,0.2-2.6,0.4-3.8,0.4
			L80,38.1c1.5,0,3.2-0.2,4.9-0.4l0.5,0.6l-3.7,3.6c0.9-0.3,1.5-0.5,2.2-0.5c1.9,0,3.2,1.1,3.2,2.7C87.1,46,85.5,47.1,82.9,47.1
			L82.9,47.1L82.9,47.1z M83,46.4c0.2,0,0.4,0,0.6,0c-0.4-0.9-0.9-1.5-1.6-1.5c-0.5,0-0.8,0.2-0.8,0.6c0,0.5,0.5,0.8,1.5,0.9
			C82.9,46.4,83,46.4,83,46.4z"/>
		<path class="st0" d="M94.2,40.7v-0.8h5.2v-2.5h0.8v2.5h2.9v0.8h-2.8v5.5c0,0.7-0.3,1-1.1,1c-0.4,0-1,0-1.6-0.1l-0.2-0.9
			c0.6,0.1,1.1,0.2,1.5,0.2c0.4,0,0.5-0.1,0.5-0.5v-4.7c-1.1,2.1-3,3.8-5,4.7l-0.6-0.7c2.1-0.9,3.8-2.4,5-4.5H94.2z"/>
		<path class="st0" d="M112.9,40.7c-0.8-0.7-1.7-1.4-2.6-1.8l0.5-0.7c0.9,0.5,1.8,1.1,2.6,1.8L112.9,40.7z M110.5,46
			c3.6-0.7,6-2.6,7.5-6l0.6,0.7c-1.7,3.4-3.9,5.2-7.6,6.1L110.5,46z"/>
		<path class="st0" d="M133.4,40.8l0.5,0.4c-0.9,3.1-2.8,5.1-5.8,6l-0.5-0.8c2.6-0.7,4.6-2.5,5.3-4.9h-7.3v-0.8H133.4z M133,38v0.8
			h-6.3V38H133z"/>
		<path class="st0" d="M146.2,47.2h-0.9v-6c-1.2,0.9-2.5,1.7-3.7,2.3l-0.6-0.7c2.5-1,5.2-3,6.8-5.3l0.7,0.5
			c-0.7,0.9-1.5,1.8-2.4,2.5V47.2z"/>
		<path class="st0" d="M159.7,40.7c-0.8-0.7-1.7-1.4-2.6-1.8l0.5-0.7c0.9,0.5,1.8,1.1,2.6,1.8L159.7,40.7z M157.3,46
			c3.6-0.7,6-2.6,7.5-6l0.6,0.7c-1.7,3.4-3.9,5.2-7.6,6.1L157.3,46z"/>
		<path class="st0" d="M171.6,46.8c2-0.4,3.5-1,4.6-1.9c-0.7-0.7-1.4-1.5-2-2.5l0.6-0.4c0.6,1,1.1,1.8,1.9,2.4
			c0.7-0.7,1.3-1.6,1.6-2.6l0.7,0.3c-0.5,1.2-1,2.1-1.7,2.8c1,0.7,2.4,1.3,4.4,1.7l-0.5,0.8c-1.8-0.4-3.4-1.1-4.4-1.9
			c-0.1,0-0.1,0.1-0.2,0.2c-1.1,0.8-2.6,1.5-4.5,2L171.6,46.8z M181.6,38.9v0.8h-9.9v-0.8h4.5v-1.9h0.8v1.9H181.6z M171.9,42.4
			c1.2-0.6,2.1-1.5,2.8-2.6l0.7,0.4c-0.7,1.1-1.7,2.1-2.9,2.8L171.9,42.4z M180.7,42.8c-0.9-0.9-1.8-1.8-2.9-2.5l0.6-0.5
			c1.1,0.7,2,1.5,2.9,2.4L180.7,42.8z"/>
		<path class="st0" d="M189.9,37.5l0.3,0.4c-0.5,1.5-0.8,2.3-1.1,3.1c0.6,0.8,1.1,1.9,1.1,3c0,0.9-0.3,1.3-1.1,1.3
			c-0.3,0-0.5,0-0.7-0.1l-0.2-0.8c0.3,0.1,0.6,0.1,0.8,0.1c0.3,0,0.5-0.2,0.5-0.8c0-1-0.4-2-1.1-2.8c0.4-0.7,0.7-1.5,1.1-2.9H188
			v9.4h-0.7V37.5H189.9z M190,42.3c0.6-0.4,1-0.7,1.5-1.3c-0.3-0.3-0.6-0.5-0.9-0.8c-0.2,0.2-0.3,0.4-0.6,0.6l-0.4-0.5
			c0.9-0.9,1.6-1.9,2-3.3l0.6,0.2c-0.1,0.3-0.1,0.4-0.2,0.6h1.3l0.4,0.4c-0.3,1.2-0.9,2.2-1.6,3.1h3.4V42h-3.4v-0.6
			c-0.5,0.6-1,1.1-1.6,1.5L190,42.3z M190.1,46.5c0.7-0.6,1.3-1.4,1.6-2.1l0.7,0.3c-0.4,0.9-1,1.8-1.7,2.4L190.1,46.5z M194.2,46.6
			c0,0.6-0.2,0.9-0.9,0.9c-0.3,0-0.7,0-1.1-0.1l-0.1-0.8c0.3,0,0.7,0.1,1.1,0.1c0.3,0,0.3-0.1,0.3-0.3v-2.7h-2.7v-0.7h6.4v0.7h-2.9
			V46.6z M192.3,39.9c-0.4-0.3-0.7-0.5-0.9-0.6c-0.1,0.2-0.2,0.3-0.3,0.5c0.3,0.2,0.7,0.5,0.9,0.7C192,40.3,192.2,40.1,192.3,39.9z
			 M191.8,38.4c-0.1,0.1-0.2,0.3-0.2,0.4c0.3,0.1,0.7,0.4,1,0.6c0.2-0.3,0.2-0.5,0.4-1H191.8z M197.4,38.2c-0.5,0.7-1.1,1.4-1.7,2
			c0.6,0.8,1.2,1.3,1.9,1.9l-0.5,0.7c-1.9-1.6-2.8-3-3.5-5.4l0.7-0.2c0.3,1.1,0.6,1.7,1,2.5c0.4-0.4,0.9-0.9,1.1-1.2h-1.3v-0.6h1.9
			L197.4,38.2z M196.8,46.9c-0.6-0.9-1.2-1.6-1.8-2.2l0.6-0.4c0.5,0.5,1.1,1.2,1.8,2.1L196.8,46.9z"/>
		<path class="st0" d="M204.8,47.6h-0.8v-6.1c-0.4,0.6-0.7,1.2-1.1,1.7l-0.4-0.7c1.1-1.4,1.9-3.1,2.5-5.4l0.8,0.2
			c-0.3,1-0.5,1.8-0.9,2.6V47.6z M213.2,44.1v0.7h-7.9v-0.7H213.2z M205.3,47c1-0.5,1.9-1.2,2.6-1.9l0.6,0.4
			c-0.8,0.8-1.7,1.6-2.6,2.1L205.3,47z M211.9,43.3h-5.4v-5.8h5.4V43.3z M207.3,39.2h3.8v-1.1h-3.8V39.2z M207.3,40.9h3.8v-1.1h-3.8
			V40.9z M207.3,42.7h3.8v-1.1h-3.8V42.7z M212.5,47.4c-0.7-0.6-1.8-1.3-2.8-1.9l0.6-0.5c0.8,0.4,1.7,1,2.8,1.8L212.5,47.4z"/>
		<path class="st0" d="M221.4,42.5v-4.3h1.3c0.1-0.4,0.2-0.8,0.3-1.2l0.8,0.1c-0.1,0.4-0.2,0.7-0.4,1.1h2v4.3h-1.7v0.9h4.8v0.7h-4.2
			c1.3,1.1,2.7,1.8,4.3,2.3l-0.5,0.7c-1.9-0.8-3.4-1.7-4.5-2.9v3.3H223v-3.2c-0.9,1.2-2.3,2.2-4.3,3l-0.5-0.7
			c1.8-0.6,3.2-1.5,4.2-2.5l0.1-0.1h-4.2v-0.7h4.7v-0.9H221.4z M218.3,42.3c0.8-0.4,1.7-1.1,2.5-1.8l0.4,0.6
			c-0.6,0.6-1.5,1.3-2.4,1.8L218.3,42.3z M220.5,40c-0.5-0.6-1.2-1.2-1.9-1.7l0.6-0.5c0.6,0.4,1.3,1,1.9,1.7L220.5,40z M222.2,40
			h2.6v-1.2h-2.6V40z M222.2,41.9h2.6v-1.3h-2.6V41.9z M228.2,42.6c-0.8-0.7-1.5-1.2-2.4-1.7l0.5-0.5c0.9,0.5,1.7,1.1,2.5,1.6
			L228.2,42.6z M225.8,39.5c0.7-0.5,1.3-1.1,1.9-1.8l0.7,0.5c-0.5,0.6-1.3,1.3-2,1.8L225.8,39.5z"/>
		<path class="st0" d="M239.6,38.6v0.7h-0.9c-0.2,0.6-0.4,1.5-0.6,2.1h1.7v0.7h-6.1v-0.7h1.7c-0.2-0.8-0.4-1.5-0.6-2.1H234v-0.7h2.5
			v-1.7h0.8v1.7H239.6z M239.1,47.5h-0.8V47h-2.9v0.6h-0.7v-4.2h4.4V47.5z M235.4,46.2h2.9V44h-2.9V46.2z M235.7,39.3
			c0.2,0.7,0.4,1.2,0.6,2.1h1.1c0.2-0.7,0.4-1.4,0.6-2.1H235.7z M243.9,38.2c-0.3,1.1-0.8,2.4-1.2,3.2c0.9,1.1,1.4,2.2,1.4,3.3
			c0,0.9-0.4,1.3-1.2,1.3c-0.3,0-0.7,0-1.2-0.1l-0.2-0.8c0.5,0.1,0.9,0.2,1.2,0.2c0.4,0,0.6-0.2,0.6-0.6c0-1-0.5-2.1-1.4-3.1
			c0.4-0.9,0.8-2,1.1-3h-1.9v9h-0.8v-9.8h3.2L243.9,38.2z"/>
	</g>
</g>
</svg>
