<?xml version="1.0" encoding="utf-8"?>
<!-- Generator: Adobe Illustrator 22.0.1, SVG Export Plug-In . SVG Version: 6.00 Build 0)  -->
<svg version="1.1" id="レイヤー_1" xmlns="http://www.w3.org/2000/svg" xmlns:xlink="http://www.w3.org/1999/xlink" x="0px"
	 y="0px" viewBox="0 0 32 24" style="enable-background:new 0 0 32 24;" xml:space="preserve">
<style type="text/css">
	.st0{fill:#FFFFFF;}
</style>
<g>
	<path class="st0" d="M26.8,0H3.6C1.6,0,0,1.6,0,3.5v16.1c0,1.9,1.6,3.5,3.6,3.5h23.1c2,0,3.6-1.6,3.6-3.5V3.5
		C30.4,1.6,28.7,0,26.8,0L26.8,0z M26.8,20H3.6c-0.3,0-0.5-0.2-0.5-0.4v-14l10.5,8.8c0.2,0.2,0.5,0.3,0.8,0.3h1.8
		c0.3,0,0.6-0.1,0.8-0.3l10.5-8.8v14C27.3,19.8,27,20,26.8,20L26.8,20z M15.2,11.7L5,3.1h20.4L15.2,11.7z M15.2,11.7"/>
</g>
</svg>
