<?xml version="1.0" encoding="utf-8"?>
<!-- Generator: Adobe Illustrator 22.0.1, SVG Export Plug-In . SVG Version: 6.00 Build 0)  -->
<svg version="1.1" id="レイヤー_1" xmlns="http://www.w3.org/2000/svg" xmlns:xlink="http://www.w3.org/1999/xlink" x="0px"
	 y="0px" viewBox="0 0 39 29" style="enable-background:new 0 0 39 29;" xml:space="preserve">
<style type="text/css">
	.st0{fill:#FFFFFF;}
</style>
<g>
	<path class="st0" d="M7.6,15.1h7.6c0.9,0,1.6-0.7,1.6-1.6c0-0.9-0.7-1.6-1.6-1.6H7.6C6.7,12,6,12.7,6,13.5
		C6,14.4,6.7,15.1,7.6,15.1L7.6,15.1z M7.6,15.1"/>
	<g>
		<path class="st0" d="M22,8.2c0-0.9-0.7-1.6-1.6-1.6H7.6C6.7,6.6,6,7.3,6,8.2C6,9,6.7,9.8,7.6,9.8h12.9C21.3,9.8,22,9,22,8.2
			L22,8.2z M22,8.2"/>
		<path class="st0" d="M37.3,8.7c0.6-0.6,0.6-1.6,0-2.2l-3.9-3.9c-0.6-0.6-1.6-0.6-2.2,0l-3.2,3.2V1.6c0-0.9-0.7-1.6-1.6-1.6H1.6
			C0.7,0,0,0.7,0,1.6v25.3c0,0.9,0.7,1.6,1.6,1.6h24.9c0.9,0,1.6-0.7,1.5-1.6v-8.8L37.3,8.7z M24.8,25.3H3.2V3.2h21.6V9l-7.6,7.6
			c-0.2,0.2-0.3,0.5-0.4,0.8l-1.2,5.1c-0.4,2.1,1.7,2,1.7,2l5.1-1.2c0.3,0,0.5-0.2,0.8-0.4l1.6-1.6V25.3z M21.3,20.3l-2.1,0.5
			l0.5-2.1L32.2,6.1l1.7,1.7L21.3,20.3z M21.3,20.3"/>
	</g>
</g>
</svg>
