<?xml version="1.0" encoding="utf-8"?>
<!-- Generator: Adobe Illustrator 22.0.1, SVG Export Plug-In . SVG Version: 6.00 Build 0)  -->
<svg version="1.1" id="レイヤー_1" xmlns="http://www.w3.org/2000/svg" xmlns:xlink="http://www.w3.org/1999/xlink" x="0px"
	 y="0px" viewBox="0 0 27 28" style="enable-background:new 0 0 27 28;" xml:space="preserve">
<style type="text/css">
	.st0{fill:#FFFFFF;}
</style>
<path class="st0" d="M17.8,3C13.7-1,7.1-1,3,3C-1,7.1-1,13.7,3,17.8c3.6,3.6,9.2,4,13.3,1.2c0.1,0.4,0.3,0.8,0.6,1.1l5.9,5.9
	c0.9,0.9,2.3,0.9,3.1,0c0.9-0.9,0.9-2.3,0-3.1L20,16.9c-0.3-0.3-0.7-0.5-1.1-0.6C21.8,12.3,21.4,6.7,17.8,3L17.8,3z M15.9,15.9
	c-3,3-8,3-11,0c-3-3-3-8,0-11c3-3,8-3,11,0C18.9,7.9,18.9,12.9,15.9,15.9L15.9,15.9z M15.9,15.9"/>
</svg>
