<?xml version="1.0" encoding="utf-8"?>
<!-- Generator: Adobe Illustrator 22.0.1, SVG Export Plug-In . SVG Version: 6.00 Build 0)  -->
<svg version="1.1" id="レイヤー_1" xmlns="http://www.w3.org/2000/svg" xmlns:xlink="http://www.w3.org/1999/xlink" x="0px"
	 y="0px" viewBox="0 0 25 35" style="enable-background:new 0 0 25 35;" xml:space="preserve">
<style type="text/css">
	.st0{fill:#FFFFFF;}
</style>
<g>
	<g>
		<path class="st0" d="M14.7,25c1.8,0.6,3.4,1,5.7,1.7C19.5,37.8,9,33.4,14.7,25L14.7,25z M24,14.8c-0.1-3.3-0.7-7.7-5.4-7
			c-2.2,0.6-3.8,3-4.6,7.1c-0.4,2.3-0.2,5.5,0.3,7.4c0.4,1.3,0.3,1.3,0.8,1.5c1.9,0.4,3.7,0.9,5.6,1.4C22.7,23.9,24.3,16.7,24,14.8
			L24,14.8z M9.6,14.6c0.5-1.9,0.7-5.1,0.3-7.4C9.2,3,7.6,0.6,5.4,0.1C0.7-0.6,0.1,3.7,0,7.1c-0.3,1.9,1.3,9,3.2,10.4
			C5.1,17,7,16.5,8.9,16.1C9.3,15.8,9.2,15.9,9.6,14.6L9.6,14.6z M3.7,18.9C4.6,30,15,25.6,9.4,17.2C7.6,17.8,6,18.2,3.7,18.9
			L3.7,18.9z M3.7,18.9"/>
	</g>
</g>
</svg>
