<?xml version="1.0" encoding="utf-8"?>
<!-- Generator: Adobe Illustrator 22.0.1, SVG Export Plug-In . SVG Version: 6.00 Build 0)  -->
<svg version="1.1" id="レイヤー_1" xmlns="http://www.w3.org/2000/svg" xmlns:xlink="http://www.w3.org/1999/xlink" x="0px"
	 y="0px" viewBox="0 0 34 28" style="enable-background:new 0 0 34 28;" xml:space="preserve">
<style type="text/css">
	.st0{fill:#FFFFFF;}
</style>
<g>
	<path class="st0" d="M26.5,17.2c-0.3-0.1-0.5-0.1-0.7,0.1l-1.2,1.2c-0.1,0.1-0.2,0.3-0.2,0.4v2.4c0,0.8-0.3,1.6-0.9,2.2
		c-0.6,0.6-1.3,0.9-2.2,0.9H5.5c-0.8,0-1.6-0.3-2.2-0.9c-0.6-0.6-0.9-1.3-0.9-2.2V5.5c0-0.8,0.3-1.6,0.9-2.2
		c0.6-0.6,1.3-0.9,2.2-0.9h15.9c0.3,0,0.6,0,0.9,0.1c0.2,0.1,0.4,0,0.6-0.2l0.9-0.9c0.2-0.2,0.2-0.3,0.2-0.6c0-0.2-0.2-0.3-0.3-0.4
		C22.9,0.2,22.1,0,21.3,0H5.5C4,0,2.7,0.5,1.6,1.6C0.5,2.7,0,4,0,5.5v15.9c0,1.5,0.5,2.8,1.6,3.9c1.1,1.1,2.4,1.6,3.9,1.6h15.9
		c1.5,0,2.8-0.5,3.9-1.6c1.1-1.1,1.6-2.4,1.6-3.9v-3.6C26.8,17.5,26.7,17.3,26.5,17.2L26.5,17.2z M26.5,17.2"/>
	<path class="st0" d="M12.2,16.5V22h5.5L30.5,9.1L25,3.7L12.2,16.5z M16.9,20.1l-1.1,0v-1.8H14v-1.1l2.2-2.2l2.9,2.9L16.9,20.1z
		 M25.3,7l-6.7,6.7c-0.2,0.2-0.4,0.2-0.6,0c-0.2-0.2-0.2-0.4,0-0.6l6.7-6.7c0.2-0.2,0.4-0.2,0.6,0C25.5,6.6,25.5,6.8,25.3,7L25.3,7z
		 M25.3,7"/>
	<path class="st0" d="M33.5,3.6l-2.9-2.9c-0.4-0.4-0.8-0.5-1.3-0.5c-0.5,0-0.9,0.2-1.3,0.5l-1.8,1.8l5.5,5.5l1.8-1.8
		C33.8,5.8,34,5.4,34,4.9C34,4.4,33.8,3.9,33.5,3.6L33.5,3.6z M33.5,3.6"/>
</g>
</svg>
