<?xml version="1.0" encoding="utf-8"?>
<!-- Generator: Adobe Illustrator 22.0.1, SVG Export Plug-In . SVG Version: 6.00 Build 0)  -->
<svg version="1.1" id="レイヤー_1" xmlns="http://www.w3.org/2000/svg" xmlns:xlink="http://www.w3.org/1999/xlink" x="0px"
	 y="0px" viewBox="0 0 60 59" style="enable-background:new 0 0 60 59;" xml:space="preserve">
<style type="text/css">
	.st0{fill:#FFFFFF;}
</style>
<g>
	<path class="st0" d="M29,0C13,0,0,13,0,29c0,16,13,29,29,29c16,0,29-13,29-29C58.1,13,45.1,0,29,0z M46.8,19.9
		C46,21,45,22.1,43.9,23c-0.3,0.2-0.5,0.6-0.5,1v0.1c0,2.3-0.4,4.7-1.3,7c-0.9,2.4-2.2,4.5-3.8,6.4c-1.8,2-3.8,3.6-6.2,4.7
		c-2.6,1.2-5.4,1.8-8.5,1.8c-3.5,0-6.9-0.9-9.9-2.7c-0.2-0.1-0.3-0.4-0.3-0.6c0.1-0.2,0.3-0.4,0.5-0.4l0.8,0c2.7,0,5.2-0.8,7.4-2.3
		c-2.7-0.4-4.9-2.3-5.7-4.9c-0.1-0.3,0.1-0.5,0.4-0.5c0.4,0.1,0.8,0.1,1.2,0.1c0.1,0,0.1,0,0.2,0c-2.5-1.2-4.2-3.7-4.2-6.6
		c0-0.3,0.3-0.5,0.6-0.3c0.5,0.3,1.1,0.5,1.6,0.6c-1.4-1.3-2.1-3.2-2.1-5.1c0-1.3,0.3-2.5,1-3.6c0.1-0.2,0.5-0.3,0.6,0
		c3.3,4,7.9,6.5,13,6.9c0,0,0,0,0,0c0.1,0,0.1,0,0.2-0.1c0,0,0.1-0.1,0.1-0.2c-0.1-0.9,0-1.8,0.2-2.7c0.6-2.4,2.4-4.3,4.7-5
		c0.8-0.2,1.5-0.4,2.3-0.4c1.8,0,3.5,0.6,4.8,1.8c0.2,0.2,0.4,0.2,0.6,0.2c0.1,0,0.1,0,0.2,0c1.2-0.3,2.4-0.8,3.5-1.5
		c0.3-0.2,0.7,0.1,0.6,0.4c-0.4,1.2-1,2.2-1.9,3c0.8-0.2,1.6-0.4,2.3-0.8C46.7,19.1,47,19.5,46.8,19.9z"/>
</g>
</svg>
