<?xml version="1.0" encoding="utf-8"?>
<!-- Generator: Adobe Illustrator 22.0.1, SVG Export Plug-In . SVG Version: 6.00 Build 0)  -->
<svg version="1.1" id="レイヤー_1" xmlns="http://www.w3.org/2000/svg" xmlns:xlink="http://www.w3.org/1999/xlink" x="0px"
	 y="0px" viewBox="0 0 59 59" style="enable-background:new 0 0 59 59;" xml:space="preserve">
<style type="text/css">
	.st0{fill:#FFFFFF;}
</style>
<g>
	<circle class="st0" cx="29" cy="29.4" r="5.4"/>
	<path class="st0" d="M36,15.7H22.1c-3.8,0-6.8,3-6.8,6.8v13.9c0,3.8,3,6.8,6.8,6.8H36c3.8,0,6.8-3,6.8-6.8V22.5
		C42.8,18.7,39.8,15.7,36,15.7z M29,38.3c-4.9,0-8.9-4-8.9-8.9c0-4.9,4-8.9,8.9-8.9s8.9,4,8.9,8.9C38,34.3,34,38.3,29,38.3z
		 M38,22.7c-1.2,0-2.1-1-2.1-2.1c0-1.2,1-2.1,2.1-2.1c1.2,0,2.1,1,2.1,2.1C40.1,21.8,39.2,22.7,38,22.7z"/>
	<path class="st0" d="M29,0C13,0,0,13,0,29c0,16,13,29,29,29c16,0,29-13,29-29C58.1,13,45.1,0,29,0z M46.3,36.4
		c0,5.7-4.6,10.3-10.3,10.3H22.1c-5.7,0-10.3-4.6-10.3-10.3V22.5c0-5.7,4.6-10.3,10.3-10.3H36c5.7,0,10.3,4.6,10.3,10.3V36.4z"/>
</g>
</svg>
