<?xml version="1.0" encoding="utf-8"?>
<!-- Generator: Adobe Illustrator 22.0.1, SVG Export Plug-In . SVG Version: 6.00 Build 0)  -->
<svg version="1.1" id="レイヤー_1" xmlns="http://www.w3.org/2000/svg" xmlns:xlink="http://www.w3.org/1999/xlink" x="0px"
	 y="0px" viewBox="0 0 101 101" style="enable-background:new 0 0 101 101;" xml:space="preserve">
<style type="text/css">
	.st0{fill:none;stroke:#D2000D;stroke-width:4;stroke-miterlimit:10;}
	.st1{fill:#D2000D;}
</style>
<g>
	<circle class="st0" cx="50.5" cy="50.5" r="48.5"/>
	<g>
		<path class="st1" d="M54.2,46c0,0.5,0.4,0.9,0.9,0.9h9.5c0.5,0,0.9-0.4,0.9-0.9c0-0.5-0.4-0.9-0.9-0.9h-9.5
			C54.6,45,54.2,45.4,54.2,46L54.2,46z M54.2,46"/>
		<path class="st1" d="M59.9,51.6c0,0.5,0.4,0.9,0.9,0.9h5.7c0.5,0,0.9-0.4,0.9-0.9c0-0.5-0.4-0.9-0.9-0.9h-5.7
			C60.3,50.7,59.9,51.1,59.9,51.6L59.9,51.6z M59.9,51.6"/>
		<path class="st1" d="M58.9,41.2c0.5,0,0.9-0.4,0.9-0.9c0-0.5-0.4-0.9-0.9-0.9H57c-0.5,0-0.9,0.4-0.9,0.9c0,0.5,0.4,0.9,0.9,0.9
			H58.9z M58.9,41.2"/>
		<path class="st1" d="M47.6,50.7c-0.5,0-0.9,0.4-0.9,0.9c0,0.5,0.4,0.9,0.9,0.9H57c0.5,0,0.9-0.4,0.9-0.9c0-0.5-0.4-0.9-0.9-0.9
			H47.6z M47.6,50.7"/>
		<path class="st1" d="M52.3,77.2h-18c-1.6,0-2.8-1.3-2.8-2.8V30.8c0-0.5-0.4-0.9-0.9-0.9c-2.6,0-4.7,2.1-4.7,4.7
			c0,0.5,0.4,0.9,0.9,0.9c0.5,0,0.9-0.4,0.9-0.9c0-1.2,0.8-2.3,1.9-2.7v42.4c0,2.6,2.1,4.7,4.7,4.7h18c0.5,0,0.9-0.4,0.9-0.9
			C53.2,77.6,52.8,77.2,52.3,77.2L52.3,77.2z M52.3,77.2"/>
		<path class="st1" d="M38.1,46.9h13.3c0.5,0,0.9-0.4,0.9-0.9c0-0.5-0.4-0.9-0.9-0.9H38.1c-0.5,0-0.9,0.4-0.9,0.9
			C37.1,46.5,37.6,46.9,38.1,46.9L38.1,46.9z M38.1,46.9"/>
		<path class="st1" d="M38.1,41.2h3.8c0.5,0,0.9-0.4,0.9-0.9c0-0.5-0.4-0.9-0.9-0.9h-3.8c-0.5,0-0.9,0.4-0.9,0.9
			C37.1,40.8,37.6,41.2,38.1,41.2L38.1,41.2z M38.1,41.2"/>
		<path class="st1" d="M53.2,39.3h-7.6c-0.5,0-0.9,0.4-0.9,0.9c0,0.5,0.4,0.9,0.9,0.9h7.6c0.5,0,0.9-0.4,0.9-0.9
			C54.2,39.8,53.8,39.3,53.2,39.3L53.2,39.3z M53.2,39.3"/>
		<path class="st1" d="M66.5,26.1h-36c-4.7,0-8.5,3.8-8.5,8.5v0c0,3,1.6,5.8,4.3,7.3c0.5,0.3,1,0.1,1.3-0.3c0.3-0.5,0.1-1-0.3-1.3
			c-2-1.2-3.3-3.4-3.3-5.7c0-3.6,3-6.6,6.6-6.6h36c3.7,0,6.6,3,6.6,6.6v39.8c0,0.5-0.1,1-0.4,1.4c-0.3,0.5-0.1,1,0.3,1.3
			c0.2,0.1,0.3,0.1,0.5,0.1c0.3,0,0.6-0.2,0.8-0.5c0.4-0.7,0.6-1.5,0.6-2.4V34.6C75,29.9,71.2,26.1,66.5,26.1L66.5,26.1z M66.5,26.1
			"/>
		<path class="st1" d="M69.3,69.6c0-3.1-2.5-5.7-5.7-5.7S58,66.5,58,69.6c0,3.1,2.5,5.7,5.7,5.7S69.3,72.8,69.3,69.6L69.3,69.6z
			 M63.7,73.4c-2.1,0-3.8-1.7-3.8-3.8c0-2.1,1.7-3.8,3.8-3.8c2.1,0,3.8,1.7,3.8,3.8C67.4,71.7,65.7,73.4,63.7,73.4L63.7,73.4z
			 M63.7,73.4"/>
		<path class="st1" d="M61.9,76.3c-0.5-0.3-1-0.1-1.3,0.3l-2,3.5l-0.3-0.5c-0.2-0.2-0.4-0.4-0.7-0.4l-0.6,0l2.1-3.6
			c0.3-0.5,0.1-1-0.3-1.3c-0.5-0.3-1-0.1-1.3,0.3l-2.8,4.9c-0.2,0.3-0.2,0.6,0,0.9c0.2,0.3,0.4,0.5,0.8,0.5l1.6,0.1l0.9,1.4
			c0.2,0.3,0.5,0.4,0.8,0.4h0c0.3,0,0.6-0.2,0.8-0.5l2.8-4.9C62.5,77.1,62.4,76.5,61.9,76.3L61.9,76.3z M61.9,76.3"/>
		<path class="st1" d="M69.9,74.7c-0.3-0.5-0.8-0.6-1.3-0.3c-0.5,0.3-0.6,0.8-0.3,1.3l2,3.5l-0.6,0c-0.3,0-0.6,0.2-0.7,0.4l-0.3,0.5
			l-2-3.5c-0.3-0.5-0.8-0.6-1.3-0.3c-0.5,0.3-0.6,0.8-0.3,1.3l2.8,4.8c0.2,0.3,0.5,0.5,0.8,0.5h0c0.3,0,0.6-0.2,0.8-0.4l0.9-1.4
			L72,81c0.3,0,0.6-0.2,0.8-0.5c0.2-0.3,0.1-0.6,0-0.9L69.9,74.7z M69.9,74.7"/>
		<path class="st1" d="M38.1,52.6h5.7c0.5,0,0.9-0.4,0.9-0.9c0-0.5-0.4-0.9-0.9-0.9h-5.7c-0.5,0-0.9,0.4-0.9,0.9
			C37.1,52.2,37.6,52.6,38.1,52.6L38.1,52.6z M38.1,52.6"/>
		<path class="st1" d="M38.1,58.3h11.4c0.5,0,0.9-0.4,0.9-0.9c0-0.5-0.4-0.9-0.9-0.9H38.1c-0.5,0-0.9,0.4-0.9,0.9
			C37.1,57.9,37.6,58.3,38.1,58.3L38.1,58.3z M38.1,58.3"/>
		<path class="st1" d="M38.2,70.1c0.2,0.5,0.8,0.7,1.3,0.4c0.5-0.2,0.7-0.8,0.4-1.3c-0.9-1.9-1.1-3.6-0.6-4.5
			c0.3-0.5,0.9-0.8,1.6-0.8c0.5,0,0.6,0.2,0.7,0.3c0.7,1,0,4.1-0.7,6c-0.2,0.4,0,0.9,0.4,1.1c0.4,0.2,0.9,0.2,1.2-0.1
			c0.4-0.4,0.8-0.8,1.2-1.1v0.5c0,0.4,0.2,0.7,0.6,0.9c0.4,0.1,0.8,0.1,1-0.2c0.4-0.4,0.9-0.9,1.4-1.2c0,0,0,0,0,0.1
			c-0.1,0.3-0.1,0.6,0,0.9c0.2,0.3,0.5,0.4,0.8,0.4h3.8c0.5,0,0.9-0.4,0.9-0.9c0-0.5-0.4-0.9-0.9-0.9h-2.5c0.1-0.5,0.1-0.9-0.2-1.3
			c-0.2-0.4-0.7-0.6-1.2-0.6c-0.6,0-1.3,0.4-1.9,0.8c0-0.4-0.3-0.8-0.7-0.9c-0.3-0.1-0.6-0.2-1.4,0.2c0.3-1.6,0.4-3.5-0.4-4.7
			c-0.4-0.5-1-1.1-2.3-1.1c-1.4,0-2.6,0.6-3.2,1.7C36.8,65.2,36.9,67.6,38.2,70.1L38.2,70.1z M38.2,70.1"/>
		<path class="st1" d="M63.7,57.3c0-0.5-0.4-0.9-0.9-0.9h-9.5c-0.5,0-0.9,0.4-0.9,0.9c0,0.5,0.4,0.9,0.9,0.9h9.5
			C63.2,58.3,63.7,57.9,63.7,57.3L63.7,57.3z M63.7,57.3"/>
	</g>
</g>
</svg>
