<?xml version="1.0" encoding="utf-8"?>
<!-- Generator: Adobe Illustrator 22.0.1, SVG Export Plug-In . SVG Version: 6.00 Build 0)  -->
<svg version="1.1" id="レイヤー_1" xmlns="http://www.w3.org/2000/svg" xmlns:xlink="http://www.w3.org/1999/xlink" x="0px"
	 y="0px" viewBox="0 0 101 101" style="enable-background:new 0 0 101 101;" xml:space="preserve">
<style type="text/css">
	.st0{fill:#D2000D;}
	.st1{fill:none;stroke:#D2000D;stroke-width:4;stroke-miterlimit:10;}
</style>
<g>
	<g>
		<path class="st0" d="M48.7,47.8c-1.7,0-3,1.3-3,3s1.3,3,3,3s3-1.3,3-3S50.4,47.8,48.7,47.8L48.7,47.8z M48.7,52.1
			c-0.7,0-1.3-0.6-1.3-1.3c0-0.7,0.6-1.3,1.3-1.3c0.7,0,1.3,0.6,1.3,1.3C50,51.5,49.4,52.1,48.7,52.1L48.7,52.1z M48.7,52.1"/>
		<path class="st0" d="M60.3,35.8c0.5,0,0.9-0.4,0.9-0.9v-4.3h14.6v-1.7H26v1.7h12v4.3c0,0.5,0.4,0.9,0.9,0.9h1.7
			c-0.2,3.4-2.3,6.4-5.4,7.8l-5,1.9c-3.9,1.5-5.9,5.9-4.4,9.8c0.9,2.2,2.7,3.9,5,4.6l2.4,0.7l-2,6.7c-0.1,0.5,0.1,0.9,0.6,1.1
			c0,0,0,0,0,0l25.7,6.9c0.4,0.1,0.9-0.1,1-0.6l0.5-1.8L69.5,76c0.1,0,0.2,0,0.3,0c0.4,0,0.7-0.2,0.8-0.6l2.6-8.6
			c0.1-0.5-0.1-0.9-0.6-1.1l-10.5-3.2l0.8-2.6c0.1-0.5-0.1-0.9-0.6-1.1c0,0,0,0,0,0l-9.4-2.5l1.5-4.4c0.7-2.2,0.1-4.7-1.8-6.2V35.8
			H60.3z M31.2,58.2c-3.1-0.9-4.9-4.1-4-7.3c0.5-1.8,1.8-3.2,3.5-3.9l5-1.9c3.8-1.6,6.3-5.3,6.5-9.4h3.4v9.7c-1.1,0.7-1.9,1.7-2.3,3
			l-1.7,5l-5.3-1.4c-0.4-0.1-0.9,0.1-1,0.6l-1.8,6.2L31.2,58.2z M71.2,67.2l-2.1,6.9l-9.5-2.9l2.1-6.9L71.2,67.2z M60.9,60.4
			l-3.8,12.9l-24.1-6.4L36.9,54l5.2,1.4l9.4,2.5L60.9,60.4z M52.8,51.3c0,0.1,0,0.1-0.1,0.2L51.2,56l-4.5-1.2l-3.3-0.9l1.6-4.9
			c0.7-2,2.8-3.2,4.9-2.6C52.1,47,53.4,49.2,52.8,51.3L52.8,51.3z M47.4,44.7v-9h3.4v9.1c-0.2-0.1-0.3-0.1-0.5-0.2
			C49.4,44.5,48.4,44.5,47.4,44.7L47.4,44.7z M39.7,34.1v-3.4h19.7v3.4H39.7z M39.7,34.1"/>
	</g>
	<circle class="st1" cx="50.5" cy="50.5" r="48.5"/>
</g>
</svg>
