<?xml version="1.0" encoding="utf-8"?>
<!-- Generator: Adobe Illustrator 22.0.1, SVG Export Plug-In . SVG Version: 6.00 Build 0)  -->
<svg version="1.1" id="レイヤー_1" xmlns="http://www.w3.org/2000/svg" xmlns:xlink="http://www.w3.org/1999/xlink" x="0px"
	 y="0px" viewBox="0 0 196 92" style="enable-background:new 0 0 196 92;" xml:space="preserve">
<style type="text/css">
	.st0{fill:#FFFFFF;}
</style>
<g>
	<path class="st0" d="M17.9,75.4l-0.6,0.3l-0.8,0.4l-1.2,0.7l0,0l-0.2,0.1L14.8,77l-0.3,0l-0.8,0.3l-0.1,0.4l-0.1,0.1l-0.2-0.1
		l-0.6,0c-0.3,0-0.6,0.1-0.8,0.2l-1.4,0.7l-0.5,0l-0.4,0.2l-0.8,0.3l-1,0.3l-1.3,0l-0.9,0.3l-0.6,0l-0.4,0.1l-0.3,0.1L4,80l-0.3,0
		l0,0c-0.1,0-0.2,0-0.3,0l-0.4,0.1l-0.4,0L2.3,80l0,0l-0.2-0.1l-0.1-0.1l0-0.2l-0.1-0.2l-0.2-0.1l-0.2-0.2l-0.1-0.3l-0.4-0.4
		l-0.2-0.4l-0.1-0.3l-0.2-0.3c-0.1-0.2-0.2-0.4-0.3-0.7l-0.2-0.2L0.1,76L0,75.6l0.1-0.5l0-0.5l0-0.2l0.1-0.7l0.1-0.2l0-0.2L0.3,73
		l0-0.1l0-0.2l0.1-0.8l0.1-0.6L0.6,71l0-0.1l0-0.3l0,0l0-0.2l0-0.1l0.1,0l0-0.1l0-0.1L0.7,70l0,0l0-0.2l0.1-0.3l0.1-0.2l0,0L1,68.9
		l0.1-0.1c0-0.1,0.1-0.2,0.2-0.3c0.1-0.3,0.1-0.6,0.2-0.9l0-0.4L1.6,67l0.2-0.3l0-0.2l0.1-0.2l-0.1,0l-0.1-0.1l0-0.1l0.1,0l0,0
		l0,0.2l0-0.1L2,65.9l0-0.1l0-0.1l0,0l0.1,0l0.2-0.5l0-0.1l0.5-1.1l0-0.2l0.6-1.3l0-0.2L3.5,62l0-0.1l0.1-0.4l0-0.1l0-0.1L4,60.7
		l0.1,0l0-0.1l0.1,0l0-0.1l0.1-0.2l0.1-0.4l0.1-0.2l0.2-0.4l0.2-0.2L5,59l0.2-0.4l0.1-0.5L5.4,58l0.2-0.1l0.1-0.2l0.1-0.4l0.1-0.2
		l0-0.2L6,56.8l0.1-0.2l0.1-0.2l-0.1-0.2l0.1-0.1L6.4,56l0.1-0.2l0.1,0l0.1,0c0.4-0.7,0.8-1.4,1.2-2.2L8,53.2l0.3-0.4l0-0.2l0.1-0.2
		l0-0.1l0.3-0.2l0-0.2l0.1-0.2l0.1-0.1l0.3-0.5c0.1-0.1,0.2-0.3,0.2-0.4l0.9-1.5l0.1-0.4l0.1-0.2l0.3-0.2l0.1-0.1l1.2-2l0.1-0.4
		l0-0.3l0-0.2l0-0.1l0.2-0.1l0.1-0.1l0.2-0.3l0.2-0.2l0.2-0.2l0.2-0.4l0,0l0.1-0.3l0.1-0.2l0.1-0.1l0.1-0.3l0.1-0.1L14,43l0.2-0.1
		l0.2-0.2l0.2-0.1l0-0.1l0.1-0.1c0,0,0,0,0.1,0l0-0.2l0-0.2l0.4-0.6l0.4-0.3l0,0l0-0.2l0-0.2l0.2-0.5L16,40l0-0.1l0.2-0.2l0.1-0.2
		l0.2-0.3l0.5-0.9l0.4-0.5l0.3-0.3l0.3-0.1l0.1,0.1l0.1,0.2l0,0.1L18,38.1l0,0l0,0l0,0.1l0.1-0.1l0,0L18,38.5l0,0.2l0,0.1
		c0,0.2-0.1,0.5-0.3,0.8l0,0l0,0.2L17.6,40l0,0l0,0.1l-0.1,0.1l-0.3,0.5l-0.1,0L17,40.8l0,0.2l-0.3,0.2l0,0l-0.1,0.1l-0.1,0.3
		L16,41.8l0,0l-0.2,0.2l0.2,0l0,0.2l-0.1,0.2l-0.1,0l0-0.1l-0.1,0.1l-0.1,0.1l0,0.1l-0.1,0.2l0,0l-0.1,0.1l-0.5,0.7l0,0.2L14.5,44
		l-0.1,0.3l-0.6,0.8l-0.1,0.2L13,46.5l-0.1,0.3l-0.3,0.3l-0.1,0.1l-0.2,0.3L12,47.7l0,0.1l-0.3,0.5l-0.2,0.1l-0.4,0.8l-0.5,0.7
		l-0.6,1l-0.3,0.6l-0.2,0.5l-0.6,1l-0.1,0l0,0l-0.4,0.7l0,0.1l-0.2,0.5l-0.1,0l0,0.1L8,54.5l0,0.2l-0.1,0.2L7.8,55l-0.4,0.5
		l-0.2,0.3L7,56.1l0,0.3l-0.1,0.2l-0.1,0.3l-0.1,0.3l-0.1,0.2l-0.1,0.1l-0.9,1.8l0,0l-0.1,0.3l-0.2,0.2l-0.4,0.7l0,0.2l-0.1,0.2
		l-0.3,0.6l0,0.1l0,0.1l-0.1,0.3l0,0.3l0,0.2L4,62.4l0,0.1L4,62.7l-0.3,0.4l0,0.1l0,0.1l-0.2,0.4l-0.1,0.2l-0.1,0.5l-0.4,1.1
		l-0.2,0.4l-0.4,1.3L2,67.6l0,0l0.1,0.3l0,0.1l-0.1,0.3l-0.3,0.3l-0.2,0.5l0.1,0.2l0,0.2l0,0.1l0,0.1l0,0.1l-0.1,0.1l-0.2,0.8
		l0.1,0.4l0,0.6l0,0.3l0,0.2l0,0.4l-0.1,0.6l-0.1,0.9c0,0.3,0,0.6,0.1,0.9l0,0l0,0l0,0.3l0.1,0.3l0,0l0,0.1l0,0.5l0.2,0.7
		c0.2,0.3,0.6,0.5,0.9,0.7l0.2,0l0.5,0.1l0.1,0l0.1,0L3.4,78l0,0.1l0.2,0l0.1,0.2l0,0L4,78.3l0.1,0l0.1,0l0.8-0.1l0.2,0.1l0.5,0
		l0.2,0l0.1,0l0.4,0l0.8-0.1c0.2,0,0.4,0,0.5-0.1L8.2,78l0,0l0.2,0l0.1,0C8.7,78,9,77.9,9.3,77.9l0.1-0.1l0.1,0c0.2,0,0.4,0,0.5-0.1
		l0.4-0.1l0.6-0.2l0,0.1c0.2,0,0.3-0.1,0.5-0.1l0.6-0.3l0.2,0l0.2-0.2l1-0.2l1.4-0.5l0.2-0.1l0.1,0l1.4-0.5l0.1-0.1l0.4-0.2l0.2-0.1
		l0.3-0.1c0,0,0,0,0,0l0.1-0.1l0.7-0.3l0.2-0.2l0.4-0.1l0.3-0.1l0.9-0.4l0.4-0.3l0.3-0.2l0.6-0.2l0.1-0.1l0.1,0l0.2-0.1l0.1-0.1l0,0
		l0.4-0.2l0.2-0.2l0.1,0l0.9-0.4l0.1-0.2l0.3-0.2l0.4-0.1l0.4-0.2c0.4-0.3,0.9-0.5,1.3-0.7l0.4-0.4l0.2-0.1l0.3-0.1l0.3-0.2l0.2-0.1
		l0,0l1-0.5l0.1-0.1l0.1-0.1l1-0.4c0.1-0.1,0.2-0.2,0.4-0.2l2.3-1.3l0,0l0.1-0.1l0.5-0.3l0.2-0.1l0.8-0.5l0.1,0l0.2-0.1l0.1-0.1
		l0.1-0.1l0.2-0.1l0.6-0.5l0.6-0.3l0.1,0l0.7-0.4l0.4-0.3l0.1-0.1l0.2,0l0.1,0.1l-0.1,0.1l-0.1,0.1l-0.2,0.1
		c-1.2,0.9-2.5,1.8-3.8,2.5l0,0.1l-0.4,0.1c-0.8,0.5-1.7,1-2.6,1.4L30,69.4l-0.3,0.1c-0.1,0-0.1,0-0.1,0.1l-0.7,0.4l-0.6,0.5
		l-1.6,0.7l-0.2,0.1l-0.6,0.3l-0.1,0.1l0.1,0l0,0.1l-0.1,0.1l-0.1,0l0-0.1l-0.1,0.1l-0.2,0.1L25.2,72l0,0.1l-0.2,0.2l-0.5,0.2
		l-0.3,0.2L24,72.7l-0.1,0l-0.1,0l0,0l-0.1,0l0,0l-0.1,0L23.2,73l0,0l-1.1,0.5l-0.9,0.4L21,74.1l-1.1,0.5l-0.3,0.2l-0.3,0.1L19.2,75
		l-0.3,0.1L18,75.4L17.9,75.4z"/>
	<path class="st0" d="M41.2,60.1l-0.3,0.3l-0.4,0.3l-0.3,0.1l-0.1,0.1l0,0.1L40,61.1l-0.4,0.2l-0.3,0.2l0,0.1l-0.1,0.1l-0.2,0.1
		l-0.4,0.4l-0.2,0.1l-0.4,0.4l-0.2,0.2L37.7,63l-0.3,0.3l-0.3,0.2L37,63.6l-0.5,0.2l-0.4,0.3l-0.4,0.1l-0.5,0.1l-0.3,0.2l-0.6,0
		c-0.3,0-0.6-0.1-0.8-0.3l-0.2-0.1l0-0.2c-0.1-0.2-0.2-0.5-0.1-0.9l0-0.1l0.1-0.7l0.1-0.7l0-0.2l0.1-0.4l0.2-0.3l0-0.1l0.2-0.2
		c0-0.1,0.1-0.2,0.1-0.4l0.2-0.4l0-0.2l0.1-0.2l0.1-0.1l0-0.3l0.2-0.3l0.2-0.1l0.1-0.2l0.2-0.3l0.4-1.1l0-0.5l0.2-0.5l0.2-0.2
		l0.1-0.3l0.1-0.1l0-0.3l0-0.2l0.1-0.3l0.2-0.2l0.1-0.1l0.1,0l0-0.1l0.2-0.3l0.2-0.2c0.1-0.2,0.2-0.3,0.4-0.4c0,0,0.1,0,0.1,0
		l0.1-0.1l0-0.1l0.2-0.1l0.3,0l0.3,0.1l0,0.2l0,0.4L38,53.6L37.8,54l-0.1,0.1l-0.1,0.1l-0.1,0l-0.2,0.1L37,55l0,0.2l0,0.1l-0.3,0.5
		c0,0.1-0.1,0.1-0.1,0.2l0,0.2l-0.2,0.3l-0.1,0.4l-0.2,0.3l0,0.1l-0.2,0.2l-0.1,0.2l0,0.1l-0.3,0.5L35,59l-0.1,0.4l-0.1,0.3
		l-0.2,0.7c-0.2,0.3-0.2,0.4-0.2,0.4l-0.1,0.6l0,0.3L34,62.2l0,0.7l0,0.2l0,0.4c0.1,0.3,0.2,0.3,0.2,0.3l0.1,0l0.2-0.1l0.1,0l0.2,0
		l0.2-0.1l0.2-0.1l0.1,0l0.2,0l0.6-0.3l0.1,0c0.1-0.1,0.3-0.2,0.5-0.3l0.1-0.1l0.3-0.3l0.2-0.2L38,62l0.5-0.3l0.3-0.1l1-0.8l0-0.1
		l0.2,0l0.5-0.4l0,0l0-0.1l0.2-0.2l0.1,0l0.1-0.1l0.2-0.1l0.2-0.2l0.3-0.3l0.2-0.2l0.3-0.3l0.1-0.1l0.3-0.3l0.1-0.1l0.1-0.1l0.6-0.5
		l0.1,0l0.2-0.2l0.1-0.1l0.1-0.1c0.1,0,0.1,0,0.1-0.1l0.1-0.2l0.2-0.1l0.1-0.2l0.2-0.2l0.3-0.2l0.1-0.1c0.2-0.2,0.5-0.5,0.8-0.7
		l0-0.1l0.1,0l0.1,0l0.1,0.2L46,55.3L46,55.4l-0.2,0.1l0,0.1l-0.1,0l0,0l0,0.1L45.3,56l-0.1,0l-0.8,0.8l-0.2,0.3l-0.2,0.3l-0.3,0.2
		l-0.2,0.1c-0.5,0.5-1,1-1.4,1.5L42,59.4l-0.1,0.1l-0.3,0.2l-0.1,0.1l0,0.1L41.2,60.1z M40.6,45.1l-0.2,0.5l-0.1,0.2l-0.1,0.1l0,0
		L40,46.1l-0.3,0.1l-0.2,0.2l-0.2,0.2l0,0l-0.1,0.1L39,47l-0.3,0.2l-0.1,0.5l-0.3,0.2L38.2,48l-0.2,0.3l0,0.1l-0.3,0.3l-0.1-0.2
		l0.1-0.1c0,0,0-0.1,0-0.2l0.3-0.6L38,47.3l0.1-0.5l0.1-0.2l0.2-0.4l0.2-0.3l0.1,0l0.3-0.4l0.1-0.2l0.2-0.2l0.1-0.3l0,0l0.1-0.2
		l-0.1,0l0.1-0.1l0,0.1l0.2-0.3L40,44l0.3,0.2l0.3,0.1l0,0.4l0.1,0.1L40.6,45.1z"/>
	<path class="st0" d="M48.8,55.6l0,0.3l0,0.1l0,0.1l-0.2,0.1c-0.1,0.3-0.2,0.6-0.3,1l0,0.1l0,0.2l-0.1,0.2c0,0,0,0,0,0
		c0.2,0.2,0.4,0.4,0.6,0.6l0.1,0l0.2,0.2l0.1,0.1l0.2,0l0,0.1l0.1,0.3l0.1,0.2l0.1,0.3l0.1,0.2l0.1,0.1l0,0c0.3,0.4,0.4,0.8,0.6,1.3
		l0,0.1l0.2,0.3l0,0.2l0.3,0.5l0.1,0.4l0,0.5l0.1,0.5l0,0.2l0,0.3l0,0.4l0,0.2l0,0.3l-0.1,0.6l0,0.1c0,0.2,0,0.4,0,0.6l0.1,0.3
		l0.1,0l0,0.1l-0.2,0.2l0,0.3l0,0.3l0,0.1l0,0.1l-0.1,0.1l-0.2,0.5c0,0.3-0.1,0.6-0.2,0.9l0.1,0.1l0,0.2l-0.2,0.2l-0.1,0.4l0,0.1
		l-0.1,0l-0.1,0.3l0,0.2l0,0.1l0,0.3l-0.1,0.3l0,0.3l0,0.4l-0.1,0.1L50,72.5L50,72.7L49.8,73l-0.2,0.3l-0.1,0.1l-0.2,0.4l-0.1,0.5
		l-0.2,0.3l0,0.1l-0.2,0.4l-0.1,0.2l-0.2,0.6l-0.4,0.7c-0.6,1.5-1.3,2.9-2,4.3l0,0.1l-0.2,0.4l-0.1,0.5l-0.1,0.2l-0.1,0.3l-0.3,0.5
		l-0.1,0.2l-0.2,0.2l-0.5,1l0,0l0,0.1l-0.1,0.1l-0.8,1.4c0,0.1-0.1,0.1-0.1,0.2l0,0.1l0.1,0.1l-0.2-0.1l0,0l0,0.1l-0.1,0.2l0,0
		l-0.2,0.5l-0.6,1.1L42.2,89l-0.8,0.9l-0.8,0.8l0.1,0l0,0.1l0,0.1l-0.1,0l-0.1-0.1L40.3,91l-0.1,0l0,0l0,0l-0.2,0l-0.3-0.2l-0.2-0.3
		c0-0.2,0.1-0.3,0-0.5l-0.1-0.3l0,0l-0.1,0l0-0.2l-0.1-0.3l0-0.3l0-0.1l0-0.1l0-0.1l-0.1,0l0,0l0,0l0-0.2l0-0.1l0.1,0l0-0.1l0.1-0.1
		l0,0l0.1-0.3l-0.1-0.2l-0.1-0.3l0-0.2l0.1-0.4l0.1-0.4l0-0.4c0-0.4,0-0.8,0.1-1.2l0-0.1l0-0.2l0,0c0-0.2,0.1-0.4,0.1-0.7
		c0.3-1,0.5-1.9,0.6-2.8l0-0.6l0-0.2l0.2-0.3l0.1-0.4l0-0.1l0-0.1l0.2-0.6c0.1-0.3,0.2-0.6,0.2-0.9l0-0.1l0-0.1l0-0.1l0.1-0.1
		l0.1-0.6l0.1-0.1l0.3-1.1l0-0.1l0.1-0.2l0-0.1l0.1-0.3l0.2-0.9l0.1-0.2l0.1-0.4l0.3-0.9l0-0.3l0.2-0.5l0.4-1.3l0.1-0.3l0.1-0.3
		l0-0.1c0-0.1,0.1-0.2,0.1-0.3l0-0.3l0.5-1.6l0-0.5l0.4-0.8l0.5-1.6l0.4-1.4l0.2-0.8l0.1-0.3l0.2-0.2l0.8-2.3l0.1-0.4l0.1,0l0.1-0.2
		l0-0.1l0.1-0.1l0.2-0.5c-0.1,0-0.1-0.1-0.2-0.2l-0.3-0.2l-0.2-0.1l0-0.1l-0.1,0l-0.1-0.1l-0.1,0L46,57l-0.5-0.4
		c-0.7-0.3-1.9,0.2-2.5-0.5l-0.1-0.1l0-0.2l0-0.1l0.1-0.2l0,0l0.2-0.2l0,0l0-0.1l0.1-0.1l0.2-0.2l0.2-0.1l0,0l0,0l0.1-0.1l0.1,0
		l0-0.1l0,0l0,0l0.2,0l0,0c0.1,0,0.1,0,0.2-0.1c0.6-0.3,0.8-0.3,1.1-0.4l0.3-0.2l1.2-0.6l0.4-0.2l0.7-0.3l0.3-0.2l0.2-0.1l0.2-0.2
		l0.2-0.2l0.1,0l0.1,0.1l0.1,0l0.2-0.1c0,0,0,0,0-0.1l0.3-1.3l0.3-0.4l0-0.2l0.2-0.3l0.2-0.4l0.8-2.7c0-0.2,0.1-0.4,0.2-0.6l0-0.1
		l0-0.2l0.2-0.2l0.3-0.6l0.2-0.4l0.1-0.2l0.2-0.4l0.2-0.3c0.1-0.7,0.5-1.4,0.7-2.1c0.1-0.5,0.4-0.9,0.6-1.3l0-0.1l0.2-0.4l0.1-0.2
		c0.2-0.5,0.5-1.1,0.7-1.6l0-0.1l0.6-1l0.1-0.4l0.6-1.2l0.3-0.5l0,0l0-0.2l0.1-0.1l0-0.1l0.3-0.6l0.1-0.4l0.1-0.4l0.1-0.2l0.1-0.2
		l0.2,0l0.1-0.2l-0.1,0l0-0.1l0.1-0.2l0.2,0l0-0.1l0-0.1l0-0.1l0-0.1l0.1-0.2l0-0.1l0.1,0l0.1-0.1l0-0.1l0.1,0l0,0l0.2-0.3l0.3-0.1
		l0.1-0.1l0,0.1l0-0.1l0.3-0.3l0.1-0.2l0-0.1l0-0.1l0.1,0l0.1,0.1l0.3-0.2l0.2-0.1l0.3,0.2l0.3,0.3L60.3,31l-0.9,0.5l0,0.1L59.2,32
		L59,32.4l-0.1,0.3l-0.7,0.4L58,33.6l0.1,0.1l-0.2,0l-0.1,0l-0.3,1c-0.7,1.3-1.7,3.3-2.4,4.7c-0.3,1.1-0.8,1.5-1.2,2.5
		c-0.9,1.7-1.3,3.6-2.2,5.3l-0.2,0.4c-0.1,0.4-0.2,0.8-0.4,1.2l-0.1,0.3l-0.3,0.6l-0.4,1.4l0,0.2l0,0.1l-0.1,0.1l-0.1,0L50.1,52
		l0.1,0l0.2-0.1c1-0.5,2-1.1,2.6-1.3l0.4-0.1c0.5-0.2,1.3-0.4,2.2-0.7c0.2-0.1,0.5-0.2,0.8-0.3c0.2-0.1,0.5-0.1,0.7-0.2
		c0.4,0,1.2-0.3,1.8-0.5c0.2-0.1,1-0.2,1.1-0.1l0.1,0l0.1,0.1L60,48.9l-1,0.2l0,0l-1.1,0.3l-0.2,0.1l0,0c-0.4,0.1-0.7,0.2-1.1,0.4
		l0,0c-0.3,0.1-0.5,0.1-0.7,0.3l-0.1,0.1l-0.3,0.1c-0.4,0.1-1.7,0.6-2.1,0.7l-0.1,0.2l-0.1,0l-0.2,0l-0.1,0l-0.1,0.2l-0.1,0
		c-0.6,0.2-1.2,0.5-1.8,0.9l-0.5,0.3l-0.6,0.3l-0.2,0c-0.1,0.2-0.2,0.3-0.2,0.4L48.8,55.6z M50.1,68.9l0.1-0.4l0.1-0.4l0-0.1l0,0
		l0.1-0.5l0-0.1l0.1-0.9l0-0.4l0-0.6l0-0.4l-0.1-0.5l0-0.4l0-0.3l0-0.6c-0.1-0.7-0.3-1.4-0.5-2.1l0,0L49.9,61l-0.1-0.4l-0.2-0.3
		l-0.1-0.1l-0.4-0.5L49,59.5l-0.1-0.1l-0.2-0.2c-0.3-0.3-0.6-0.4-0.9-0.7l0,0L47.6,59l0,0.1l0,0l-0.1,0.2l0,0.2l-0.2,0.3l-0.1,0.3
		L47,60.7L47,60.8l-0.5,1.5c-0.3,0.8-0.8,1.3-1.1,2.2c-0.2,0.6-0.4,1.2-0.5,1.8l0,0.2l-0.1,0.3c0,0,0,0.1,0,0.1l0,0.4l-0.2,0.5
		L44,69.2l-0.2,0.9l-0.2,0.5c0,0.1-0.1,0.3-0.1,0.5l0,0.1l-0.1,0.2L43,72.8l0,0.3l-0.2,0.3l-0.1,0.5l-0.1,0.4l-0.3,0.9l-0.3,1.2
		l-0.1,0.5l-0.2,0.5c-0.1,0.4-0.2,0.7-0.3,1.1L40.9,81l-0.1,0.8l-0.1,0.3c-0.5,1.9-0.2,4.2-0.2,6.1l0,0l0.1,0.1l0.1,0.4l0.1,0.1
		l0.5-0.5l1.4-2.1l0.1-0.1l0.2-0.3l0.6-1.5l0.3-0.5l0.2-0.4l0.9-1.6l0.8-1.4l0.4-0.6l0.5-1.1l0.3-0.3l0.5-0.9l0.1-0.3l0,0l0,0
		l0.6-1.3l0.3-1l0.3-0.3l0.4-1.1l0-0.1l0-0.1L49,73l0-0.1l0,0l0,0l0-0.1l0.1-0.2c0.1-0.4,0.3-0.9,0.4-1.3l0.2-0.6l0-0.1l0.1,0l0-0.1
		l0.1-0.3l0-0.1l0.2-0.9L50.1,68.9z M47.7,53.9l-0.6,0.2l-0.3,0.3l-0.3,0.1l-0.2,0.1L46,54.8L45.7,55l-0.2,0.1l-0.3,0.1l0.1,0.2
		c0.7,0.1,0,0.4,0.5,0.6l0,0L46,56l0,0.1c0.3,0.1,0.5,0.3,0.6,0.4l0.1,0.1l0.2,0.1l0.2,0.1l0.1,0.1l0.2,0.3l0.2,0.1l0,0l0.4-1.1
		l0-0.4l0.3-0.6l0.6-1.6l0.1-0.3l0-0.1l-0.2,0.2l-0.2,0c-0.1,0.1-0.1,0.1-0.2,0.1L47.7,53.9z"/>
	<path class="st0" d="M56.3,55.1l0,0.2l-0.1,0.2l-0.1,0.1c0,0,0,0,0,0.1l0,0.1L56,56l0.1,0.8c0,0,0,0.5,0.2,0.6
		c0.2,0.2,0.1,0.2,1,0.3l0.6,0l0.4-0.1l0.5-0.2l2.2-1l0.4-0.3l1.1-0.7l0.2-0.2l0.1-0.1l0.1,0l1.7-1.2l0.1,0l0.2-0.2l0.3-0.1l0.9-0.6
		l0.1-0.1c1-0.7,1.4-1.1,2.4-1.9l0.6-0.4l0-0.1l0.2-0.1l0.5-0.3l0.5-0.4l0-0.1l0.1,0l0.3-0.3l0-0.1l1.5-1.4l0.1-0.1
		c0.2-0.2,0.4-0.4,0.6-0.6c0-0.1,0.1-0.1,0.2,0l0,0l0.1-0.1l0.1,0l0.2,0.3l-0.1,0.1l-0.3,0.2l-0.1,0.1l-0.6,0.7l-0.1,0.3l-0.2,0
		l-0.1,0.1c-0.2,0.3-0.5,0.5-0.8,0.7l0,0l-0.2,0.2l-0.1,0.1l-0.1,0l-0.9,0.7l0,0.1l-0.1,0.1l-0.2,0.2l-0.1,0l-0.4,0.4L68.2,52
		c-0.3,0.3-0.7,0.6-1,0.8l-0.1,0.1L65.8,54l-0.1,0.1L65.6,54l-0.3,0.3l-0.4,0.1l-0.2,0.2l0,0c-0.4,0.3-0.7,0.5-1.1,0.8l-0.4,0.4
		l-0.9,0.7L62,56.6l-0.4,0.1l-0.5,0.3l-0.3,0.1l-0.1,0.1l-0.1,0.1l-0.4,0.2l-0.1,0c-0.3,0.2-0.8,0.4-1.2,0.6L59,58.3l-0.1,0.1l0,0
		l-0.6,0.3l-0.2,0l-0.3,0.2l-0.8,0l-0.8-0.2l-0.4-0.4l-0.2-0.4l-0.2-0.4l-0.1-0.5l0-0.1l0-0.1l0-0.2l0-0.8l0.1-0.4l0.1-0.6l0.1-0.4
		l0-0.1l0-0.3l0.2-0.2l0-0.2l0.1-0.3l0.1-0.1l0.3-0.2l0.1-0.2l0.2-0.1l0.2-0.2l0.1,0l0.2-0.4l0.2-0.3l0.1-0.4l0.1-0.2l0.1-0.2
		l0.1-0.1l0.2-0.1l0-0.1l0.1-0.2l0.2-0.2l0.1-0.1c0.6-0.7,1.2-1.4,1.8-2l0-0.1l0.3-0.3l0.4-0.2c0,0,0.1,0,0.1,0l0.3-0.3l0.2-0.2
		l0.1-0.1l0.4-0.2c0.3-0.2,0.6-0.4,1-0.6l0.2-0.2l0.3-0.1l0.2-0.1l0.1,0c0.3-0.1,0.5-0.1,0.7-0.1l0,0l0.1-0.1l0.1,0l0.1-0.1l0,0
		l0.2,0l0,0l0,0l0,0.1l0.1,0l0.1,0l0,0.1l0,0l0.2,0.1l0,0c0.2,0.1,0.3,0.2,0.4,0.3l0.1,0l0,0.1l0,0l0,0l0,0.2l0.1,0.1l0,0.2l0,0.1
		l0,0.2l0,0.5L66,47.9l-0.2,0.4l-0.3,0.3l-0.2,0.3l-1,0.8l-0.1,0.2L64,49.9c-0.6,0.7-1.3,1.3-2,1.9l0,0.1l-0.8,0.6l-0.3,0.4
		l-0.7,0.5l-0.5,0.4l-0.8,0.4l-0.5,0.1l-0.2,0l-0.2-0.1l-0.1-0.1l0-0.1l0.1-0.5l0.3-0.5l0.4-0.2l0.3-0.1l0.2,0l0.3,0l0.4-0.1
		l0.4-0.1l0.4-0.2l0.1,0l0-0.1l0.8-0.5l0.8-0.6l0.4-0.3l0.1-0.2l0.4-0.2l0-0.1l0.4-0.3l0.1-0.2l0.3-0.4l1.1-1.5l0.1-0.2l0-0.2l0-0.1
		l0-0.5l0,0l0-0.1l-0.1-0.1l-0.2-0.2l-0.2,0l-0.2,0l-0.3,0.1l-0.2,0.1l-0.1,0c-0.8,0.4-1.6,1.1-2.1,1.4l-0.3,0.3l-0.1,0.1l-0.1,0.2
		l-0.1,0c0,0,0,0-0.1,0l0,0.1l-0.2,0.1l0,0.1l-0.1,0l-0.6,0.5l-0.3,0.4l-0.2,0.3L59.3,50l-0.1,0.1c-0.2,0.3-0.4,0.5-0.7,0.8
		l-0.1,0.2l-0.3,0.5L58,51.9l-0.3,0.4l-0.3,0.5L57,53.4L57,53.5l-0.1,0.3l-0.1,0.4l-0.2,0.4L56.3,55.1z"/>
	<path class="st0" d="M82.9,47.2c-0.3,0.4-0.6,0.8-0.9,1.1l0,0.1l-0.2,0.2l-0.1,0.3l-0.1,0.2l-0.1,0.1l0,0.1l-0.1,0.1l0,0.1l-0.1,0
		l-0.4,0.7l0,0.1l0,0.1l-0.1,0.3l-0.1,0.1L80.6,51c-0.1,0.3,0,0.5,0.1,0.7l0.1,0.1l0.2,0.1l0.2,0l0,0c0.3,0,0.6-0.1,1-0.2l0.4-0.2
		l0.2-0.1l0.4-0.1l0.5-0.2l0.3-0.1l0.3-0.2l0.1,0l0.8-0.4l0.1,0l0.5-0.3l0.2-0.1l0.3-0.2l0.2-0.2l0.7-0.3l0.2-0.2l0.1-0.2l0.6-0.3
		c0.7-0.4,1.3-0.8,1.9-1.1l0.9-0.6l0.1,0l0.2-0.1l0.2-0.1l0.8-0.5l0.4-0.1c0.3-0.2,0.7-0.4,1.1-0.7l0.8-0.6l0-0.1l0.1,0
		c0.1,0,0.1-0.1,0.2-0.1l0.2-0.1l0-0.1l1.2-0.8c0.4-0.3,0.9-0.7,1.3-1.1l0.1-0.1l0.1-0.1l0.2,0l0.1,0.1l-0.1,0.1l-0.3,0.4l-0.3,0.2
		c-1.1,1-1.6,1.5-2.2,1.9l0,0.1l0,0.1l-0.2,0.1L94,45.4l-0.3,0.2l-0.1,0l-0.3,0.2l-0.7,0.5l0,0l-0.1,0L91.7,47l-0.5,0.3l0,0
		l-0.1,0.1L91,47.5l-0.3,0.2l-0.1,0.1l-0.1,0.1l-0.2,0.1l-0.3,0.2L89,48.7l-0.3,0.2l-0.1,0l-1,0.7l-1.3,0.8l-1,0.6l-0.7,0.5
		l-0.8,0.6l-0.5,0.3l-0.7,0.2l-0.2,0l-0.1,0.1l-0.6,0l-0.6-0.1l-0.1,0l-0.5,0l-0.2-0.1l0-0.2l-0.1-0.1L80.1,52l0-0.2
		c0-0.2-0.1-0.3-0.1-0.5l-0.1,0l0-0.1l0-0.1l0.1-0.1l0-0.2l0,0l0,0l0.1,0l0-0.1l0-0.1l0,0l0,0l0-0.2l0.2-0.3l0-0.1l0.1,0l0,0
		l0.1-0.2l0,0l0.1-0.1l0.1,0l0.2-0.4l0-0.1l0.2-0.3l0.1-0.3l0.1-0.1l0.2-0.3l0.2-0.1l0-0.1l0.1-0.2l0.1-0.2l0.2-0.1
		c0.2-0.2,0.4-0.5,0.6-0.7l0-0.1l0.1,0l0.2-0.3l0.1-0.1c0.1-0.1,0.2-0.2,0.3-0.3l0.1-0.2l0.2-0.1l0.1-0.1l0,0l1.3-1.3l0.2-0.2
		l0.6-0.5l0.2-0.2l0.7-0.6l0.1,0l0.8-0.6l0.2-0.2l0.2-0.2l0.2-0.3l0.1-0.1l0.4-0.1l0.1-0.2l0.1-0.1l0-0.1l0-0.1l0.1-0.1l0-0.1l0,0
		l0.1-0.1l0,0l0-0.1l0,0.1l0.1,0l0.1-0.1l0.1,0l0.2-0.1l0.4-0.1l0,0.1l0.3-0.3l0.5-0.1l0.1,0.1c0.1,0,0.1,0,0.1,0l0.2,0.2l0,0.2
		l0.2,0.1l0.1,0.2l0,0.2l-0.2,0.3l-0.3,0.3l-0.1,0l-0.5,0l-0.5-0.2L90,41.3l0,0.3l-0.2,0.2l-0.3-0.1l-0.1-0.1L89,41.8l-0.8,0.7
		l-0.4,0.2L87.6,43L87.4,43l-0.6,0.6l-0.2,0l-0.1,0.2l-0.2,0l-0.3,0.2l-0.5,0.5l-0.1,0.1l-0.1,0L84.8,45l-0.1,0.1l-0.3,0.3l-0.1,0.3
		l-0.2,0.2L83.9,46c0,0,0,0.1,0,0.1l-0.3,0.4l-0.3,0.3L83.1,47L82.9,47.2z"/>
	<path class="st0" d="M107.4,44l0.1,0.2l-0.1,0.2l0,0l0,0.2l0,0.1l-0.1,0.2c0,0.1,0,0.3,0.1,0.4l0.1,0.2l0.1,0.1l0.2,0.1l0.2,0.1
		l0.2,0c0.1,0,0.2-0.1,0.3-0.1l0.2-0.2l0-0.1l0.1,0l1-0.9l0.1-0.1l0.1-0.1l1-1c0,0,0.1,0,0.1-0.1l0.5-0.6l0.1-0.1l0.1,0l0.2-0.2
		l0.3-0.3l0.4-0.5l0.1-0.1l0.3-0.3l0,0l0.4-0.6c0,0,0.1,0,0.1-0.1l0-0.1l0.1-0.1l0.2,0.1l0,0.1l-0.1,0.1l-0.2,0.2l-0.4,0.4l-0.1,0.2
		l-0.3,0.4c-0.2,0.4-0.6,0.8-0.9,1.1l-0.2,0.3l-0.1,0l-0.1,0.2l-0.1,0.1l-0.1,0l-0.1,0.2l-0.2,0.2l-0.1,0.1l-0.2,0.2l-0.1,0.1
		l-0.3,0.3l-0.1,0.2l-0.2,0.1l-0.2,0.1l0,0.1l-0.3,0.2l-0.4,0.5l-0.1,0.1l-0.2,0.2l-0.1,0.1l-0.1,0l-0.1,0.1l-0.2,0.2l-0.2,0.1
		l-0.3,0.1c-0.2,0.1-0.3,0.2-0.4,0.2c-0.1,0-0.2,0-0.3,0l-0.2,0.1L107,47l-0.1-0.1c0,0,0,0,0,0l-0.2-0.2l0,0l-0.2-0.2l-0.1-0.6
		l-0.1-0.6l0-0.2l-0.1-0.2l0-0.1l0.2-0.1l0-0.1l0.1-0.2l0-0.1l0.1-0.3l0-0.1l0-0.1l0-0.4l0.1-0.5c0-0.5,0.1-1.1,0.2-1.6l0-0.5
		c0.1-0.4,0.2-0.7,0.1-1.2l0-0.1l0-0.2l-0.2-0.1c-0.2,0-0.5,0.2-0.8,0.4l-0.4,0.4l-0.2,0.1l-0.3,0.3l-0.2,0.2l0,0.1l-0.2,0.2
		l-0.2,0.2l-0.5,0.4l-0.1,0.1c-0.1,0.1-0.2,0.2-0.3,0.3l-0.1,0.1l-1.5,1.3l-0.1,0.3l-0.2,0l-0.1,0.2l-0.1,0.2l-0.2,0.3l-0.3,0.1
		l-0.4,0.6l-0.8,1.1L99.3,47l-0.6,0.7l-0.1,0.1L98.3,48l-0.1,0.2l0,0.1l-0.2,0l-0.4,0.4l-0.3,0.3L97,49.1l-0.6,0.2l-0.1,0.2
		l-0.2,0.1l-0.2-0.1L95.8,49l0-0.4l0-0.5l0-0.2l0.2-0.5l0.1-0.3l0.1-0.5l0-0.1l0.1-0.2l0-0.3l0-0.3l0-0.4l0.2-0.5l0-0.5l0-0.2
		l0.1-0.3l0.1-0.4l0.1-0.2l0.1-0.2l0.4-0.7l0.1-0.6l0-0.1l0,0l0-0.1l0.1-0.1l0.3-0.6l0-0.1l0-0.1l0,0l0.3-0.8l0.1-0.2l0.1-0.2
		l0.1-0.4l0.1-0.3l0.1-0.2l0.3-0.4c0.1-0.3,0.2-0.6,0.3-0.9l0.3-1.1l0.2-0.2c0.4-0.9,0.8-1.9,1.2-2.8l0.1-0.1l0-0.1l0.1-0.3l0.2-0.3
		l0.1-0.4l0.1-0.2l0-0.2l0.1-0.1l0.2-0.3l0.1-0.3l0.1-0.2l0.1-0.6l0.1-0.3l0.1-0.3l0.2-0.3l0.2-0.6l0-0.1l0-0.2l0.1-0.1l0-0.1
		l0.1-0.3l0,0l0,0l0.1-0.2l0.1-0.1l0.1,0l0-0.1l0.1-0.4l0.2-0.3l0.1-0.2l0.1,0l0,0.1l0,0l0,0l0-0.2l0-0.1l0.2-0.2l0.1-0.2l0.1-0.1
		l0-0.1l0.3-0.6l0.1-0.3l0.1-0.3l0-0.1l0-0.2l0.1-0.1l-0.1-0.2l0-0.1l0.2-0.1l0.3-0.4l0.1-0.3l0.4-0.5l0.1-0.3l0.1-0.2l0-0.1
		l0.1-0.1l0.1,0.2l0.2-0.3l0.2-0.2l0.3,0.2l0.2,0.4l-0.2,1.3l-0.5,1.2l-0.2,0.4l-0.5,0.8l-0.3,0.3l-0.9,2.2l0,0l-0.1,0.3l-0.1,0.4
		l-0.1,0.3l-0.1,0.2l-0.2,0.3l-0.8,1.9l0,0.1l-0.2,0.5l-0.1,0.2l-0.1,0.2l-0.1,0.3l-0.2,0.5l-0.6,1l0,0.2l-0.4,0.6l-0.2,0.4l0,0.2
		l-0.3,0.7l-0.2,0.6l-0.2,0.3l-1,2.5c-0.2,0.5-0.4,1-0.6,1.5l0,0.1l0,0.1L98.3,41c-0.2,0.5-0.4,1.1-0.6,1.6l0,0.1l-0.1,0l-0.2,0.6
		l0.1,0.3l-0.2,0.7l-0.1,0.6l-0.2,0.9L97,46.5l0,0.3l-0.1,0.5l0,0.5l0.2,0.2l0.1,0l0.2,0l0.4-0.3l0.1-0.2l0.1,0l0.1-0.1l0.2-0.1
		l0.1-0.2l0.2-0.2l0.1-0.2l0.3-0.3l0.1-0.1l0.2-0.2l0.8-0.8l0.2-0.3l0.1-0.1l0.1-0.2l0.1-0.1l0.4-0.3l0.9-1l0-0.1l0.2-0.3l0.4-0.4
		l0.3-0.3l0.1-0.1c0.3-0.3,0.6-0.6,0.9-0.9l0.3-0.5l0.2-0.2l0.1-0.1l0.1-0.1l0.1-0.1l0.2-0.2l0.3-0.1l0.7-0.4l0.1,0
		c0.5-0.3,1-0.4,1.7-0.3c0.1,0,0.1,0,0.2,0.1l0.2,0.1l0.3,0.1l0.1,0.2l0,0.3l-0.1,0.5l0,0c-0.1,0.5-0.2,1.1-0.3,1.6
		c0,0.4-0.1,0.7-0.2,1.1l0.1,0.3l-0.2,0.5L107.4,44z"/>
	<path class="st0" d="M122.6,40L122.6,40l0.1-0.2l0.4-0.8l0.1-0.3l0.1-0.1l0-0.1l0.1-0.1l0.3-0.5l0.1-0.2l0-0.1l0,0l0-0.3l0,0
		l-0.2,0l-0.3,0.1l-0.4,0.2l-0.8,0.6l-0.2,0.1l-0.1,0.1l-0.8,0.8l0,0l-0.2,0.2l-0.2,0.1l-0.2,0.2l-0.6,0.5l-0.6,0.6l-0.3,0.2
		l-0.4,0.4l-0.1,0.1l-0.3,0.3l-0.2,0.1l-0.5,0.5l-0.2,0.2l-0.2,0.2l-0.3,0.2l-0.3,0.2l-0.7,0.6l0,0.1l-0.3,0.3l-0.1,0l0,0l-0.3,0.1
		l-0.3,0.2l-0.3,0.1c-0.1,0.1-0.2,0.1-0.3,0.2l-0.1,0.1l-0.6,0.4l-0.1,0.1l-0.4,0.3l-0.1,0l-0.1,0.1l-0.1,0l-0.2,0l0,0
		c-0.5,0.2-0.9,0.2-1.1-0.1c-0.2-0.4-0.2-0.9-0.1-1.4l0-0.4l0.1-0.1l0-0.1l0.1-0.2l0-0.1l0.1,0l0,0l0-0.2l0.1-0.4l0.3-0.3l0-0.1
		l0.2-0.5l0.1-0.2l0.2-0.2l0.3-0.4l1.1-1.6l0,0l0,0l0.3-0.4l0.1-0.1l0.4-0.6l0.2-0.2l0.7-0.8l0,0l0.3-0.5l0.1-0.2l0.1-0.2l0.1,0
		l0.2,0l0.1-0.1l0.2-0.1l0.1-0.1l0.1-0.1l0.1-0.1l0-0.1l0.2-0.2l0.9-0.7l0.2-0.2l0.1-0.1l0.2-0.1l0.1,0l0.1,0l0.3-0.2l0.1,0l0.1-0.1
		l0.2-0.1l0.2-0.1l0.2-0.1l0.1-0.1l0.3,0l0.2-0.1l0.2,0l0.1,0l0.1,0l0,0l0.1,0l0.1,0l0,0.1l0.1,0l0.1,0.1l0.1,0.3l-0.1,0.1
		c0,0.1-0.1,0.2-0.3,0.5c-0.1,0.1-0.2,0.1-0.2,0.1l-0.3,0.2l-0.2,0.1l-0.6,0.1l-0.5,0.1l0,0l-0.1,0l0,0l-0.1,0l-0.2,0.1l-0.2,0
		l-0.4,0.3l-0.5,0.3l-0.6,0.5l-0.5,0.3c-0.2,0.1-0.3,0.3-0.5,0.5c0,0,0,0,0,0l-0.2,0.3l0,0l-0.1,0l-1.2,1.4l-0.1,0.2l-0.2,0.4
		l-0.2,0.3l-0.2,0.2L114,40l-0.1,0.1l-0.2,0.4l0,0.1l0,0.1l-0.3,0.6l-0.1,0.1l0,0.1l-0.1,0.1l0,0.1l-0.1,0.1l-0.1,0l0,0.2l-0.1,0.2
		l0,0.1l-0.1,0.2l-0.1,0.2l-0.2,0.4l0,0.1l0.1,0.2l0,0.1l0,0.1l0,0.1l-0.1,0.1l-0.1,0.1l-0.1,0.2l-0.1,0.2l0,0.1l0,0.1l0,0.2
		l0.1,0.1l0.1,0.1l0.1,0l0.6-0.4l0.3-0.1l0.4-0.3l0,0l0.1-0.1c0.4-0.2,0.7-0.5,1.1-0.8l0.1-0.1l0.2-0.2l0.1-0.2l0.3-0.1
		c0.3-0.2,0.6-0.5,1-0.7l0.1-0.2l0.2-0.1l0,0l0.1,0l0.1-0.1l0.1-0.1l0.4-0.3l0.2-0.2l0.2-0.2l0.7-0.6l0.2-0.2l0.8-0.6l0.2-0.1
		l0.5-0.4l0.2-0.3l0.5-0.4l0.1-0.2l0.2-0.2l0.1-0.2l0.3-0.3l0.3-0.3l0.9-0.4l0.4-0.1l0.3,0l0.2,0.1l0.1,0.1c0.1,0,0.2,0.1,0.3,0.2
		l0,0l0.1,0l0,0.1l0,0.1l0.1,0l0,0.1l0,0l0,0.1l0,0.1l0,0.1l-0.2,0.2c0,0.1-0.1,0.1-0.1,0.2l-0.1,0.4l-0.2,0.2l-0.1,0.1l-0.3,0.5
		l0,0.1l0,0l-0.1,0l-0.1,0.3l0,0.1l0,0.1l-0.2,0.4c0,0.1-0.1,0.2-0.1,0.2l0,0.3l0,0c0,0.1,0,0.3,0,0.3c0,0.1,0,0,0.1,0
		c0,0,0.1,0,0.1,0l0.1-0.1l0.2,0l0.1,0l0.2-0.1l0.1-0.1l0.1,0c0.2-0.1,0.4-0.2,0.7-0.3l0.2-0.1l0.2-0.1l0.2,0l1-0.6l0.1-0.1l0.3-0.2
		l0,0l0.4-0.2l0.2-0.2l0.1-0.1l0.1-0.1l1-0.5l0-0.1l0.1,0l0.3-0.2l0.1-0.1l1.4-0.8l0.2,0l0.7-0.4c0,0,0.1,0,0.1,0l0.1,0l0.1,0.2
		l-0.1,0.1l-0.3,0.1l-0.5,0.2l-0.3,0.3l-0.1,0l-0.5,0.2l-0.2,0.2l-0.6,0.5l-0.5,0.3l-0.6,0.3l-0.6,0.4l-0.1,0.1l-0.3,0.2l-0.1,0.1
		l-0.2,0.2l0,0l-0.2,0.1l-0.2,0.2l-0.1,0.1l0,0.1l-0.7,0.5l0,0.1l0,0l-0.2,0.2l0,0.1l-0.5,0.3l-0.4,0.3l-0.1,0.2l0,0l0-0.1l-0.1,0.1
		l0,0.1l-0.1,0l0,0l-0.2,0.1l-0.3,0.1l-0.1,0l-0.2,0l-0.2,0l-0.1,0l-0.1-0.1l0-0.2l-0.1-0.1c-0.1-0.1-0.1-0.2-0.1-0.4l0-0.2l0-0.1
		l0.2-0.3l0.1-0.2l0.2-0.4L122.6,40z"/>
	<path class="st0" d="M131.1,37.5l0.1-0.2l0,0l0.1-0.4l0.1-0.4l0.2-0.6l0.1-0.2l0.4-1.1l0.1-0.3l0.1-0.1l0.2-0.7l0.2-0.6l0.2-0.5
		l0-0.4l0-0.2l-0.1,0l0-0.1l0-0.1l-0.2-0.5l-0.1-0.6l0-0.2l0.1-0.8l0.5-0.5l0.3-0.1l0.4,0.1l0.1,0.2l0.1,0.3l0.1-0.1l0,0.1l-0.1,0
		l0,0.1l0,0.2c0,0,0,0.1,0.1,0.1c0,0.4-0.1,0.8-0.2,1.2l0,0.9l-0.2,0.4l-0.2,0.2l-0.2,0.5l-0.1,0.4l-0.1,0.3l-0.1,0.3l-0.2,0.2
		l0,0.1l0,0.2l0,0.1l-0.1,0.1l-0.4,1.1l0,0.3l-0.3,0.6l-0.1,0.5l-0.4,1.2l-0.1,0.3l-0.2,0.6l0,0l0,0.2l-0.1,0l-0.1,0.2L131,40
		c0.1-0.2,0.2-0.3,0.3-0.5l0.1-0.1l0,0l0.1-0.2l0.2-0.2l0.1-0.1l0.1-0.3l0.2-0.2l0.2-0.3l0.1-0.1c0.3-0.5,0.6-1,1-1.4l0.1-0.2l0-0.1
		l0.2-0.3l0.2-0.2l0.4-0.5l0.1-0.1l0.6-0.6l0.1-0.1c0.3-0.2,0.5-0.4,0.7-0.6c0.2-0.1,0.6-0.4,1-0.5l0,0l0.6-0.1l0.3,0.2l0.4,0.2
		l0.2,0.5l0,0.2l0,0.3l0,0.4l0,0.2l0.1,0.3l0,0.8l0,0.1l0.3,0.2l0.2,0.4l0.1,0l0,0.1l0,0.2l0.1,0.3l0.2,0.2l0.2,0.1l0.3,0.2
		c0.4-0.1,1-0.3,1.5-0.5l0.6-0.4l0.2-0.1l0.4-0.2l0.2-0.1l0.5-0.4l0.4-0.4l0.3-0.1l0.3-0.2l0.5-0.3c0.3-0.2,0.7-0.5,1-0.8l0.3-0.3
		l0.1-0.1l0.7-0.5l0.2-0.2l0.2-0.3l0.2-0.3l0.8-0.6l0.9-0.9l0.1-0.2l0.4-0.4l0.1,0l0-0.1l0.1,0l0.2-0.3l0-0.1l0.2,0l0.1,0.1l0,0.1
		l-0.1,0.1l-0.1,0.1c-0.4,0.4-0.9,0.9-1.3,1.3l-0.2,0.3l-0.2,0.1l-0.2,0.2l-0.1,0l-0.3,0.3l0,0.1l-0.1,0.1c0,0-0.1,0-0.1,0.1l0,0.1
		l-0.1,0.1l0,0c-0.3,0.3-0.6,0.5-0.9,0.8l-0.4,0.4l-1.2,1l-0.1,0.1l0,0l-0.3,0.4l-0.3,0.3l-0.4,0.2l-0.4,0.4l-0.2,0.1l-0.3,0.1
		l-0.4,0.1l-0.2,0.1l-0.1,0.1l-0.1,0.1l-0.1,0.1c-0.2,0.1-0.5,0.2-0.7,0.3l-0.4,0.1l-0.1,0.1l-0.1,0.1l-0.3,0l-0.2,0.1l-0.3,0
		l-0.1,0c-0.4,0.1-0.8-0.1-1.1-0.2c-0.2-0.1-0.4-0.1-0.5-0.3l-0.1-0.1c-0.1-0.1-0.1-0.3-0.1-0.5l-0.1-0.3l0-0.4l0-0.6l0,0l0-0.1
		l0.1-1.2l0,0l-0.1,0l0.1-0.2c0-0.5-0.2-0.8-0.7-0.8c-0.2,0-0.3-0.1-0.5,0.1l-0.3,0.2l-0.2,0.2c0,0,0,0-0.1,0l-0.6,0.6l0,0.1
		l-0.1,0.1l-0.4,0.6l-0.2,0.2l0,0.2l-0.8,0.9l-0.1,0.1l-0.2,0.2l-0.1,0.1l-0.1,0.3l-0.2,0.2l-0.1,0.1l-0.2,0.2l-0.2,0.2l-0.1,0.1
		l-0.1,0.3l-0.3,0.3l-0.2,0.3c-0.4,0.6-0.7,1.1-1.1,1.7l-0.1,0.2l0,0l-0.2,0.3c0,0,0,0-0.1,0l0,0.1l-0.1,0.1l0,0.1l0,0.1l-0.1-0.1
		l-0.1,0.1l-0.1,0.1l-0.3,0l-0.2-0.3l-0.1-0.6l0.1-0.6l0.1-0.2l0.2-0.4l0.3-0.3l0-0.1l0,0l0.1,0l0-0.1l0.1-0.1l0.1-0.3l0.1-0.4
		l0.1-0.2l0-0.2l0.3-0.8L131.1,37.5z"/>
	<path class="st0" d="M135.6,69.8L135.6,69.8l0-0.3l0-0.1l-0.1-0.4l0.1-0.4l-0.1-0.4l0-0.5l0-0.3l0.3-0.5l0,0c0,0,0-0.1,0-0.1l0-0.2
		l0.1-0.2c0.1-0.7,0.3-1.5,0.5-2.2l0-0.3l0.1-0.2l0-0.4l0.1-0.2l0.1-0.3l0-0.2l0-0.2l0.2-0.4l0.4-0.5l0.7-1.8l0.9-1.8
		c0.1-0.2,0.2-0.4,0.3-0.7l0-0.1l0.1-0.4l0.3-0.4l0.1-0.5l0.3-0.5l0.3-0.3l0.1-0.2l0.1-0.2l0.1-0.2c0.3-0.5,0.7-1.2,1-2l0.2-0.3
		l0-0.3l0.3-0.3l0,0l0.2-0.3l0.6-1l0.1-0.3l0.1-0.2l0.2-0.4l0.3-0.4l0.2-0.2l0.2-0.3l0.4-0.5l0.7-1l0-0.2l0-0.1l0.1,0l0.1-0.1
		c0.6-0.8,1.1-1.5,1.6-2.2l0-0.1l0.1-0.2l0.1-0.1l0.2-0.2c0.1-0.1,0.2-0.2,0.2-0.3l1.3-1.4l0-0.2l0-0.1l0.2,0l0.3-0.3l0.3-0.5
		l0.7-0.7l0,0c0.6-0.7,1.3-1.4,1.9-2.1l0.1-0.2l0.3-0.2l1.6-1.6l0.2-0.3l0,0l0.1-0.1l0-0.2l0.1-0.1l0.3,0l0.1-0.1l0.2-0.4l0.2-0.2
		l0.3-0.2l0.3-0.2l0.3-0.2l0,0l0.5-1.1l0,0c0.1-0.2,0.1-0.5,0.2-0.8l0.3-1.2l0-0.1l0.1-0.5l0.2-0.9l0,0l0.1-0.7l0.1-0.8l0-0.1
		l-0.1-0.1l0,0l-0.1,0l-0.1,0l-0.2,0l-0.3,0.2l-0.2,0l0,0.1l-0.1,0l-0.1,0.1l0,0.1l-0.1,0.1l-0.2,0.2l-0.1,0l-0.1,0.1l-0.8,0.8
		l0,0.1l-0.1,0l-0.9,0.9l-0.1,0.1l-0.2,0.1l-0.2,0.1l-0.6,0.6l-0.3,0.4l-0.9,0.6l0,0.1l-0.1,0.1l-0.2,0.1l-0.2,0.2l0,0l-0.1,0.1
		l-0.9,0.8l-0.2,0.3l-0.2,0.2l-0.1,0.1l0,0.2l-0.1,0l-0.2,0.1l-0.2,0.1l-0.5,0.2l-0.1,0.1c-0.6,0.4-1.2,0.7-1.6,0.8
		c-0.1,0-0.2,0-0.2-0.1l-0.2-0.2l-0.2-0.2l0-0.2l0-0.2l0-0.5L147,35l0-0.1l0.1-0.3c0,0,0-0.1,0-0.1c0-0.1,0.1-0.1,0.1-0.2l0,0
		l0.3-0.6l0.2-0.2l0.5-0.7l0.1-0.1l0.1-0.1l0.2-0.4l0,0l0.2-0.2l0-0.1l0.2-0.3l0.2-0.5l0.2-0.2l0.1,0l0.2-0.2l0.1-0.2l0.2-0.3l0,0
		l0.1-0.1l0.1,0l0-0.1l0.1,0c0.3-0.4,0.4-0.4,0.7-0.8l0.1-0.2l0.6-0.6l0.1-0.1l0.1-0.1l0.3-0.3l0.1-0.1l0.6-0.6l0.2-0.2l0.2-0.3
		l0.2-0.2l0.2-0.1l0.5-0.2c0.8-0.6,1.6-1.2,1.9-1.2c0.1,0,0.4,0,0.5,0c0.1,0.1,0.3,0.3,0.4,0.4c0.1,0,0.3,0.9,0.3,1l0,0.1l0,0.2
		l-0.1,0.3l-0.1,0.2l0.2-0.2l0.8-0.4l0.4-0.2l0.2-0.1l0.2,0l0.1,0.1l0,0.2l0,0.5l-0.1,0.4l-0.1,0.2l-0.1,0.2l-0.2,0.7l-0.3,0.7
		l-0.3,1.5l0,0.3l0,0.4l-0.2,0.4l0,0.5l-0.1,0.2l-0.1,0.3l0,0l1.7-1.3l0.3-0.3l0.2-0.1l0.6-0.3l0.8-0.6c0.3-0.2,0.6-0.4,1-0.7
		l0.2-0.2l0.2,0l0-0.1l0.8-0.3l0.1,0c0,0,0.1,0,0.1-0.1l0.1,0l0,0l0.4-0.2l0.1-0.1l0,0c0,0,0.1,0,0.1-0.1l0,0l0.1-0.1l0.2-0.1
		l0.1-0.1l0.2-0.1l0.3-0.2l0.5-0.2l0.5-0.3c0.1,0,0.1,0,0.1,0l0.1-0.1l0.1,0l0.1,0.1l0.1,0.2l-0.1,0.1l-0.1,0.1l-0.2,0l-0.1,0.1l0,0
		l-0.1,0.1l-0.4,0.2l-0.1,0l-0.4,0.1l-1,0.5l-0.2,0.2l-0.3,0.1l-0.3,0.1l-0.6,0.3l-0.2,0.1l-0.7,0.5l-0.2,0.2l-0.6,0.3l-0.4,0.3
		l-0.6,0.3c-0.6,0.4-0.9,0.7-1.4,1.1l-0.2,0.2l-0.4,0.3l-0.2,0.2l-0.2,0.2l0,0l-0.6,0.5l-0.2,0.3l0,0.1l-0.1,0.2l0,0.4l0.1,0.1
		l-0.1,0.1l-0.2,0.2l-0.1,0.1l-0.1,0.3l-0.1,0.2l-0.1,0.1l0,0l-0.2,0.6L155,40l0,0l-0.3,0.7l-0.1,0l-0.1,0.3l0,0.1l-0.5,1.1l0,0
		c-0.1,0.4-0.3,0.7-0.4,1l-0.2,0.5l-0.5,1.1l-1,2.1l0,0.1l0,0l-0.5,1.1l-0.1,0.1l-0.3,0.7l-1.2,2.5l-0.5,1.2l-1.4,3
		c-0.5,1-1,2-1.5,3l0,0.2l-1,2.1c-0.3,1-0.8,1.9-1.3,2.8c-0.3,0.7-0.8,1.4-1.2,2.1l-0.5,0.6l-0.1,0.3l-0.3,0.6
		c-0.4,0.8-1,1.5-1.3,2.4l-0.1,0.1l-0.2,0.5l-0.2,0.7c0,0,0,0-0.1,0c-0.5,0.6-1,1.2-1.7,1.6l-0.6,0.3l-0.9-0.1l-0.1-0.1
		c-0.3-0.1-0.6-0.4-0.9-0.8c0,0,0-0.1-0.1-0.2c-0.1-0.3-0.2-0.6-0.2-0.9l-0.2-0.8l0.1-0.2C135.6,70,135.7,69.9,135.6,69.8z
		 M154.2,40.5l0-0.1l0.4-0.8l0,0l0,0l0.1-0.3l0.4-1l0.2-0.6l0.7-1.5l0.2-0.8l-0.1,0c-0.4,0.4-0.8,0.8-1.3,1.1l0,0.1l-0.2,0.2
		l-0.1,0.2l-0.6,0.4l-1.1,1.1l0,0.1l0,0l-0.1,0.1l0,0.1l-0.1,0.1l0,0.1l-0.1,0l-0.8,0.9l-0.2,0.3l-0.2,0.1l-1.3,1.5l-0.2,0.3l-0.1,0
		c-1.2,1.4-2.3,2.9-3.3,4.3l-0.1,0.1L146,47l-0.3,0.3c-0.8,1.2-1.7,2.4-2.4,3.6l0,0.1l-0.1,0.4l-0.2,0.2l-0.4,0.7l0,0.1l-0.1,0.3
		l0,0.1l-0.3,0.6l-0.2,0.3l-0.1,0.1l-0.4,0.9l-0.7,1.4l-0.8,1.5l-0.4,0.9c-0.3,0.6-0.6,1.1-0.8,1.6l0,0.5l-0.3,0.4l-0.3,0.8
		c0,0,0,0.1,0,0.1c-0.2,0.6-0.3,1.2-0.5,1.8c-0.4,1.6-0.8,3.2-1.1,4.9l0,0l0,0.5l0,0.3l-0.1,0.2l0,0.2l0,0.3c0,0.1,0,0.1,0,0.2
		l0,0.1c0.1,0.5,0.1,1.1,0.3,1.5c0,0.1,0.1,0.1,0.1,0.1l0.4,0c0.4-0.2,0.8-0.5,1.1-0.9l0.4-0.5l0.3-0.5l0.7-0.7
		c0.7-0.9,1.5-1.6,2.1-2.8c0.6-1.2,1.6-2.2,3.3-6.3l0,0.1c0.4-0.8,0.8-1.7,1.2-2.5l0.9-2c0.3-0.7,0.6-1.4,1-2c0.3-0.6,0.6-1.3,0.9-2
		l0.1-0.2l0.4-0.8l0.8-1.5l0.3-0.6l0.1-0.3l0.3-0.7l0.3-0.7l0.1-0.3l0-0.1l0.2-0.2l0,0l0-0.2l0.1,0l0,0l0-0.1l0.3-0.7l0.1-0.1
		c0.2-0.6,0.5-1.2,0.7-1.7l0.1-0.3L153,43l0.1-0.3l0.2-0.4l0.2-0.3L154.2,40.5z M151.8,32.6L151.8,32.6l0.5-0.5l0.1-0.2l0.1-0.1l0,0
		l0-0.1l0.1-0.1l0-0.1l0.2,0l0.8-0.8l0-0.1l0,0l0,0l0.1,0l0.1,0l0-0.1l0.1-0.1l0.3-0.2l0.3-0.4l0.2-0.2l0.1,0l0.2-0.2l0.3-0.3l0,0
		l0-0.1l0.1-0.1l0,0l0.1,0l0,0.1l0-0.1l0.1,0l0.1-0.1l0,0l0.1-0.1l0.4-0.3l0,0l0,0l-0.2-0.2l-0.1-0.3l0.1-0.4l0.1-0.1l0.3-0.4
		l0.2-0.4l0.1-0.1l0-0.2l0.2-0.3l0-0.3l-0.1-0.1l-0.1,0c-0.4,0.1-1.1,0.5-1.6,0.9l-0.2,0.2l-0.2,0.2l-0.3,0.3l-0.2,0.2l-0.2,0.1
		l-0.4,0.2l-0.4,0.3c-0.1,0.1-0.2,0.2-0.3,0.3c-0.4,0.4-0.9,0.9-1.3,1.4l0,0.1l-0.2,0.2l-0.3,0.3l-0.2,0.2l-0.5,0.5l-0.5,0.7
		l-0.5,0.7l-0.5,0.7l0,0.1l0,0.1l-0.1,0.3l-0.1,0.1l-0.5,0.9l-0.1,0.5l0,0.1l-0.1,0.2l0,0.1l0,0.1l0.1,0.1l0.1,0
		c0.1,0,0.2-0.1,0.4-0.2c0.2-0.1,0.4-0.2,0.6-0.3l0.1-0.1l0.2-0.1l0-0.1l0.3-0.3l0.3-0.2c0.2-0.2,0.4-0.4,0.6-0.6l0.1-0.1l0-0.1
		l0.1-0.1l0.2-0.2l0.1-0.1L151.8,32.6z"/>
	<path class="st0" d="M166.1,30l0,0.2l-0.1,0.2l-0.1,0.1c0,0,0,0,0,0.1l0,0.1l-0.1,0.2l0.1,0.8c0,0,0,0.5,0.2,0.6
		c0.2,0.2,0.1,0.2,1,0.3l0.6,0l0.4-0.1l0.5-0.2l2.2-1l0.4-0.3l1.1-0.7l0.2-0.2l0.1-0.1l0.1,0l1.7-1.2l0.1,0l0.2-0.2l0.3-0.1l0.9-0.6
		l0.1-0.1c1-0.7,1.4-1.1,2.4-1.9l0.6-0.4l0-0.1l0.2-0.1l0.5-0.3l0.5-0.4l0-0.1l0.1,0l0.3-0.3l0-0.1l1.5-1.4l0.1-0.1
		c0.2-0.2,0.4-0.4,0.6-0.6c0-0.1,0.1-0.1,0.2,0l0,0l0.1-0.1l0.1,0l0.2,0.3l-0.1,0.1l-0.3,0.2l-0.1,0.1l-0.6,0.7l-0.1,0.3l-0.2,0
		l-0.1,0.1c-0.2,0.3-0.5,0.5-0.8,0.7l0,0l-0.2,0.2l-0.1,0.1l-0.1,0l-0.9,0.7l0,0.1l-0.1,0.1l-0.2,0.2l-0.1,0l-0.4,0.4l-1.1,0.8
		c-0.3,0.3-0.7,0.6-1,0.8l-0.1,0.1l-1.4,1.1l-0.1,0.1l-0.1-0.1l-0.3,0.3l-0.4,0.1l-0.2,0.2l0,0c-0.4,0.3-0.7,0.5-1.1,0.8l-0.4,0.4
		l-0.9,0.7l-0.2,0.1l-0.4,0.1L171,32l-0.3,0.1l-0.1,0.1l-0.1,0.1l-0.4,0.2l-0.1,0c-0.3,0.2-0.8,0.4-1.2,0.6l-0.1,0.1l-0.1,0.1l0,0
		l-0.6,0.3l-0.2,0l-0.3,0.2l-0.8,0l-0.8-0.2l-0.4-0.4l-0.2-0.4l-0.2-0.4l-0.1-0.5l0-0.1l0-0.1l0-0.2l0-0.8l0.1-0.4l0.1-0.6l0.1-0.4
		l0-0.1l0-0.3l0.2-0.2l0-0.2l0.1-0.3l0.1-0.1l0.3-0.2l0.1-0.2l0.2-0.1l0.2-0.2l0.1,0l0.2-0.4l0.2-0.3l0.1-0.4l0.1-0.2l0.1-0.2
		l0.1-0.1l0.2-0.1l0-0.1l0.1-0.2l0.2-0.2l0.1-0.1c0.6-0.7,1.2-1.4,1.8-2l0-0.1l0.3-0.3l0.4-0.2c0,0,0.1,0,0.1,0l0.3-0.3l0.2-0.2
		l0.1-0.1l0.4-0.2c0.3-0.2,0.6-0.4,1-0.6l0.2-0.2l0.3-0.1l0.2-0.1l0.1,0c0.3-0.1,0.5-0.1,0.7-0.1l0,0l0.1-0.1l0.1,0l0.1-0.1l0,0
		l0.2,0l0,0l0,0l0,0.1l0.1,0l0.1,0l0,0.1l0,0l0.2,0.1l0,0c0.2,0.1,0.3,0.2,0.4,0.3l0.1,0l0,0.1l0,0l0,0l0,0.2l0.1,0.1l0,0.2l0,0.1
		l0,0.2l0,0.5l-0.2,0.5l-0.2,0.4l-0.3,0.3l-0.2,0.3l-1,0.8l-0.1,0.2l-0.2,0.1c-0.6,0.7-1.3,1.3-2,1.9l0,0.1l-0.8,0.6l-0.3,0.4
		l-0.7,0.5l-0.5,0.4l-0.8,0.4l-0.5,0.1l-0.2,0l-0.2-0.1l-0.1-0.1l0-0.1l0.1-0.5l0.3-0.5l0.4-0.2l0.3-0.1l0.2,0l0.3,0l0.4-0.1
		l0.4-0.1l0.4-0.2l0.1,0l0-0.1l0.8-0.5l0.8-0.6l0.4-0.3l0.1-0.2l0.4-0.2l0-0.1l0.4-0.3l0.1-0.2l0.3-0.4l1.1-1.5l0.1-0.2l0-0.2l0-0.1
		l0-0.5l0,0l0-0.1l-0.1-0.1l-0.2-0.2l-0.2,0l-0.2,0l-0.3,0.1l-0.2,0.1l-0.1,0c-0.8,0.4-1.6,1.1-2.1,1.4l-0.3,0.3l-0.1,0.1l-0.1,0.2
		l-0.1,0c0,0,0,0-0.1,0l0,0.1l-0.2,0.1l0,0.1l-0.1,0l-0.6,0.5l-0.3,0.4l-0.2,0.3l-0.3,0.2l-0.1,0.1c-0.2,0.3-0.4,0.5-0.7,0.8
		l-0.1,0.2l-0.3,0.5l-0.2,0.3l-0.3,0.4l-0.3,0.5l-0.3,0.6l-0.1,0.1l-0.1,0.3l-0.1,0.4l-0.2,0.4L166.1,30z"/>
	<path class="st0" d="M188.6,25.8l0,0.3l-0.1,0.2l0.1,0.1l-0.1,0.1l0.1,0l0,0.2l-0.1,0.3l-0.4,0.7l-0.2,0.1l0,0.1l-0.1,0.1l-0.1,0
		c-0.3,0.9-0.3,0.5-0.4,1.3c-0.1,0.2-0.1,0.3-0.2,0c0-0.7-0.3,0-0.2-0.7l-0.1-0.5l-0.1-0.1l0.2-0.3l0-0.3l0.1-0.4l0.1-0.1l-0.1,0
		l0.1-0.2l-0.1-0.1l0.1-0.2l0.2-0.5l0.1,0l0-0.2l0.4-0.2l0.2-0.1L188.6,25.8L188.6,25.8z M192,7.6l0,0.1l0,0.3l-0.1,0.1l0,0
		l-0.1,0.1l-0.1,0.2l-0.1,0.3l-0.1,0.3l-0.1,0.2l0,0.1l-0.1,0.1l-0.1,0.2l0.1,0.1l0.1,0.2l0,0l-0.1,0.3l-0.1,0.1l-0.1,0.1l-0.1,0.2
		l-0.1,0.3l0,0.1l-0.2,0.6l0,0.2l-0.1,0.1c-0.1,0.5-0.3,1-0.4,1.5l-0.1,0.1l-0.1,0.2l-0.1,0.3l-0.1,0.3c-0.1,0.3-0.2,0.6-0.2,0.8
		l0,0.1l-0.1,0.3l0,0.1l-0.1,0l0,0.1l0,0.1l0,0.1l-0.1,0.2l0.1,0.2l0,0.1l0,0.1l0,0.1l-0.1,0.5l0,0.1l-0.1,0.2l0,0.2l-0.1,0.6l0,0.4
		l0,0.2l0,0.3l-0.1,0.1l0,0.1l0,0.1l-0.1,0.3l-0.2,0.2l0,0l-0.1,0l-0.1-0.3l0-0.3l0-0.1l0,0l0,0l0.1-0.5l0-0.2l0,0l0,0l0,0l0.1-0.3
		c0-0.1,0-0.2,0-0.3l0-0.1l0-0.1l0-0.1c0-0.2,0.1-0.3,0.1-0.5l0.1-0.5c0,0,0,0,0-0.1l0-0.1l0-0.2l0,0l0-0.2l0-0.1l0.1-0.1l0-0.2
		c0-0.1,0.1-0.2,0.1-0.2l0.1-1l0-0.3l0-0.2l0.1-0.2l0-0.1l0-0.2c0.1-0.4,0.2-0.9,0.3-1.3l0,0l0.1-0.3c0.1-0.1,0.1-0.3,0.1-0.4
		l0.1-0.2l0-0.2l0.1-0.3l0.1-0.3l0-0.3l0-0.3l0.4-1.2c0-0.4,0.2-0.7,0.2-1c0.3-0.5,0.5-1,0.7-1.5l0.2-0.2l-0.1-0.3
		c0.1-0.2,0.1-0.4,0.2-0.6l0.1-0.5c0.1-0.2,0.2-0.5,0.3-0.8c0.1-0.3,0.1-0.6,0.1-0.8c0.1-0.4,0.4-0.7,0.4-1.1
		c0.2-0.3,0.2-0.6,0.4-0.9l0-0.1l0.2-0.3l0,0l0.2-0.3l0.5,0c0,0.1,0.1,0.2,0.2,0.3c0,0.2,0,0.3,0.1,0.4c0,0.2,0,0.5,0,0.7
		c-0.1,0.3-0.2,0.5-0.3,0.7l0,0.2L194,2.8l-0.1,0.1l-0.3,0.2l-0.2,0.5c-0.1,0.1-0.2,0.3-0.2,0.4l-0.8,1.8l0,0.1L192.2,6l0,0.3
		l-0.1,0.3L192,6.9l0,0.1l0,0.3L192,7.6z"/>
</g>
</svg>
