<?xml version="1.0" encoding="utf-8"?>
<!-- Generator: Adobe Illustrator 22.0.1, SVG Export Plug-In . SVG Version: 6.00 Build 0)  -->
<svg version="1.1" id="レイヤー_1" xmlns="http://www.w3.org/2000/svg" xmlns:xlink="http://www.w3.org/1999/xlink" x="0px"
	 y="0px" viewBox="0 0 240 240" style="enable-background:new 0 0 240 240;" xml:space="preserve">
<style type="text/css">
	.st0{fill:#FFFFFF;}
	.st1{fill:none;stroke:#FFFFFF;stroke-width:2.5767;stroke-miterlimit:10;}
	.st2{fill:none;stroke:#FFFFFF;stroke-width:3;stroke-linecap:round;stroke-linejoin:round;stroke-miterlimit:10;}
</style>
<g>
	<g>
		<path class="st0" d="M85.6,174.9c-0.5,1-1.2,2-2,2.8c0.4,0.5,0.8,0.8,1.2,0.8s0.6-0.3,0.7-1.8c0.4,0.4,1,0.8,1.4,1
			c-0.3,2-0.8,2.6-2.2,2.6c-1,0-1.8-0.5-2.5-1.4c-0.8,0.6-1.7,1-2.7,1.4c-0.2-0.4-0.8-1-1.1-1.4c1.1-0.4,2.1-1,3-1.6
			c-0.3-0.9-0.6-1.9-0.8-3h-2c0,0.2-0.1,0.5-0.1,0.7c0.8,0.5,1.7,1.2,2.1,1.7l-1.2,1.4c-0.3-0.3-0.8-0.8-1.4-1.2
			c-0.4,1.4-1.1,2.6-2.4,3.5c-0.2-0.4-0.8-1.1-1.2-1.4c1.6-1.1,2-2.8,2.2-4.6h-1.1v-0.8l-0.7,1.1c-0.2-0.5-0.5-1.4-0.9-2.2v7.9H72
			v-6.6c-0.4,1.3-0.9,2.5-1.4,3.4c-0.2-0.6-0.6-1.3-0.9-1.8c0.9-1.4,1.8-3.9,2.2-6.1h-1.8v-1.9H72v-3.7h1.9v3.7h1.6
			c-0.1-0.1-0.3-0.2-0.4-0.3l0.8-1.2l0.3,0.2c0.3-0.8,0.7-1.7,0.9-2.3l1.6,0.6c-0.5,0.9-1,1.9-1.5,2.6c0.2,0.2,0.3,0.3,0.5,0.5
			c0.4-0.6,0.7-1.2,0.9-1.7l1.2,0.6c0-0.8,0-1.7,0-2.6h1.9c0,1,0,2,0,2.9l0.5-0.8l0.3,0.2c0.3-0.7,0.7-1.6,0.9-2.3l1.6,0.6
			c-0.5,0.9-1,1.9-1.5,2.6c0.2,0.2,0.3,0.3,0.5,0.5c0.3-0.6,0.7-1.2,0.9-1.7l1.5,0.7c-0.7,1.1-1.6,2.4-2.4,3.5l1.1-0.1
			c-0.1-0.3-0.2-0.5-0.3-0.7l1.2-0.4c0.4,0.8,0.8,2,0.9,2.7l-1.3,0.5c0-0.2-0.1-0.5-0.1-0.7l-1.3,0.2c0.5,0.3,1.1,0.8,1.4,1.1
			l-0.3,0.3h1.4v1.7H84L85.6,174.9z M80.3,172.6c0-0.4-0.1-0.8-0.1-1.2l-1.2,0.5c0-0.2,0-0.3-0.1-0.5c-1.2,0.1-2.3,0.3-3.3,0.4
			l-0.3-1.6l0.6,0c0.3-0.5,0.7-1,1.1-1.6c-0.3-0.4-0.8-0.9-1.3-1.3v1.9h-1.6v0.8c0.4,0.6,1.2,1.9,1.7,2.7H80.3z M79.4,168.8
			c0.3,0.6,0.6,1.4,0.7,2c-0.1-1.3-0.2-2.7-0.3-4.1c-0.7,1.1-1.6,2.4-2.3,3.4l1-0.1c-0.1-0.3-0.2-0.6-0.3-0.8L79.4,168.8z
			 M82.2,169.9c0.3-0.4,0.6-0.8,0.9-1.3c-0.4-0.5-0.9-1-1.4-1.5c0,1,0.1,1.9,0.1,2.8L82.2,169.9z M83.6,172.6
			c-0.3-0.2-0.6-0.5-0.9-0.7l0.8-0.7c-0.6,0.1-1.1,0.1-1.6,0.2l-0.1-0.5c0.1,0.6,0.1,1.2,0.2,1.7H83.6z M82.4,174.3
			c0.1,0.6,0.3,1.2,0.4,1.6c0.4-0.5,0.8-1,1-1.6H82.4z"/>
		<path class="st0" d="M96.9,164.7c0.9,1.3,1.8,3,2.2,4.2l-2,0.8c-0.1-0.3-0.2-0.6-0.3-1c-2.4,0.2-4.8,0.3-6.7,0.4l-0.2-2
			c0.4,0,0.9,0,1.4,0c0.5-1.1,1-2.5,1.3-3.6l2.2,0.5c-0.4,1-0.9,2.1-1.4,3.1l2.4-0.1c-0.3-0.5-0.6-1-0.8-1.5L96.9,164.7z
			 M97.8,178.1c0,0.9-0.2,1.5-0.8,1.8c-0.6,0.3-1.4,0.4-2.5,0.4c-0.1-0.6-0.4-1.4-0.7-1.9c0.6,0,1.4,0,1.6,0c0.2,0,0.3-0.1,0.3-0.3
			v-1.2H93v3.4h-2V170h6.8V178.1z M93,171.7v0.9h2.7v-0.9H93z M95.7,175.3v-1.1H93v1.1H95.7z M101.9,171.6c-2.1,0-2.6-0.6-2.6-2.6
			v-5.4h2.1v2.6c1.2-0.5,2.4-1,3.2-1.5l1.4,1.5c-1.3,0.6-3,1.2-4.6,1.7v1.1c0,0.6,0.1,0.7,0.8,0.7h2c0.6,0,0.7-0.3,0.8-1.8
			c0.4,0.3,1.3,0.7,1.9,0.8c-0.2,2.3-0.8,3-2.4,3H101.9z M104.2,178.3c0.6,0,0.7-0.3,0.8-2.2c0.5,0.3,1.3,0.6,1.9,0.8
			c-0.2,2.5-0.8,3.2-2.5,3.2h-2.6c-2.1,0-2.6-0.6-2.6-2.6V172h2.1v2.4c1.3-0.5,2.5-1.1,3.4-1.7l1.4,1.6c-1.4,0.8-3.2,1.4-4.8,1.9
			v1.4c0,0.6,0.1,0.7,0.8,0.7H104.2z"/>
		<path class="st0" d="M118,177.4c0.7-0.1,1.2-0.2,1.7-0.3c2.3-0.5,4.1-2.2,4.1-4.8c0-2.5-1.3-4.3-3.7-4.7c-0.3,1.5-0.6,3.2-1.1,4.8
			c-1.1,3.6-2.6,5.8-4.6,5.8c-2,0-3.6-2.2-3.6-5.2c0-4.1,3.6-7.6,8.2-7.6c4.4,0,7.2,3.1,7.2,7c0,3.7-2.3,6.4-6.8,7.1L118,177.4z
			 M116.6,172c0.4-1.3,0.7-2.8,1-4.3c-3,0.6-4.5,3.2-4.5,5.2c0,1.8,0.7,2.7,1.4,2.7C115.2,175.5,115.9,174.4,116.6,172z"/>
		<path class="st0" d="M132.5,174.3c-0.2,1.7-0.6,3.5-1.1,4.6c-0.4-0.2-1.2-0.6-1.6-0.8c0.5-1.1,0.8-2.7,1-4.2L132.5,174.3z
			 M135.7,169.3c0.7,1.2,1.4,2.8,1.6,3.8l-1.5,0.7c-0.1-0.3-0.1-0.6-0.2-0.9l-0.9,0.1v7.4h-1.9v-7.2l-2.6,0.2l-0.2-1.9l1.3-0.1
			c0.3-0.3,0.6-0.7,0.8-1.2c-0.5-0.8-1.4-1.7-2.1-2.4l1-1.5c0.1,0.1,0.3,0.2,0.4,0.4c0.5-1,1-2.2,1.3-3.1l1.9,0.7
			c-0.6,1.2-1.4,2.6-2,3.6c0.2,0.3,0.4,0.5,0.6,0.7c0.6-1,1.2-2,1.6-2.9l1.7,0.8c-1,1.6-2.2,3.4-3.4,4.8l1.7-0.1
			c-0.2-0.5-0.4-0.9-0.6-1.3L135.7,169.3z M136.1,173.9c0.5,1,0.9,2.3,1.1,3.2l-1.6,0.6c-0.2-0.9-0.6-2.3-1-3.3L136.1,173.9z
			 M146.4,164.4c0,0,0,0.5,0,0.8c-0.1,3.7-0.2,5.3-0.7,5.9c-0.4,0.5-0.8,0.6-1.3,0.7c-0.5,0.1-1.3,0.1-2.2,0.1c0-0.6-0.3-1.4-0.6-2
			c0.8,0.1,1.5,0.1,1.8,0.1c0.3,0,0.4,0,0.6-0.2c0.2-0.3,0.3-1.2,0.4-3.3h-2.6c-0.4,2.5-1.2,4.6-4,5.9c-0.2-0.5-0.8-1.2-1.3-1.6
			c2.2-1,2.9-2.5,3.2-4.3h-2.4v-2H146.4z M137.9,172.7h8.2v7.5H144v-0.7h-4.2v0.8h-2V172.7z M139.8,174.6v3.1h4.2v-3.1H139.8z"/>
		<path class="st0" d="M151.4,172c-0.3-0.5-0.8-1.3-1.3-1.8c3.2-1.5,6-4.4,7.2-6.8h2.3c1.9,3,4.7,5.4,7.6,6.5c-0.5,0.6-1,1.3-1.4,2
			c-2.9-1.5-5.8-4-7.3-6.3C157.2,167.9,154.4,170.4,151.4,172z M156.6,170.2v2.2c0,2.5-0.4,5.7-3.9,7.9c-0.4-0.5-1.2-1.2-1.8-1.5
			c3.2-1.9,3.5-4.4,3.5-6.5v-2.2H156.6z M162.8,170.1v10.2h-2.2v-10.2H162.8z"/>
	</g>
	<circle class="st1" cx="119.5" cy="119.5" r="118.2"/>
	<g>
		<path class="st0" d="M141,39.6H94.7c-4.8,0-8.6,3.9-8.6,8.6v82.6c0,4.8,3.9,8.6,8.6,8.6H141c4.8,0,8.6-3.9,8.6-8.6V48.2
			C149.7,43.5,145.8,39.6,141,39.6z M117.9,136.3c-2,0-3.6-1.6-3.6-3.6c0-2,1.6-3.6,3.6-3.6s3.6,1.6,3.6,3.6
			C121.5,134.7,119.9,136.3,117.9,136.3z M143.3,123.6c0,1.2-1,2.3-2.3,2.3H94.7c-1.2,0-2.3-1-2.3-2.3V48.2c0-1.2,1-2.3,2.3-2.3H141
			c1.2,0,2.3,1,2.3,2.3V123.6z"/>
		<g>
			<path class="st0" d="M104,73.7c-3,0-5.4-2.4-5.4-5.4s2.4-5.4,5.4-5.4s5.4,2.4,5.4,5.4S107,73.7,104,73.7z M104,63.7
				c-2.5,0-4.5,2-4.5,4.5s2,4.5,4.5,4.5s4.5-2,4.5-4.5S106.5,63.7,104,63.7z"/>
			<g>
				<rect x="113.6" y="65.3" class="st0" width="15.4" height="1.8"/>
				<rect x="113.6" y="69.3" class="st0" width="23.1" height="1.8"/>
			</g>
		</g>
		<g>
			<path class="st0" d="M104,90c-3,0-5.4-2.4-5.4-5.4s2.4-5.4,5.4-5.4s5.4,2.4,5.4,5.4S107,90,104,90z M104,80c-2.5,0-4.5,2-4.5,4.5
				s2,4.5,4.5,4.5s4.5-2,4.5-4.5S106.5,80,104,80z"/>
			<g>
				<rect x="113.6" y="81.6" class="st0" width="20.9" height="1.8"/>
				<rect x="113.6" y="85.7" class="st0" width="8.6" height="1.8"/>
			</g>
		</g>
		<g>
			<path class="st0" d="M104,106.3c-3,0-5.4-2.4-5.4-5.4s2.4-5.4,5.4-5.4s5.4,2.4,5.4,5.4S107,106.3,104,106.3z M104,96.3
				c-2.5,0-4.5,2-4.5,4.5s2,4.5,4.5,4.5s4.5-2,4.5-4.5S106.5,96.3,104,96.3z"/>
			<g>
				<rect x="113.6" y="97.9" class="st0" width="11.8" height="1.8"/>
				<rect x="113.6" y="102" class="st0" width="23.1" height="1.8"/>
			</g>
		</g>
	</g>
	<polyline class="st2" points="110,199 119.5,208.5 129,199 	"/>
</g>
</svg>
