<?xml version="1.0" encoding="utf-8"?>
<!-- Generator: Adobe Illustrator 22.0.1, SVG Export Plug-In . SVG Version: 6.00 Build 0)  -->
<svg version="1.1" id="レイヤー_1" xmlns="http://www.w3.org/2000/svg" xmlns:xlink="http://www.w3.org/1999/xlink" x="0px"
	 y="0px" viewBox="0 0 113 86" style="enable-background:new 0 0 113 86;" xml:space="preserve">
<style type="text/css">
	.st0{fill:#C8141E;}
</style>
<path class="st0" d="M98.2,0H13.2C5.9,0,0,5.7,0,12.7v59.2c0,7,5.9,12.7,13.2,12.7h84.9c7.3,0,13.2-5.7,13.2-12.7V12.7
	C111.4,5.7,105.5,0,98.2,0L98.2,0z M98.2,73.4H13.2c-1.1,0-2-0.7-2-1.5V20.5L49.6,53c0.8,0.7,1.8,1,2.8,1h6.5c1,0,2-0.4,2.8-1
	l38.4-32.4v51.4C100.2,72.7,99.2,73.4,98.2,73.4L98.2,73.4z M55.7,42.9L18.3,11.2h74.7L55.7,42.9z M55.7,42.9"/>
</svg>
