<?xml version="1.0" encoding="utf-8"?>
<!-- Generator: Adobe Illustrator 22.0.1, SVG Export Plug-In . SVG Version: 6.00 Build 0)  -->
<svg version="1.1" id="レイヤー_1" xmlns="http://www.w3.org/2000/svg" xmlns:xlink="http://www.w3.org/1999/xlink" x="0px"
	 y="0px" viewBox="0 0 102 101" style="enable-background:new 0 0 102 101;" xml:space="preserve">
<style type="text/css">
	.st0{fill:#D2000D;}
	.st1{fill:none;stroke:#D2000D;stroke-width:4;stroke-miterlimit:10;}
</style>
<g>
	<g>
		<path class="st0" d="M37.1,46.1v-9.6c0-7.4,6-13.4,13.4-13.4c1.3,0,2.7,0.2,4,0.6h0c1.1,0.3,2.2,0.8,3.2,1.5
			c3.9,2.5,6.3,6.7,6.3,11.3V46c0,0.7-0.6,1.3-1.3,1.3c-0.7,0-1.3-0.6-1.3-1.3v-9.5c0-3.7-1.9-7.2-5.1-9.2c-0.8-0.5-1.7-0.9-2.6-1.2
			c0,0,0,0,0,0c-1-0.3-2.1-0.5-3.2-0.5c-6,0-10.9,4.9-10.9,10.9v9.6c0,0.7-0.6,1.3-1.3,1.3C37.6,47.4,37.1,46.8,37.1,46.1L37.1,46.1
			z M58.6,22.4c2.6,1.4,4.7,3.5,6.1,6c1.4,2.3,2.1,5,2.1,7.7c0,0.7,0.6,1.3,1.3,1.3c0.7,0,1.3-0.6,1.3-1.3c0-3.1-0.8-6.2-2.4-9
			c-1.7-2.9-4.1-5.3-7.1-6.9c-0.6-0.3-1.4-0.1-1.7,0.5C57.8,21.3,58,22,58.6,22.4L58.6,22.4z M55.6,39.3H45.4
			c-0.7,0-1.3,0.6-1.3,1.3c0,0.7,0.6,1.3,1.3,1.3h10.2c0.7,0,1.3-0.6,1.3-1.3C56.9,39.9,56.3,39.3,55.6,39.3L55.6,39.3z M51.8,71.9
			v6.6h6.1c0.7,0,1.3,0.6,1.3,1.3c0,0.7-0.6,1.3-1.3,1.3h-7.3c0,0,0,0,0,0c0,0,0,0,0,0h-7.3c-0.7,0-1.3-0.6-1.3-1.3
			c0-0.7,0.6-1.3,1.3-1.3h6.1v-6.6c-10.5-0.7-18.9-9.4-18.9-20.1c0-0.7,0.6-1.3,1.3-1.3h37.8c0.7,0,1.3,0.6,1.3,1.3
			C70.7,62.4,62.3,71.2,51.8,71.9L51.8,71.9z M68.1,53h-4.2c-0.3,3.1-1.7,6.1-4,8.3c-2.5,2.5-5.9,3.8-9.4,3.8c-5.1,0-9.8-3-12.1-7.6
			c-0.3-0.6,0-1.4,0.6-1.7c0.6-0.3,1.4,0,1.7,0.6c1.8,3.7,5.7,6.1,9.8,6.1c5.5,0,10.2-4.2,10.8-9.6H32.9c0.6,9.1,8.3,16.4,17.6,16.4
			C59.8,69.4,67.5,62.1,68.1,53L68.1,53z M55.6,44.9H45.4c-0.7,0-1.3,0.6-1.3,1.3c0,0.7,0.6,1.3,1.3,1.3h10.2c0.7,0,1.3-0.6,1.3-1.3
			C56.9,45.4,56.3,44.9,55.6,44.9L55.6,44.9z M55.6,33.8H45.4c-0.7,0-1.3,0.6-1.3,1.3c0,0.7,0.6,1.3,1.3,1.3h10.2
			c0.7,0,1.3-0.6,1.3-1.3C56.9,34.4,56.3,33.8,55.6,33.8L55.6,33.8z M55.6,33.8"/>
	</g>
	<circle class="st1" cx="50.5" cy="50.5" r="48.5"/>
</g>
</svg>
