<?xml version="1.0" encoding="utf-8"?>
<!-- Generator: Adobe Illustrator 22.0.1, SVG Export Plug-In . SVG Version: 6.00 Build 0)  -->
<svg version="1.1" id="レイヤー_1" xmlns="http://www.w3.org/2000/svg" xmlns:xlink="http://www.w3.org/1999/xlink" x="0px"
	 y="0px" viewBox="0 0 113 113" style="enable-background:new 0 0 113 113;" xml:space="preserve">
<style type="text/css">
	.st0{fill:#C8141E;}
</style>
<g>
	<path class="st0" d="M43.9,37.3c0,0,3.3-9.7,12.2-7.6c8.8,2.1,8.4,9.7,7.6,13.2c-0.8,3.5-6.4,9.3-11.4,12.6c-5,3.3-8.1,6.8-8.3,8
		c-0.3-1.2-3.3-4.7-8.3-8c-5-3.3-10.6-9.1-11.4-12.6c-0.8-3.5-1.3-11.1,7.6-13.2C40.6,27.7,43.9,37.3,43.9,37.3z"/>
	<path class="st0" d="M74.8,12.8c-17.1-17.1-44.9-17.1-62,0c-17.1,17.1-17.1,44.9,0,62c15.2,15.2,38.9,16.8,56,5
		c0.4,1.7,1.2,3.3,2.5,4.6l24.9,24.9c3.6,3.6,9.5,3.6,13.1,0c3.6-3.6,3.6-9.5,0-13.1L84.4,71.3c-1.3-1.3-2.9-2.1-4.6-2.5
		C91.6,51.7,90,28,74.8,12.8L74.8,12.8z M66.9,67c-12.8,12.8-33.5,12.8-46.3,0c-12.8-12.8-12.8-33.5,0-46.3
		c12.8-12.8,33.5-12.8,46.3,0C79.7,33.4,79.7,54.2,66.9,67L66.9,67z M66.9,67"/>
</g>
</svg>
