<?xml version="1.0" encoding="utf-8"?>
<!-- Generator: Adobe Illustrator 22.0.1, SVG Export Plug-In . SVG Version: 6.00 Build 0)  -->
<svg version="1.1" id="レイヤー_1" xmlns="http://www.w3.org/2000/svg" xmlns:xlink="http://www.w3.org/1999/xlink" x="0px"
	 y="0px" viewBox="0 0 85 85" style="enable-background:new 0 0 85 85;" xml:space="preserve">
<style type="text/css">
	.st0{fill:#FFFFFF;}
</style>
<g>
	<path class="st0" d="M32.9,28c0,0,2.5-7.2,9.1-5.7c6.6,1.6,6.3,7.3,5.7,9.9c-0.6,2.6-4.8,7-8.5,9.4c-3.8,2.5-6,5.1-6.2,6
		c-0.2-0.9-2.5-3.6-6.2-6c-3.8-2.5-7.9-6.8-8.5-9.4c-0.6-2.6-1-8.3,5.7-9.9C30.4,20.7,32.9,28,32.9,28z"/>
	<path class="st0" d="M56.1,9.6C43.3-3.2,22.4-3.2,9.6,9.6c-12.8,12.8-12.8,33.6,0,46.5c11.4,11.4,29.2,12.6,42,3.7
		c0.3,1.3,0.9,2.5,1.9,3.5l18.7,18.7c2.7,2.7,7.1,2.7,9.8,0c2.7-2.7,2.7-7.1,0-9.8L63.3,53.4c-1-1-2.2-1.6-3.5-1.9
		C68.7,38.8,67.5,21,56.1,9.6L56.1,9.6z M50.2,50.2c-9.6,9.6-25.1,9.6-34.7,0c-9.6-9.6-9.6-25.1,0-34.7c9.6-9.6,25.1-9.6,34.7,0
		C59.7,25.1,59.7,40.6,50.2,50.2L50.2,50.2z M50.2,50.2"/>
</g>
</svg>
