<?xml version="1.0" encoding="utf-8"?>
<!-- Generator: Adobe Illustrator 22.0.1, SVG Export Plug-In . SVG Version: 6.00 Build 0)  -->
<svg version="1.1" id="レイヤー_1" xmlns="http://www.w3.org/2000/svg" xmlns:xlink="http://www.w3.org/1999/xlink" x="0px"
	 y="0px" viewBox="0 0 240 240" style="enable-background:new 0 0 240 240;" xml:space="preserve">
<style type="text/css">
	.st0{fill:#FFFFFF;}
	.st1{fill:none;stroke:#FFFFFF;stroke-width:2.5767;stroke-miterlimit:10;}
	.st2{fill:none;stroke:#FFFFFF;stroke-width:3;stroke-linecap:round;stroke-linejoin:round;stroke-miterlimit:10;}
</style>
<g>
	<g>
		<path class="st0" d="M56.5,172.7v7.6h-2.2v-1h-10v1h-2.2v-7.6h2.2v4.5h3.8v-5.4h-5.2v-6.5H45v4.4h3.1v-6h2.2v6h3.3v-4.4h2.3v6.5
			h-5.5v5.4h4v-4.5H56.5z"/>
		<path class="st0" d="M65.2,169.6c-1,0.7-2,1.3-3,1.8c-0.3-0.5-0.8-1.3-1.3-1.8c3.1-1.3,5.9-3.9,7.3-6h2.2c1.9,2.6,4.8,4.7,7.6,5.7
			c-0.5,0.6-1,1.3-1.4,2c-1-0.5-2-1.1-3-1.7v1.4h-8.4V169.6z M62,172.4h14.9v2h-8.1c-0.5,1.1-1.1,2.2-1.7,3.2
			c1.7-0.1,3.6-0.1,5.4-0.2c-0.6-0.6-1.2-1.3-1.8-1.8l1.9-1c1.6,1.4,3.3,3.3,4.1,4.6l-2,1.2c-0.2-0.3-0.4-0.7-0.7-1.1
			c-4.2,0.2-8.7,0.4-11.7,0.6l-0.3-2.1l2.7-0.1c0.5-1,1-2.2,1.4-3.3H62V172.4z M72.9,168.9c-1.4-1-2.6-2.2-3.5-3.3
			c-0.8,1.1-1.9,2.3-3.3,3.3H72.9z"/>
		<path class="st0" d="M85,168.1c0,1.2,0,2.5,0.1,3.8c0.3,2.6,0.8,4.3,1.9,4.3c0.8,0,1.5-2.1,1.9-3.5l1.8,2.2
			c-1.2,3.1-2.3,4.2-3.7,4.2c-1.9,0-3.7-1.8-4.2-6.6c-0.2-1.6-0.2-3.7-0.2-4.8c0-0.5,0-1.3-0.1-1.8l2.7,0
			C85.1,166.6,85,167.6,85,168.1z M97.4,175.4l-2.4,0.9c-0.3-2.9-1.2-7.1-3.2-9.3l2.3-0.8C95.8,168.4,97.2,172.7,97.4,175.4z"/>
		<path class="st0" d="M109.4,176.2c0-0.5,0.1-1.4,0.1-2.1c-1.3,0.7-2,1.4-2,2.3c0,1,0.8,1.3,2.6,1.3c1.5,0,3.5-0.2,5.1-0.5
			l-0.1,2.3c-1.2,0.1-3.4,0.3-5,0.3c-2.8,0-4.9-0.7-4.9-3c0-2.3,2.2-3.7,4.2-4.8c-0.3-0.5-0.8-0.6-1.2-0.6c-1,0-2.1,0.6-2.8,1.2
			c-0.5,0.5-1,1.2-1.7,2l-1.9-1.4c1.9-1.7,3.1-3.3,3.9-4.9h-0.2c-0.7,0-2,0-3-0.1V166c0.9,0.1,2.2,0.2,3.1,0.2h0.9
			c0.2-0.8,0.3-1.5,0.4-2l2.3,0.2c-0.1,0.4-0.2,1-0.4,1.8c1.7-0.1,3.5-0.2,5-0.5l0,2.1c-1.7,0.3-3.9,0.4-5.8,0.5
			c-0.3,0.6-0.6,1.3-1,1.8c0.5-0.2,1.4-0.4,2-0.4c1.1,0,2,0.5,2.4,1.4c0.9-0.4,1.7-0.7,2.4-1.1c0.7-0.3,1.3-0.6,2-0.9l0.9,2.1
			c-0.6,0.1-1.5,0.5-2.1,0.8c-0.8,0.3-1.8,0.7-2.9,1.2c0,1,0.1,2.3,0.1,3.1H109.4z"/>
		<path class="st0" d="M126.2,173c-0.6,0.2-1.2,0.4-1.7,0.5v4.6c0,1-0.2,1.5-0.7,1.9c-0.6,0.3-1.3,0.4-2.5,0.4
			c-0.1-0.5-0.3-1.4-0.5-2c0.6,0,1.3,0,1.5,0c0.2,0,0.3-0.1,0.3-0.3v-4c-0.6,0.2-1.2,0.3-1.7,0.5l-0.5-2.1c0.6-0.1,1.4-0.3,2.2-0.5
			v-3.1h-1.9v-2h1.9v-3.4h1.9v3.4h1.6v2h-1.6v2.6l1.5-0.4L126.2,173z M133.9,174.7c1,1.3,2.4,2.6,3.7,3.3c-0.5,0.4-1.1,1.1-1.4,1.6
			c-1.3-0.8-2.5-2-3.4-3.4v4.1h-2.1v-4.1c-1.1,1.5-2.5,2.8-4,3.6c-0.3-0.5-0.9-1.2-1.4-1.6c1.7-0.7,3.2-2,4.2-3.4h-3.1v-1.9h4.3V171
			h2c-0.4-0.3-0.5-0.9-0.5-1.8v-2.6h1.9v2.6c0,0.5,0.1,0.5,0.4,0.5h0.9c0.3,0,0.4-0.2,0.4-1.4c0.4,0.3,1.2,0.6,1.7,0.7
			c-0.2,1.9-0.7,2.4-1.9,2.4h-1.4c-0.6,0-1-0.1-1.4-0.3v1.7h4.3v1.9H133.9z M131.2,166.6c-0.2,2.7-0.8,4.3-4,5.2
			c-0.2-0.5-0.7-1.2-1-1.5c2.6-0.6,3-1.6,3.1-3.7H131.2z M128.3,168h-1.8v-3.7H137v3.6h-1.9v-1.7h-6.8V168z"/>
		<path class="st0" d="M155.9,168.5c-1.1-0.1-2.8-0.1-5.2-0.1c0,0.9,0,1.9,0,2.6c0.5,0.7,0.7,1.5,0.7,2.5c0,2.3-1.4,5.3-5.7,6.5
			l-1.9-1.9c1.8-0.4,3.4-1,4.4-2c-0.3,0.1-0.5,0.1-0.8,0.1c-1.4,0-3.1-1.1-3.1-3.3c0-2,1.6-3.3,3.6-3.3c0.3,0,0.5,0,0.7,0.1l0-1.2
			c-2.7,0-5.5,0.1-7.7,0.3l-0.1-2.2c2,0,5.3-0.1,7.7-0.1c0-0.2,0-0.4,0-0.5c0-0.6-0.1-1.3-0.2-1.5h2.6c-0.1,0.3-0.1,1.2-0.1,1.5
			c0,0.1,0,0.3,0,0.5c1.8,0,4.2,0,5.2,0L155.9,168.5z M147.8,174.2c0.7,0,1.4-0.6,1.2-2.1c-0.3-0.4-0.7-0.6-1.2-0.6
			c-0.7,0-1.4,0.5-1.4,1.4C146.4,173.7,147.1,174.2,147.8,174.2z"/>
		<path class="st0" d="M166.8,168.4c-0.1,0.8-0.1,1.6-0.2,2.3h6.9c0,0,0,0.6-0.1,0.9c-0.3,4.9-0.7,6.9-1.4,7.7
			c-0.5,0.6-1.1,0.8-1.9,0.8c-0.7,0.1-1.9,0.1-3.1,0c0-0.6-0.4-1.5-0.8-2.1c1.2,0.1,2.5,0.1,3,0.1c0.4,0,0.6,0,0.9-0.2
			c0.5-0.4,0.8-2,1-5.2h-5c-0.7,3-2.2,5.9-5.8,7.7c-0.3-0.6-1-1.4-1.5-1.8c4.9-2.3,5.3-6.4,5.5-10.2h-5.1v-2.1h6.9v-2.9h2.2v2.9h7.1
			v2.1H166.8z"/>
		<path class="st0" d="M182.5,171.9c-0.7-0.6-2.2-1.4-3.4-1.9l1.1-1.6c1.2,0.4,2.7,1.1,3.5,1.7L182.5,171.9z M184.4,174.4
			c-0.9,1.9-1.9,3.9-2.9,5.7l-1.9-1.4c0.9-1.4,2.2-3.6,3.2-5.7L184.4,174.4z M183.5,167.1c-0.7-0.6-2.2-1.5-3.4-2l1.2-1.6
			c1.2,0.5,2.7,1.2,3.4,1.8L183.5,167.1z M194.2,180.3c-0.1-0.4-0.3-0.9-0.6-1.4c-3.3,0.3-6.7,0.5-9.1,0.7l-0.3-2.2l1.4-0.1
			c0.6-1.4,1.3-3.2,1.7-4.7h-3.1v-2.1h4.6v-2.5h-3.7v-2.1h3.7v-2.6h2.2v2.6h3.9v2.1H191v2.5h4.8v2.1h-6l0.1,0
			c-0.6,1.5-1.3,3.2-1.9,4.5c1.4-0.1,3-0.2,4.6-0.3c-0.5-0.7-1-1.4-1.4-2.1l1.8-1c1.3,1.6,2.8,3.7,3.3,5.2L194.2,180.3z"/>
	</g>
	<circle class="st1" cx="119.5" cy="119.5" r="118.2"/>
	<g>
		<path class="st0" d="M110.1,86.9c0,0,2.5-7.2,9.1-5.7c6.6,1.6,6.3,7.3,5.7,9.9c-0.6,2.6-4.8,7-8.5,9.4c-3.8,2.5-6,5.1-6.2,6
			c-0.2-0.9-2.5-3.6-6.2-6c-3.8-2.5-7.9-6.8-8.5-9.4c-0.6-2.6-1-8.3,5.7-9.9C107.6,79.6,110.1,86.9,110.1,86.9z"/>
		<path class="st0" d="M133.3,68.5c-12.8-12.8-33.7-12.8-46.5,0C74,81.3,74,102.2,86.8,115c11.4,11.4,29.2,12.6,42,3.7
			c0.3,1.3,0.9,2.5,1.9,3.5l18.7,18.7c2.7,2.7,7.1,2.7,9.8,0c2.7-2.7,2.7-7.1,0-9.8l-18.7-18.7c-1-1-2.2-1.6-3.5-1.9
			C145.9,97.7,144.7,79.9,133.3,68.5L133.3,68.5z M127.4,109.1c-9.6,9.6-25.1,9.6-34.7,0c-9.6-9.6-9.6-25.1,0-34.7
			c9.6-9.6,25.1-9.6,34.7,0C136.9,84,136.9,99.5,127.4,109.1L127.4,109.1z M127.4,109.1"/>
	</g>
	<polyline class="st2" points="110,199 119.5,208.5 129,199 	"/>
</g>
</svg>
