<?xml version="1.0" encoding="utf-8"?>
<!-- Generator: Adobe Illustrator 22.0.1, SVG Export Plug-In . SVG Version: 6.00 Build 0)  -->
<svg version="1.1" id="レイヤー_1" xmlns="http://www.w3.org/2000/svg" xmlns:xlink="http://www.w3.org/1999/xlink" x="0px"
	 y="0px" viewBox="0 0 102 101" style="enable-background:new 0 0 102 101;" xml:space="preserve">
<style type="text/css">
	.st0{fill:none;stroke:#D2000D;stroke-width:4;stroke-miterlimit:10;}
	.st1{fill:#D2000D;}
</style>
<g>
	<circle class="st0" cx="50.5" cy="50.5" r="48.5"/>
	<g>
		<path class="st1" d="M47.8,60.9l-0.7,6.4c0,0.3,0.1,0.6,0.3,0.9c0.2,0.2,0.5,0.4,0.8,0.4h4.5c0.3,0,0.6-0.1,0.8-0.4
			c0.2-0.2,0.3-0.6,0.3-0.9l-0.7-6.4c1.2-0.8,1.8-2.2,1.8-3.6c0-2.5-2-4.5-4.5-4.5c-2.5,0-4.5,2-4.5,4.5C46,58.7,46.7,60,47.8,60.9
			L47.8,60.9z M50.5,55c1.2,0,2.3,1,2.3,2.3c0,0.9-0.5,1.6-1.3,2c-0.4,0.2-0.7,0.7-0.6,1.1l0.7,5.9h-2l0.7-5.9
			c0.1-0.5-0.2-0.9-0.6-1.1c-0.8-0.4-1.3-1.2-1.3-2C48.2,56,49.3,55,50.5,55L50.5,55z M50.5,55"/>
		<path class="st1" d="M69.7,43.7h-3.4v-4.5c0-8.7-7.1-15.8-15.8-15.8s-15.8,7.1-15.8,15.8v4.5h-3.4c-0.6,0-1.1,0.5-1.1,1.1V73
			c0,2.5,2,4.5,4.5,4.5h31.6c2.5,0,4.5-2,4.5-4.5V44.9C70.8,44.2,70.3,43.7,69.7,43.7L69.7,43.7z M37,39.2c0-7.5,6.1-13.5,13.5-13.5
			C58,25.7,64,31.8,64,39.2v4.5h-2.3v-4.5C61.8,33,56.7,28,50.5,28S39.2,33,39.2,39.2v4.5H37V39.2z M59.5,39.2v4.5h-18v-4.5
			c0-5,4-9,9-9C55.5,30.2,59.5,34.3,59.5,39.2L59.5,39.2z M68.5,73c0,1.2-1,2.3-2.3,2.3H34.7c-1.2,0-2.3-1-2.3-2.3V46h36.1V73z
			 M68.5,73"/>
	</g>
</g>
</svg>
