<?xml version="1.0" encoding="utf-8"?>
<!-- Generator: Adobe Illustrator 22.0.1, SVG Export Plug-In . SVG Version: 6.00 Build 0)  -->
<svg version="1.1" id="レイヤー_1" xmlns="http://www.w3.org/2000/svg" xmlns:xlink="http://www.w3.org/1999/xlink" x="0px"
	 y="0px" viewBox="0 0 64 100" style="enable-background:new 0 0 64 100;" xml:space="preserve">
<style type="text/css">
	.st0{fill:#FFFFFF;}
</style>
<g>
	<path class="st0" d="M54.9,0H8.6C3.9,0,0,3.9,0,8.6v82.6c0,4.8,3.9,8.6,8.6,8.6h46.3c4.8,0,8.6-3.9,8.6-8.6V8.6
		C63.5,3.9,59.7,0,54.9,0z M31.8,96.7c-2,0-3.6-1.6-3.6-3.6c0-2,1.6-3.6,3.6-3.6s3.6,1.6,3.6,3.6C35.4,95,33.8,96.7,31.8,96.7z
		 M57.2,84c0,1.2-1,2.3-2.3,2.3H8.6c-1.2,0-2.3-1-2.3-2.3V8.6c0-1.2,1-2.3,2.3-2.3h46.3c1.2,0,2.3,1,2.3,2.3V84z"/>
	<g>
		<path class="st0" d="M17.9,34c-3,0-5.4-2.4-5.4-5.4s2.4-5.4,5.4-5.4s5.4,2.4,5.4,5.4S20.9,34,17.9,34z M17.9,24.1
			c-2.5,0-4.5,2-4.5,4.5s2,4.5,4.5,4.5s4.5-2,4.5-4.5S20.4,24.1,17.9,24.1z"/>
		<g>
			<rect x="27.5" y="25.6" class="st0" width="15.4" height="1.8"/>
			<rect x="27.5" y="29.7" class="st0" width="23.1" height="1.8"/>
		</g>
	</g>
	<g>
		<path class="st0" d="M17.9,50.4c-3,0-5.4-2.4-5.4-5.4c0-3,2.4-5.4,5.4-5.4s5.4,2.4,5.4,5.4C23.4,47.9,20.9,50.4,17.9,50.4z
			 M17.9,40.4c-2.5,0-4.5,2-4.5,4.5c0,2.5,2,4.5,4.5,4.5s4.5-2,4.5-4.5C22.5,42.4,20.4,40.4,17.9,40.4z"/>
		<g>
			<rect x="27.5" y="42" class="st0" width="20.9" height="1.8"/>
			<rect x="27.5" y="46.1" class="st0" width="8.6" height="1.8"/>
		</g>
	</g>
	<g>
		<path class="st0" d="M17.9,66.7c-3,0-5.4-2.4-5.4-5.4s2.4-5.4,5.4-5.4s5.4,2.4,5.4,5.4S20.9,66.7,17.9,66.7z M17.9,56.7
			c-2.5,0-4.5,2-4.5,4.5c0,2.5,2,4.5,4.5,4.5s4.5-2,4.5-4.5C22.5,58.8,20.4,56.7,17.9,56.7z"/>
		<g>
			<rect x="27.5" y="58.3" class="st0" width="11.8" height="1.8"/>
			<rect x="27.5" y="62.4" class="st0" width="23.1" height="1.8"/>
		</g>
	</g>
</g>
</svg>
