<?xml version="1.0" encoding="utf-8"?>
<!-- Generator: Adobe Illustrator 22.0.1, SVG Export Plug-In . SVG Version: 6.00 Build 0)  -->
<svg version="1.1" id="レイヤー_1" xmlns="http://www.w3.org/2000/svg" xmlns:xlink="http://www.w3.org/1999/xlink" x="0px"
	 y="0px" viewBox="0 0 101 101" style="enable-background:new 0 0 101 101;" xml:space="preserve">
<style type="text/css">
	.st0{fill:#D2000D;}
	.st1{fill:none;stroke:#D2000D;stroke-width:4;stroke-miterlimit:10;}
</style>
<g>
	<g>
		<path class="st0" d="M57.8,60v-0.9c0.3-0.2,0.5-0.4,0.7-0.7c1.9-2,3-4.6,3.3-7.4c1.7-0.3,3.2-1.2,4.2-2.5c1.4-2,1.5-4.8,0.4-8.4
			c-0.1-0.2-0.2-0.4-0.4-0.5l-0.5-0.4c0.1-3.2-1-6.4-3.1-8.8c-2.6-2.9-6.6-4.4-11.9-4.4c-5.3,0-9.3,1.5-11.9,4.4
			c-2.1,2.5-3.2,5.6-3.1,8.8l-0.5,0.4c-0.2,0.1-0.3,0.3-0.4,0.5c-1.2,3.6-1,6.4,0.4,8.4c1,1.4,2.5,2.3,4.2,2.5
			c0.3,2.8,1.5,5.3,3.4,7.4c0.2,0.2,0.5,0.5,0.7,0.7V60c-3.7,0.7-18.5,4.2-18.3,14.1c0,0.5,0.4,1,1,1h49.2c0.5,0,1-0.4,1-1
			C76.3,64.2,61.5,60.7,57.8,60L57.8,60z M38.5,48.9c-0.8-0.3-1.5-0.8-2.1-1.5l0,0c-1-1.4-1.1-3.6-0.2-6.4l0.7-0.5
			c0.3-0.2,0.5-0.5,0.4-0.9c-0.2-2.9,0.8-5.7,2.6-8c2.2-2.5,5.7-3.7,10.4-3.7c4.7,0,8.2,1.3,10.4,3.7c1.9,2.2,2.8,5.1,2.6,8
			c0,0.4,0.1,0.7,0.4,0.9l0.7,0.5c0.9,2.8,0.8,5-0.2,6.4c-0.5,0.7-1.2,1.2-2.1,1.5c1.2-1.3,1.7-3.1,1.6-4.8c-0.2-1.1-0.7-2-1.6-2.7
			c-0.4-9.7-7.2-10.8-10.1-10.8c-0.6,0-1.2,0-1.8,0.1c-0.6-0.1-1.2-0.1-1.8-0.1c-2.9,0-9.7,1.1-10.1,10.8C37.7,42,37.1,43,36.9,44
			C36.8,45.8,37.4,47.6,38.5,48.9L38.5,48.9z M60.5,40.9c-4.1,0.2-8.1-0.8-11.6-2.9c-0.4-0.3-0.9-0.2-1.3,0.1
			c-1.9,2.1-5.5,2.6-7.2,2.7c0.5-6.8,4.7-8.3,8.1-8.3c0.6,0,1.1,0,1.7,0.1c0.1,0,0.3,0,0.4,0c0.5-0.1,1.1-0.1,1.7-0.1
			C55.8,32.5,60,34,60.5,40.9L60.5,40.9z M40.9,49.1L40.9,49.1c0-0.2,0-0.5-0.2-0.6c-1.3-1.5-1.9-2.9-1.8-4c0.1-0.6,0.4-1.2,0.9-1.6
			c1.3,0,5.8-0.2,8.7-2.7c3.3,1.9,7,2.9,10.7,2.9c0.6,0,1.3,0,2-0.1c0.5,0.4,0.8,1,0.9,1.6c0.2,1.1-0.4,2.5-1.8,4
			c-0.2,0.2-0.2,0.4-0.2,0.6v0.5l-5.6,3c-1.1-1.1-2.9-1-3.9,0.1c-1.1,1.1-1,2.9,0.1,3.9c1.1,1.1,2.9,1,3.9-0.1
			c0.5-0.5,0.8-1.2,0.8-1.9c0-0.1,0-0.2,0-0.3l4.4-2.4c-0.4,1.9-1.3,3.7-2.6,5.1c-1.7,1.7-4,2.5-6.4,2.4h-0.5
			c-2.4,0.1-4.7-0.7-6.4-2.4C40.8,54,40.9,49.1,40.9,49.1L40.9,49.1z M53.4,54.6c0,0.5-0.4,0.9-0.9,0.9c-0.5,0-0.9-0.4-0.9-0.9
			c0-0.5,0.4-0.9,0.9-0.9C53,53.8,53.4,54.1,53.4,54.6L53.4,54.6z M49.5,73H26.9c0.8-7.3,12.6-10.3,16.3-11.1v1.7
			c0,2.2,2.7,3.9,6.3,4.2V73z M45.1,63.6v-3.3c1.6,0.7,3.4,1.1,5.1,1.1h0.5c1.8,0,3.5-0.3,5.1-1.1v3.3c0,0.9-2.1,2.2-5.4,2.2
			C47.2,65.9,45.1,64.6,45.1,63.6L45.1,63.6z M51.5,73v-5.2c3.7-0.3,6.3-1.9,6.3-4.2v-1.7c3.7,0.8,15.5,3.8,16.3,11.1H51.5z
			 M51.5,73"/>
	</g>
	<circle class="st1" cx="50.5" cy="50.5" r="48.5"/>
</g>
</svg>
