<?xml version="1.0" encoding="utf-8"?>
<!-- Generator: Adobe Illustrator 22.0.1, SVG Export Plug-In . SVG Version: 6.00 Build 0)  -->
<svg version="1.1" id="レイヤー_1" xmlns="http://www.w3.org/2000/svg" xmlns:xlink="http://www.w3.org/1999/xlink" x="0px"
	 y="0px" viewBox="0 0 109 116" style="enable-background:new 0 0 109 116;" xml:space="preserve">
<style type="text/css">
	.st0{fill:#C8141E;}
</style>
<g>
	<path class="st0" d="M53.6,0c-2.1,0-3.8,1.7-3.8,3.8v7.6c0,2.1,1.7,3.8,3.8,3.8c2.1,0,3.8-1.7,3.8-3.8V3.8C57.4,1.7,55.7,0,53.6,0
		L53.6,0z M53.6,0"/>
	<path class="st0" d="M41.1,11.3l-7.6-7.6c-1.5-1.5-3.9-1.5-5.4,0c-1.5,1.5-1.5,3.9,0,5.4l7.6,7.6c0.7,0.7,1.7,1.1,2.7,1.1
		c1,0,1.9-0.4,2.7-1.1C42.6,15.2,42.6,12.8,41.1,11.3L41.1,11.3z M41.1,11.3"/>
	<path class="st0" d="M79.2,3.7c-1.5-1.5-3.9-1.5-5.4,0l-7.6,7.6c-1.5,1.5-1.5,3.9,0,5.4c0.7,0.7,1.7,1.1,2.7,1.1
		c1,0,1.9-0.4,2.7-1.1L79.2,9C80.6,7.5,80.6,5.1,79.2,3.7L79.2,3.7z M79.2,3.7"/>
	<path class="st0" d="M107.1,103.2c-0.5-2-2.6-3.3-4.6-2.8l-11.1,2.8l-5.6-22.4c13-5.2,19.2-19.5,14.5-33c-1-2.9-0.3-1.3-13.8-26.7
		c-0.8-1.5-2.6-2.3-4.3-1.9l-28.6,7.1L25,19.2c-1.7-0.4-3.5,0.4-4.3,1.9C18.8,24.7,9.8,41.6,8.6,43.9h0c-0.8,1.4-1.4,2.9-1.8,4.5
		c-4.3,13.5,2,27.3,14.7,32.4l-5.6,22.4l-11.1-2.8c-2-0.5-4.1,0.7-4.6,2.8c-0.5,2,0.7,4.1,2.8,4.6l29.5,7.4c2,0.5,4.1-0.7,4.6-2.8
		c0.5-2-0.7-4.1-2.8-4.6L23.2,105l5.6-22.4c10.3,1.1,19.8-4,24.8-12.6c5,8.6,14.5,13.7,24.8,12.6l5.6,22.4L73,107.8
		c-2,0.5-3.3,2.6-2.8,4.6c0.5,2,2.6,3.3,4.6,2.8l29.5-7.4C106.4,107.3,107.6,105.3,107.1,103.2L107.1,103.2z M17.5,43.3l8.5-16
		l23.8,5.9v18.5l0,0L17.5,43.3z M57.4,51.1l0-17.8l23.8-5.9l8.2,15.4L57.4,51.1z M57.4,51.1"/>
</g>
</svg>
